<?xml version="1.0" standalone="no"?>
<!DOCTYPE svg PUBLIC "-//W3C//DTD SVG 1.1//EN" "http://www.w3.org/Graphics/SVG/1.1/DTD/svg11.dtd" >
<svg>
<metadata>
Created by FontForge 20090914 at Mon Apr  4 16:11:53 2016
 By www-data
Copr. Peter Verheul, 1996. Published by FontShop International FontFont release 18
</metadata>
<defs>
<font id="Sheriff-Roman" horiz-adv-x="500" >
  <font-face 
    font-family="Sheriff"
    font-weight="550"
    font-stretch="normal"
    units-per-em="1000"
    panose-1="2 0 6 3 6 0 0 2 0 4"
    ascent="800"
    descent="-200"
    x-height="544"
    cap-height="718"
    bbox="-150 -198.001 1141 931"
    underline-thickness="20"
    underline-position="-280"
    unicode-range="U+0020-U+FB02"
  />
<missing-glyph 
 />
    <glyph glyph-name="fi" unicode="fi" horiz-adv-x="643" 
d="M363 0l-0.00195312 58h73v428h-222v-428h85v-58h-270v58h83v423h-82v62h82v40v35c0 11.333 0.833008 22.333 2.5 33s4.66699 21.167 9 31.5s10.833 20.5 19.5 30.5c15.333 16.667 32.333 27.5 51 32.5s41.667 7.5 69 7.5c20.667 0 38 -1.33301 52 -4
s24.667 -5.66699 32 -9v-70c-5.33301 3.33301 -12.333 5.83301 -21 7.5s-17.667 2.5 -27 2.5c-17.333 0 -32.666 -2.5 -45.999 -7.5s-23.666 -13.5 -30.999 -25.5c-6.66699 -10.667 -10 -24.167 -10 -40.5v-49.5v-13h326v-486h80v-58h-255zM556.998 686
c0 -20 -7.16699 -37 -21.5 -51s-31.5 -21 -51.5 -21s-37 7 -51 21s-21 31 -21 51s7 37 21 51s31 21 51 21s37.167 -7 51.5 -21s21.5 -31 21.5 -51z" />
    <glyph glyph-name="fl" unicode="fl" horiz-adv-x="644" 
d="M359 0l0.000976562 58.001h78v624h-131c-18 0 -32.833 -1.83301 -44.5 -5.5s-21.167 -9.16699 -28.5 -16.5c-4.66699 -4.66699 -8.33398 -9.5 -11.001 -14.5s-4.83398 -11.667 -6.50098 -20s-2.66699 -19 -3 -32s-0.5 -29.833 -0.5 -50.5h129v-62h-127v-423h85v-58h-270
v58h83v423h-82v62h82v40c0 27.333 3.16699 51.5 9.5 72.5s16.5 38.5 30.5 52.5c12.667 12.667 30.334 22.5 53.001 29.5s52.667 10.5 90 10.5c18.667 0 47.5 0.166992 86.5 0.5s91.5 0.166016 157.5 -0.500977v-690h80v-58h-260z" />
    <glyph glyph-name=".notdef" 
 />
    <glyph glyph-name="space" unicode=" " horiz-adv-x="190" 
 />
    <glyph glyph-name="exclam" unicode="!" horiz-adv-x="340" 
d="M248 71c0 -20 -6.83301 -37.3311 -20.5 -51.998s-30.5 -22.334 -50.5 -23.001c-10.667 0 -20.5 2 -29.5 6s-17 9.66699 -24 17s-12.333 15.833 -16 25.5s-5.16699 19.5 -4.5 29.5c0.666992 20 8.16699 37 22.5 51s31.5 21 51.5 21s36.833 -7.33301 50.5 -22
s20.5 -32.334 20.5 -53.001zM211 224.002l-72 -13l-19 515l110 18z" />
    <glyph glyph-name="quotedbl" unicode="&#x22;" horiz-adv-x="374" 
d="M145 631c0 -19.333 -0.831055 -39.499 -2.49805 -60.499s-3.83398 -41.333 -6.50098 -61s-5.33398 -37.667 -8.00098 -54s-5 -29.166 -7 -38.499h-43c-2.66699 9.33301 -5.5 22.166 -8.5 38.499s-6 34.166 -9 53.499s-5.5 39.5 -7.5 60.5s-3 40.833 -3 59.5v119h95v-117z
M324.002 631.001c0 -19.333 -0.831055 -39.499 -2.49805 -60.499s-3.83398 -41.333 -6.50098 -61s-5.33398 -37.667 -8.00098 -54s-5 -29.166 -7 -38.499h-43c-2.66699 9.33301 -5.5 22.166 -8.5 38.499s-6 34.166 -9 53.499s-5.5 39.5 -7.5 60.5s-3 40.833 -3 59.5v119h95
v-117z" />
    <glyph glyph-name="numbersign" unicode="#" horiz-adv-x="530" 
d="M202 461l-13 -186h141l13 186h-141zM519 461h-98l-14 -186h105l-8 -66h-102l-15 -209h-77l15 209h-141l-16 -209h-77l15 209h-100l8 66h97l14 186h-104l8 66h101l14 200h77l-14 -200h141l15 200h77l-14 -200h101z" />
    <glyph glyph-name="dollar" unicode="$" 
d="M348 173c0 26.667 -7.33301 48.666 -22 65.999s-32.667 33.333 -54 48v-210c24 8.66699 42.667 21.334 56 38.001s20 36 20 58zM229 651.999c-22.667 -7.33301 -40.5 -19.334 -53.5 -36.001s-19.5 -36.334 -19.5 -59.001c0 -23.333 5.5 -42.666 16.5 -57.999
s29.833 -31.666 56.5 -48.999v202zM453 205.998c0 -26 -4.66504 -50.002 -13.998 -72.002s-22.166 -41.667 -38.499 -59s-35.5 -32 -57.5 -44s-45.667 -21 -71 -27v-71h-53v63h-17c-34.667 0 -64.834 1.66699 -90.501 5s-48.167 8.33301 -67.5 15v143h70v-83
c11.333 -3.33301 23.5 -6 36.5 -8s29.167 -3 48.5 -3h10c3.33301 0 6.66602 0.333008 9.99902 1v255l-39 24c-22 14 -41 27.833 -57 41.5s-29 28.334 -39 44.001s-17.5 32.334 -22.5 50.001s-7.5 37.167 -7.5 58.5c0 22 4 43 12 63s19.5 38 34.5 54s33.333 29.667 55 41
s46.167 19 73.5 23v66h53v-62c28 0 52.667 -1.5 74 -4.5s40.666 -7.16699 57.999 -12.5v-144h-70v89c-8 2 -16.833 3.5 -26.5 4.5s-21.5 1.5 -35.5 1.5v-240l47 -28c39.333 -23.333 69.833 -49 91.5 -77s32.5 -63.667 32.5 -107z" />
    <glyph glyph-name="percent" unicode="%" horiz-adv-x="800" 
d="M691 179c0 13.333 -1.16504 27.001 -3.49805 41.001s-6.33301 26.833 -12 38.5s-12.834 21.334 -21.501 29.001s-19.334 11.5 -32.001 11.5c-12 0 -22.333 -3.83301 -31 -11.5s-15.667 -17.334 -21 -29.001s-9.16602 -24.5 -11.499 -38.5s-3.5 -27.667 -3.5 -41
c0 -16 1.16699 -32.167 3.5 -48.5s6.16602 -31.333 11.499 -45s12.333 -24.834 21 -33.501s19.667 -13 33 -13s24.333 4.16699 33 12.5s15.5 19.166 20.5 32.499s8.5 28.333 10.5 45s3 33.334 3 50.001zM246.002 526.001c0 13.333 -1.16504 27.001 -3.49805 41.001
s-6.33301 26.833 -12 38.5s-12.834 21.334 -21.501 29.001s-19.334 11.5 -32.001 11.5c-12 0 -22.333 -3.83301 -31 -11.5s-15.667 -17.334 -21 -29.001s-9.16602 -24.5 -11.499 -38.5s-3.5 -27.667 -3.5 -41c0 -16 1.16699 -32.167 3.5 -48.5s6.16602 -31.333 11.499 -45
s12.333 -24.834 21 -33.501s19.667 -13 33 -13s24.333 4.16699 33 12.5s15.5 19.166 20.5 32.499s8.5 28.333 10.5 45s3 33.334 3 50.001zM776.004 181.002c0 -24.667 -3.50195 -48.501 -10.502 -71.501s-17.167 -43.333 -30.5 -61s-29.5 -31.834 -48.5 -42.501
s-40.5 -16 -64.5 -16c-26 0 -48.667 4.83301 -68 14.5s-35.166 22.834 -47.499 39.501s-21.5 36.334 -27.5 59.001s-9 47 -9 73c0 22.667 3.66699 44.5 11 65.5s17.833 39.5 31.5 55.5s29.834 28.833 48.501 38.5s39.667 14.5 63 14.5c24 0 45.333 -4.66699 64 -14
s34.5 -21.833 47.5 -37.5s23 -33.667 30 -54s10.5 -41.5 10.5 -63.5zM171.002 -94.999l-47 26l489 844l46 -26zM331.002 528.001c0 -24.667 -3.50195 -48.501 -10.502 -71.501s-17.167 -43.333 -30.5 -61s-29.5 -31.834 -48.5 -42.501s-40.5 -16 -64.5 -16
c-26 0 -48.667 4.83301 -68 14.5s-35.166 22.834 -47.499 39.501s-21.5 36.334 -27.5 59.001s-9 47 -9 73c0 22.667 3.66699 44.5 11 65.5s17.833 39.5 31.5 55.5s29.834 28.833 48.501 38.5s39.667 14.5 63 14.5c24 0 45.333 -4.66699 64 -14s34.5 -21.833 47.5 -37.5
s23 -33.667 30 -54s10.5 -41.5 10.5 -63.5z" />
    <glyph glyph-name="ampersand" unicode="&#x26;" horiz-adv-x="650" 
d="M236 333c-26 -11.333 -45.999 -30.168 -59.999 -56.501s-21 -54.166 -21 -83.499c0 -40 11 -72 33 -96s50 -36 84 -36c28 0 53.167 4.5 75.5 13.5s45.166 25.833 68.499 50.5zM370.001 578.998c0 27.333 -6.83398 49.667 -20.501 67s-34.5 26 -62.5 26
c-25.333 0 -45.666 -10 -60.999 -30s-23 -45.333 -23 -76c0 -34 6.33301 -61.333 19 -82s30 -42 52 -64c28 10.667 51 29.667 69 57s27 61.333 27 102zM483 -0.000976562l0.000976562 46.002l-26 33c-12.667 -13.333 -25.667 -25.166 -39 -35.499s-27.666 -19 -42.999 -26
s-32.5 -12.333 -51.5 -16s-40.833 -5.5 -65.5 -5.5c-30.667 0 -58.834 4.16699 -84.501 12.5s-47.834 20.333 -66.501 36s-33.167 34.667 -43.5 57s-15.5 47.5 -15.5 75.5c0 48 13.333 89.333 40 124s63.667 59.667 111 75c-15.333 14 -28.5 27.667 -39.5 41
s-20.333 27 -28 41s-13.334 29 -17.001 45s-5.5 34 -5.5 54c0 25.333 4.66699 48.666 14 69.999s22.333 39.833 39 55.5s36.834 27.834 60.501 36.501s49.834 13 78.501 13c50 0 89 -13.333 117 -40s42 -64.334 42 -113.001c0 -26 -4.16699 -49.5 -12.5 -70.5
s-19.5 -39.667 -33.5 -56s-30.333 -30.333 -49 -42s-38 -20.834 -58 -27.501l153 -177c6 13.333 10.833 29.666 14.5 48.999s5.5 40 5.5 62h-49v56h184v-58h-66c0 -12.667 -1.16699 -26.167 -3.5 -40.5s-5.5 -28.833 -9.5 -43.5s-8.83301 -28.5 -14.5 -41.5
s-11.834 -24.167 -18.501 -33.5l81 -98h46v-58h-147z" />
    <glyph glyph-name="quotesingle" unicode="'" horiz-adv-x="195" 
d="M145 631c0 -19.333 -0.831055 -39.499 -2.49805 -60.499s-3.83398 -41.333 -6.50098 -61s-5.33398 -37.667 -8.00098 -54s-5 -29.166 -7 -38.499h-43c-2.66699 9.33301 -5.5 22.166 -8.5 38.499s-6 34.166 -9 53.499s-5.5 39.5 -7.5 60.5s-3 40.833 -3 59.5v119h95v-117z
" />
    <glyph glyph-name="parenleft" unicode="(" horiz-adv-x="325" 
d="M286 -184c-29.333 17.333 -57.333 39.6689 -84 67.002c-22 22 -42.167 48 -60.5 78s-33.833 63 -46.5 99s-22.5 74.5 -29.5 115.5s-10.5 83.5 -10.5 127.5c0 93.333 12.833 174.166 38.5 242.499s60.5 124.5 104.5 168.5c14 14 28.5 26.833 43.5 38.5
s29.833 22.167 44.5 31.5l39 -42c-15.333 -10 -29 -21.333 -41 -34c-16.667 -16 -32.5 -36.333 -47.5 -61s-28.167 -53.334 -39.5 -86.001s-20.333 -69.5 -27 -110.5s-10 -86.167 -10 -135.5s3.5 -96 10.5 -140s16.833 -84.5 29.5 -121.5s27.667 -70.167 45 -99.5
s36 -54 56 -74c8 -8 16 -15 24 -21z" />
    <glyph glyph-name="parenright" unicode=")" horiz-adv-x="325" 
d="M270 297c0 -93.333 -12.833 -174.169 -38.5 -242.502s-60.5 -124.5 -104.5 -168.5c-14 -14 -28.5 -26.833 -43.5 -38.5s-29.833 -22.167 -44.5 -31.5l-39 42c15.333 10 29 21.333 41 34c16.667 16 32.5 36.333 47.5 61s28.167 53.334 39.5 86.001s20.333 69.5 27 110.5
s10 86.167 10 135.5s-3.5 95.833 -10.5 139.5s-16.833 84 -29.5 121s-27.667 70.333 -45 100s-36 54.5 -56 74.5c-8 8 -16 15 -24 21l39 43c29.333 -17.333 57.333 -39.666 84 -66.999c22 -22 42.167 -48 60.5 -78s33.833 -63 46.5 -99s22.5 -74.5 29.5 -115.5
s10.5 -83.5 10.5 -127.5z" />
    <glyph glyph-name="asterisk" unicode="*" horiz-adv-x="300" 
d="M198 631l63 -70l-65 -48l-46 83l-45 -81l-65 47l65 70l-94 20l25 77l84 -37l-9 90h84l-12 -91l82 35l26 -79z" />
    <glyph glyph-name="plus" unicode="+" 
d="M287 256v-155h-74v155h-154v71h154v154h74v-154h153v-71h-153z" />
    <glyph glyph-name="comma" unicode="," horiz-adv-x="250" 
d="M197 64c0 -28 -4.00098 -51.998 -12.001 -71.998s-20.667 -38.667 -38 -56c-21.333 -21.333 -39.666 -34.5 -54.999 -39.5s-24.333 -7.5 -27 -7.5l-27 38c2 0 5 0.666992 9 2s8.5 3.16602 13.5 5.49902s10 5 15 8s9.16699 6.16699 12.5 9.5
c12 13.333 18 29.666 18 48.999c-15.333 5.33301 -27.5 14 -36.5 26s-13.5 26.333 -13.5 43c0 20 6.33301 37 19 51s29.667 21 51 21s38.5 -8 51.5 -24s19.5 -34 19.5 -54z" />
    <glyph glyph-name="hyphen" unicode="-" horiz-adv-x="300" 
d="M35 277v68h230v-68h-230z" />
    <glyph glyph-name="hyphen" unicode="&#xad;" horiz-adv-x="300" 
d="M35 277v68h230v-68h-230z" />
    <glyph glyph-name="period" unicode="." horiz-adv-x="250" 
d="M197 70c0 -20 -7.16699 -37 -21.5 -51s-31.5 -21 -51.5 -21s-37 7 -51 21s-21 31 -21 51s7 37 21 51s31 21 51 21s37.167 -7 51.5 -21s21.5 -31 21.5 -51z" />
    <glyph glyph-name="slash" unicode="/" horiz-adv-x="293" 
d="M42 -113l-57 18l256 839l57 -18z" />
    <glyph glyph-name="zero" unicode="0" 
d="M360 286c0 26.667 -2.00098 52.167 -6.00098 76.5s-10.333 45.833 -19 64.5s-20.167 33.5 -34.5 44.5s-31.5 16.5 -51.5 16.5c-18 0 -33.833 -5 -47.5 -15s-25.167 -23.833 -34.5 -41.5s-16.333 -38.834 -21 -63.501s-7 -52 -7 -82c0 -31.333 2 -61 6 -89
s10.5 -52.5 19.5 -73.5s20.667 -37.5 35 -49.5s31.5 -18 51.5 -18s37 5.83301 51 17.5s25.333 27.834 34 48.501s14.834 45 18.501 73s5.5 58.333 5.5 91zM469.999 290c0 -41.333 -4.66602 -80 -13.999 -116s-23.166 -67.5 -41.499 -94.5s-41.333 -48.333 -69 -64
s-59.834 -23.5 -96.501 -23.5c-39.333 0 -72.833 6.83301 -100.5 20.5s-50.334 33.167 -68.001 58.5s-30.5 55.833 -38.5 91.5s-12 75.5 -12 119.5c0 36 5 70.333 15 103s24.5 61.167 43.5 85.5s42.167 43.833 69.5 58.5s58.666 22 93.999 22c38 0 70.667 -6.33301 98 -19
s49.833 -30.5 67.5 -53.5s30.834 -50.5 39.501 -82.5s13 -67.333 13 -106z" />
    <glyph glyph-name="one" unicode="1" 
d="M123 0v58h81v394l-87 -13l-6 60l191 53v-494h77v-58h-256z" />
    <glyph glyph-name="two" unicode="2" 
d="M66 0l0.00195312 66c17.333 10 35.833 22.5 55.5 37.5s36.167 29.167 49.5 42.5l46 47.5c14.667 15.667 27.5 31.834 38.5 48.501s19.833 34.334 26.5 53.001s10 39 10 61c0 34 -11.833 61.333 -35.5 82s-53.834 31 -90.501 31c-17.333 0 -34.166 -1.16699 -50.499 -3.5
s-29.833 -5.5 -40.5 -9.5v64c10.667 6.66699 27.167 13 49.5 19s47.166 9 74.499 9c64 0 113.333 -13.833 148 -41.5s52 -69.834 52 -126.501c0 -27.333 -5.33301 -54.666 -16 -81.999s-25.834 -53.833 -45.501 -79.5s-43 -50.334 -70 -74.001s-56.5 -45.834 -88.5 -66.501
h256v-78h-369z" />
    <glyph glyph-name="three" unicode="3" 
d="M412 20c0 -30.667 -6.83594 -58.6709 -20.5029 -84.0039s-31.834 -47.166 -54.501 -65.499s-48.834 -32.5 -78.501 -42.5s-60.5 -15 -92.5 -15c-24 0 -44.667 1.16699 -62 3.5s-31.666 5.5 -42.999 9.5v60c15.333 -3.33301 31 -5.66602 47 -6.99902s34.333 -2 55 -2
c20 0 38.833 2.66699 56.5 8s33 13.5 46 24.5s23.333 24.833 31 41.5s11.5 36 11.5 58c0 20.667 -4.66699 38.334 -14 53.001s-22.5 26.834 -39.5 36.501s-37.667 16.834 -62 21.501s-51.166 7 -80.499 7l-8 90c20.667 4.66699 42.167 11.167 64.5 19.5s42.833 19 61.5 32
s33.834 28.333 45.501 46s17.5 38.167 17.5 61.5c0 32.667 -11.167 57 -33.5 73s-53.5 24 -93.5 24c-19.333 0 -35.5 -0.833008 -48.5 -2.5s-24.167 -3.83398 -33.5 -6.50098v61c13.333 5.33301 30.833 10.5 52.5 15.5s46.834 7.5 75.501 7.5c58.667 0 104 -13.667 136 -41
s48 -66 48 -116s-18.167 -92 -54.5 -126s-85.166 -56.667 -146.499 -68c32 0 61.333 -3.5 88 -10.5s49.5 -17.833 68.5 -32.5s33.833 -33 44.5 -55s16 -48.333 16 -79z" />
    <glyph glyph-name="four" unicode="4" 
d="M287 404l-174 -317h174v317zM377 9v-173l-91 -18v193h-261v69l259 467h93v-460h88v-78h-88z" />
    <glyph glyph-name="five" unicode="5" 
d="M435 53c0 -33.333 -5.99902 -64.666 -17.999 -93.999s-29.5 -54.833 -52.5 -76.5s-51 -38.667 -84 -51s-70.833 -18.5 -113.5 -18.5c-22 0 -39.833 1.16699 -53.5 3.5s-26.834 5.16602 -39.501 8.49902v61c11.333 -2.66699 24.833 -4.83398 40.5 -6.50098
s31.167 -2.5 46.5 -2.5c24 0 46.333 3 67 9s38.667 15.167 54 27.5s27.333 27.833 36 46.5s13 40.667 13 66c0 22.667 -3.83301 42.834 -11.5 60.501s-20.5 32.5 -38.5 44.5s-41.833 21.167 -71.5 27.5s-66.5 9.5 -110.5 9.5v376h309v-80h-227v-211
c86.667 0 150.667 -18.167 192 -54.5s62 -84.833 62 -145.5z" />
    <glyph glyph-name="six" unicode="6" 
d="M350 184c0 42 -11.168 75 -33.501 99s-55.5 36 -99.5 36c-22.667 0 -43 -2 -61 -6c-3.33301 -15.333 -5.66602 -31.333 -6.99902 -48s-2 -31.667 -2 -45c0 -50 9.5 -89.167 28.5 -117.5s44.167 -42.5 75.5 -42.5c32 0 56.5 10.667 73.5 32s25.5 52 25.5 92zM466.999 626
c-43.333 -16.667 -83.5 -36.3262 -120.5 -58.9932s-69.5 -47 -97.5 -73c-9.33301 -8.66699 -18.333 -18.334 -27 -29.001s-16.5 -21.334 -23.5 -32.001s-13 -20.834 -18 -30.501s-8.5 -18.167 -10.5 -25.5c22.667 6 47.667 9 75 9c32 0 61 -3 87 -9s48.167 -16.333 66.5 -31
s32.5 -34 42.5 -58s15 -54 15 -90c0 -30 -5.83301 -57.5 -17.5 -82.5s-27.167 -46.167 -46.5 -63.5s-42 -30.833 -68 -40.5s-53.333 -14.5 -82 -14.5c-28 0 -54.167 4.33301 -78.5 13s-45.666 22.167 -63.999 40.5s-32.833 41.666 -43.5 69.999s-16 62.166 -16 101.499
c0 63.333 10.167 119.166 30.5 167.499s52.5 94.166 96.5 137.499c18 17.333 39.167 34.333 63.5 51s49.333 31.5 75 44.5s50.667 23.667 75 32s45.166 13.5 62.499 15.5z" />
    <glyph glyph-name="seven" unicode="7" 
d="M152 -188l-82 29l262 616h-263v87h359v-53z" />
    <glyph glyph-name="eight" unicode="8" 
d="M361 166c0 32 -12.001 61.001 -36.001 87.001s-58 43.667 -102 53c-27.333 -13.333 -48.5 -31 -63.5 -53s-22.5 -50 -22.5 -84c0 -32 10.5 -58.667 31.5 -80s49.5 -32 85.5 -32c14.667 0 28.5 2.66699 41.5 8s24.333 12.666 34 21.999s17.334 20.833 23.001 34.5
s8.5 28.5 8.5 44.5zM348.999 511.001c0 28 -8.5 51.667 -25.5 71s-39.5 29 -67.5 29c-30.667 0 -54.5 -10 -71.5 -30s-25.5 -43.333 -25.5 -70c0 -30.667 9.66699 -56.5 29 -77.5s44.333 -36.833 75 -47.5c23.333 8 43.5 21.833 60.5 41.5s25.5 47.5 25.5 83.5z
M461.999 183.001c0 -27.333 -5.66309 -52.501 -16.9961 -75.501s-26.833 -42.833 -46.5 -59.5s-42.334 -29.667 -68.001 -39s-52.5 -14 -80.5 -14c-72 0 -125.333 15.667 -160 47s-52 72 -52 122c0 38.667 11.5 73.334 34.5 104.001s55.167 53.667 96.5 69
c-32 15.333 -58 35.833 -78 61.5s-30 59.167 -30 100.5c0 22 4.5 43.333 13.5 64s21.833 39 38.5 55s37.167 28.833 61.5 38.5s52.166 14.5 83.499 14.5c60.667 0 106.667 -14.333 138 -43s47 -65.667 47 -111c0 -20 -3.33301 -38.667 -10 -56s-15.834 -33 -27.501 -47
s-25 -26.167 -40 -36.5s-30.833 -18.166 -47.5 -23.499c45.333 -10.667 80.666 -31.334 105.999 -62.001s38 -67 38 -109z" />
    <glyph glyph-name="nine" unicode="9" 
d="M354 324c0 24 -2.33105 45.834 -6.99805 65.501s-11.5 36.834 -20.5 51.501s-19.833 26 -32.5 34s-27.334 12 -44.001 12c-17.333 0 -32.333 -3.5 -45 -10.5s-23 -16.5 -31 -28.5s-14 -26 -18 -42s-6 -33 -6 -51c0 -41.333 11.333 -75.5 34 -102.5s55 -40.5 97 -40.5
c12 0 22.833 0.833008 32.5 2.5s19.167 3.5 28.5 5.5c3.33301 17.333 6.16602 35.666 8.49902 54.999s3.5 35.666 3.5 48.999zM461.002 321.001c0 -76.667 -13.333 -145.335 -40 -206.002s-62.334 -113 -107.001 -157c-74 -72.667 -160.667 -120.667 -260 -144l-16 49
c38.667 15.333 72.5 32.333 101.5 51s55.5 39.667 79.5 63c12.667 12 24.667 25.5 36 40.5s21.666 30.5 30.999 46.5s17.833 31.833 25.5 47.5s13.834 30.5 18.501 44.5c-11.333 -3.33301 -24.833 -5.83301 -40.5 -7.5s-33.834 -2.5 -54.501 -2.5
c-30 0 -56.833 4.83301 -80.5 14.5s-43.667 23.334 -60 41.001s-28.666 38.834 -36.999 63.501s-12.5 52 -12.5 82c0 29.333 5.33301 56.5 16 81.5s25.334 46.5 44.001 64.5s41 32 67 42s54.667 15 86 15c62.667 0 112.167 -18.833 148.5 -56.5s54.5 -95.167 54.5 -172.5z
" />
    <glyph glyph-name="colon" unicode=":" horiz-adv-x="250" 
d="M197 70c0 -20 -7.16699 -37 -21.5 -51s-31.5 -21 -51.5 -21s-37 7 -51 21s-21 31 -21 51s7 37 21 51s31 21 51 21s37.167 -7 51.5 -21s21.5 -31 21.5 -51zM197 474c0 -20 -7.16699 -37 -21.5 -51s-31.5 -21 -51.5 -21s-37 7 -51 21s-21 31 -21 51s7 37 21 51s31 21 51 21
s37.167 -7 51.5 -21s21.5 -31 21.5 -51z" />
    <glyph glyph-name="semicolon" unicode=";" horiz-adv-x="250" 
d="M197 64c0 -28 -4.00098 -51.998 -12.001 -71.998s-20.667 -38.667 -38 -56c-21.333 -21.333 -39.666 -34.5 -54.999 -39.5s-24.333 -7.5 -27 -7.5l-27 38c2 0 5 0.666992 9 2s8.5 3.16602 13.5 5.49902s10 5 15 8s9.16699 6.16699 12.5 9.5
c12 13.333 18 29.666 18 48.999c-15.333 5.33301 -27.5 14 -36.5 26s-13.5 26.333 -13.5 43c0 20 6.33301 37 19 51s29.667 21 51 21s38.5 -8 51.5 -24s19.5 -34 19.5 -54zM196.999 474.002c0 -20 -7.16699 -37 -21.5 -51s-31.5 -21 -51.5 -21s-37 7 -51 21s-21 31 -21 51
s7 37 21 51s31 21 51 21s37.167 -7 51.5 -21s21.5 -31 21.5 -51z" />
    <glyph glyph-name="semicolon" unicode="&#x37e;" horiz-adv-x="250" 
d="M197 64c0 -28 -4.00098 -51.998 -12.001 -71.998s-20.667 -38.667 -38 -56c-21.333 -21.333 -39.666 -34.5 -54.999 -39.5s-24.333 -7.5 -27 -7.5l-27 38c2 0 5 0.666992 9 2s8.5 3.16602 13.5 5.49902s10 5 15 8s9.16699 6.16699 12.5 9.5
c12 13.333 18 29.666 18 48.999c-15.333 5.33301 -27.5 14 -36.5 26s-13.5 26.333 -13.5 43c0 20 6.33301 37 19 51s29.667 21 51 21s38.5 -8 51.5 -24s19.5 -34 19.5 -54zM196.999 474.002c0 -20 -7.16699 -37 -21.5 -51s-31.5 -21 -51.5 -21s-37 7 -51 21s-21 31 -21 51
s7 37 21 51s31 21 51 21s37.167 -7 51.5 -21s21.5 -31 21.5 -51z" />
    <glyph glyph-name="less" unicode="&#x3c;" 
d="M158 279l255 -173l-54 -54l-327 224l331 216l51 -51z" />
    <glyph glyph-name="equal" unicode="=" 
d="M60 163v72h380v-72h-380zM60 327v72h380v-72h-380z" />
    <glyph glyph-name="greater" unicode="&#x3e;" 
d="M137 52l-51 51l256 162l-255 173l54 54l327 -224z" />
    <glyph glyph-name="question" unicode="?" horiz-adv-x="476" 
d="M284 70c0 -20 -7.16699 -37 -21.5 -51s-31.5 -21 -51.5 -21s-37 7 -51 21s-21 31 -21 51s7 37 21 51s31 21 51 21s37.167 -7 51.5 -21s21.5 -31 21.5 -51zM437 569c0 -22 -4.00195 -41.5 -12.002 -58.5s-18.333 -32.167 -31 -45.5s-27 -25.166 -43 -35.499
s-31.5 -19.5 -46.5 -27.5l-42 -22c-13 -6.66699 -23.167 -12.667 -30.5 -18c-16 -12 -24 -26.333 -24 -43c0 -10 2.16699 -19.667 6.5 -29s9.83301 -17.666 16.5 -24.999l-73 -45c-11.333 13.333 -20.5 27.5 -27.5 42.5s-10.5 30.833 -10.5 47.5c0 24.667 9.66699 47 29 67
c14.667 15.333 32.334 28.333 53.001 39s40.334 22 59.001 34s34.5 26.167 47.5 42.5s19.5 38.166 19.5 65.499c0 32 -10.833 57.833 -32.5 77.5s-49.834 29.5 -84.501 29.5c-13.333 0 -23.666 -0.333008 -30.999 -1s-15.666 -2.33398 -24.999 -5.00098v-94h-68v140
c17.333 8 39.666 14.5 66.999 19.5s56 7.5 86 7.5c68.667 0 118.667 -14.5 150 -43.5s47 -68.833 47 -119.5z" />
    <glyph glyph-name="at" unicode="@" horiz-adv-x="909" 
d="M500 245c-56.667 0 -98.499 -7.99902 -125.499 -23.999s-40.5 -42.667 -40.5 -80c0 -28 10.667 -48.667 32 -62s52 -20 92 -20c7.33301 0 14.666 0.166992 21.999 0.5s14 1.16602 20 2.49902v183zM864.001 343.001c0 -53.333 -6.33691 -101.159 -19.0039 -143.492
s-30.667 -78.333 -54 -108s-51.333 -52.334 -84 -68.001s-68.667 -23.5 -108 -23.5h-75c-11.333 0 -25.333 -0.5 -42 -1.5s-33.667 -1.5 -51 -1.5c-38 0 -70 3.16699 -96 9.5s-47 15.5 -63 27.5s-27.5 26.667 -34.5 44s-10.5 37 -10.5 59c0 36 8.83301 65 26.5 87
s39.834 39.167 66.501 51.5s55.834 20.5 87.501 24.5s61.834 5.66699 90.501 5c0 40 -2.5 70.667 -7.5 92s-13.833 38.666 -26.5 51.999c-11.333 11.333 -25.833 19.666 -43.5 24.999s-37.5 8 -59.5 8c-5.33301 0 -11.166 -0.166992 -17.499 -0.5
s-12.166 -1.16602 -17.499 -2.49902v-90h-66v145c16.667 3.33301 37.167 6.33301 61.5 9s50.5 4 78.5 4c64.667 0 114 -14 148 -42s50.667 -69.333 50 -124l-2 -323c23.333 0 45.333 5 66 15s38.667 25.833 54 47.5s27.333 49.167 36 82.5s13 73.333 13 120
c0 106 -28.667 187.333 -86 244s-138 85 -242 85c-50 0 -94.5 -7.66699 -133.5 -23s-72 -36.333 -99 -63s-47.5 -58.334 -61.5 -95.001s-21 -76.334 -21 -119.001c0 -12.667 0.833008 -26.834 2.5 -42.501s4.16699 -31.667 7.5 -48s7.5 -33 12.5 -50
s11.167 -33.167 18.5 -48.5l-46 -27c-8 11.333 -16.333 24.666 -25 39.999s-16.5 32.333 -23.5 51s-12.667 39 -17 61s-6.5 45 -6.5 69c0 58.667 11 110.667 33 156s51.333 83.333 88 114s79.167 54 127.5 70s99.166 24 152.499 24c64 0 121.833 -8.66699 173.5 -26
s95.5 -42.333 131.5 -75s63.833 -72.334 83.5 -119.001s29.5 -99.334 29.5 -158.001z" />
    <glyph glyph-name="A" unicode="A" horiz-adv-x="698" 
d="M349 656l-86 -326h162zM409 0v60h77l-50 204h-190l-53 -204h72v-60h-240v60h77l187 661h143l167 -661h74v-60h-264z" />
    <glyph glyph-name="B" unicode="B" horiz-adv-x="619" 
d="M454 194c0 51.333 -18 88.501 -54 111.501s-86 34.5 -150 34.5v-277c10.667 -2 21.667 -3.16699 33 -3.5s22 -0.5 32 -0.5c40 0 73.167 10.667 99.5 32s39.5 55.666 39.5 102.999zM424 536.001c0 44 -11.332 75.5 -33.999 94.5s-57.334 28.5 -104.001 28.5
c-5.33301 0 -11.166 -0.166992 -17.499 -0.5s-12.5 -0.5 -18.5 -0.5v-253c61.333 0 105.666 10.833 132.999 32.5s41 54.5 41 98.5zM566.001 210.001c0 -35.333 -6.00195 -66.165 -18.002 -92.498s-28.667 -48.333 -50 -66s-46.333 -30.834 -75 -39.501s-60 -13 -94 -13
c-16 0 -31.667 0.166992 -47 0.5s-31.666 0.5 -48.999 0.5h-166v60h77v598h-79v60h156c10.667 0 22.667 0.166992 36 0.5s24.666 0.5 33.999 0.5c81.333 0 141.833 -12.333 181.5 -37s59.5 -66.667 59.5 -126c0 -27.333 -4.33301 -51.333 -13 -72s-20.167 -38.5 -34.5 -53.5
s-30.666 -26.833 -48.999 -35.5s-37.166 -14.334 -56.499 -17.001c26.667 -2 51.5 -6.83301 74.5 -14.5s42.833 -18.5 59.5 -32.5s29.667 -31 39 -51s14 -43.333 14 -70z" />
    <glyph glyph-name="C" unicode="C" horiz-adv-x="589" 
d="M561 20c-11.333 -4 -33.3301 -9.33594 -65.9971 -16.0029s-69.667 -10 -111 -10c-56 0 -104.833 6.83301 -146.5 20.5s-76.334 34.834 -104.001 63.501s-48.5 65.334 -62.5 110.001s-21 98.334 -21 161.001c0 52 8.16699 100.667 24.5 146s39.5 84.833 69.5 118.5
s66.333 60.334 109 80.001s90 29.5 142 29.5c35.333 0 65.666 -2 90.999 -6s49.666 -9.33301 72.999 -16v-143h-71v80c-12 4 -26.167 7.33301 -42.5 10s-33.833 4 -52.5 4c-34 0 -65 -6.33301 -93 -19s-52 -31.334 -72 -56.001s-35.5 -55 -46.5 -91
s-16.5 -77.333 -16.5 -124c0 -98 18.667 -172 56 -222s91.333 -75 162 -75c22 0 41.833 1.66699 59.5 5s33.5 7 47.5 11v90h71v-151z" />
    <glyph glyph-name="D" unicode="D" horiz-adv-x="726" 
d="M563 379c0 96.667 -23.666 167.334 -70.999 212.001s-114 67 -200 67h-41v-598c5.33301 -0.666992 9.16602 -1.16699 11.499 -1.5s4.33301 -0.5 6 -0.5h5.5h11c88.667 0 157.167 26.667 205.5 80s72.5 133.666 72.5 240.999zM676.001 396
c0 -58 -7.33398 -111.333 -22.001 -160s-37.667 -90.5 -69 -125.5s-71.5 -62.333 -120.5 -82s-107.833 -29.5 -176.5 -29.5c-9.33301 0 -19.666 0.166992 -30.999 0.5s-23.333 0.5 -36 0.5h-156v60h78v598h-78v60h167c8.66699 0 18.5 0.166992 29.5 0.5s26.5 0.5 46.5 0.5
c245.333 0 368 -107.667 368 -323z" />
    <glyph glyph-name="E" unicode="E" horiz-adv-x="581" 
d="M66 0v60h78v598h-79v60h446v-143h-66v79h-193v-242h216v-75h-216v-274h221v90h66v-153h-473z" />
    <glyph glyph-name="F" unicode="F" horiz-adv-x="574" 
d="M450 573v81h-199v-231h213v-75h-213v-288h102v-60h-288v60h78v598h-78v60h454v-145h-69z" />
    <glyph glyph-name="G" unicode="G" horiz-adv-x="644" 
d="M568 252l0.00488281 -230.002c-18.667 -6.66699 -44.334 -13 -77.001 -19s-67.334 -9 -104.001 -9c-116 0 -201.167 29 -255.5 87s-81.5 147.333 -81.5 268c0 52 8.16699 100.667 24.5 146s39.666 84.833 69.999 118.5s67.166 60.334 110.499 80.001s92 29.5 146 29.5
c32 0 61.833 -2 89.5 -6s51.5 -9.66699 71.5 -17v-144h-71v83c-8.66699 3.33301 -21.167 6.33301 -37.5 9s-35.5 4 -57.5 4c-37.333 0 -70.5 -7.16699 -99.5 -21.5s-53.167 -34.166 -72.5 -59.499s-34 -55.833 -44 -91.5s-15 -74.5 -15 -116.5
c0 -98.667 18.5 -173 55.5 -223s92.167 -75 165.5 -75c14.667 0 29.167 0.666992 43.5 2s27.166 4 38.499 8v177h-68v59h221v-59h-53z" />
    <glyph glyph-name="H" unicode="H" horiz-adv-x="770" 
d="M445 0v60h78v281h-272v-281h74v-60h-260v60h78v598h-78v60h260v-60h-74v-243h272v243h-78v60h260v-60h-74v-598h74v-60h-260z" />
    <glyph glyph-name="I" unicode="I" horiz-adv-x="389" 
d="M65 0v60h78v598h-78v60h259v-60h-74v-598h74v-60h-259z" />
    <glyph glyph-name="J" unicode="J" horiz-adv-x="383" 
d="M254 658l0.00195312 -585.001c0 -39.333 -3.83301 -73.5 -11.5 -102.5s-23.167 -55.5 -46.5 -79.5c-19.333 -19.333 -42.833 -33.666 -70.5 -42.999s-52.834 -14 -75.501 -14h-8c-2 0 -4.66699 0.333008 -8 1v62c12 1.33301 25.5 5.33301 40.5 12s28.167 15.667 39.5 27
c15.333 15.333 24.666 37 27.999 65s5 59 5 93v564h-78v60h259v-60h-74z" />
    <glyph glyph-name="K" unicode="K" horiz-adv-x="690" 
d="M416 0v60h58l-223 294v-294h74v-60h-260v60h78v598h-78v60h258v-60h-72v-288l235 288h-72v60h219v-60h-57l-219 -267l253 -331h49v-60h-243z" />
    <glyph glyph-name="L" unicode="L" horiz-adv-x="537" 
d="M65 0v60h78v598h-78v60h260v-60h-74v-593h191v88h65v-153h-442z" />
    <glyph glyph-name="M" unicode="M" horiz-adv-x="905" 
d="M775 658v-598h58v-60h-226v60h65v582l-173 -642h-97l-174 640v-580h78v-60h-241v60h79v598h-66v60h229l158 -568l157 568h218v-60h-65z" />
    <glyph glyph-name="N" unicode="N" horiz-adv-x="706" 
d="M584 658v-658h-137l-231 633v-573h91v-60h-242v60h76v598h-67v60h226l209 -587v527h-77v60h217v-60h-65z" />
    <glyph glyph-name="O" unicode="O" horiz-adv-x="707" 
d="M539 350c0 100.667 -17 176.999 -51 228.999s-78.667 78 -134 78c-32 0 -59.667 -7.33301 -83 -22s-42.5 -35 -57.5 -61s-26 -56.667 -33 -92s-10.5 -73.333 -10.5 -114c0 -39.333 3.33301 -77.5 10 -114.5s17.5 -69.667 32.5 -98s34.333 -51.166 58 -68.499
s52.5 -26 86.5 -26c28 0 53.167 7.16699 75.5 21.5s41.5 34.333 57.5 60s28.167 56.167 36.5 91.5s12.5 74 12.5 116zM657 369.999c0 -61.333 -7.33203 -115.832 -21.999 -163.499s-35.334 -87.667 -62.001 -120s-58.334 -56.833 -95.001 -73.5s-77.334 -25 -122.001 -25
c-51.333 0 -96.166 8.83301 -134.499 26.5s-70.166 42.5 -95.499 74.5s-44.333 69.833 -57 113.5s-19 91.5 -19 143.5c0 55.333 6.66699 106.333 20 153s32.666 87 57.999 121s56.833 60.5 94.5 79.5s80.834 28.5 129.501 28.5c54 0 100.333 -9 139 -27
s70.167 -42.833 94.5 -74.5s42.333 -69.334 54 -113.001s17.5 -91.5 17.5 -143.5z" />
    <glyph glyph-name="P" unicode="P" horiz-adv-x="588" 
d="M442 516c0 46 -13.167 81.167 -39.5 105.5s-64.166 36.5 -113.499 36.5h-40v-304c3.33301 0 7.16602 -0.166992 11.499 -0.5s9.5 -0.5 15.5 -0.5c110.667 0 166 54.333 166 163zM553 529c0 -41.333 -6.83398 -77 -20.501 -107s-32.667 -54.667 -57 -74
s-53 -33.833 -86 -43.5s-68.833 -14.5 -107.5 -14.5h-15.5c-5 0 -10.167 0.333008 -15.5 1v-231h79v-60h-265v60h78v598h-78v60h172c12.667 0 22.834 0.166992 30.501 0.5s15.167 0.5 22.5 0.5c90.667 0 157.167 -14.333 199.5 -43s63.5 -77.667 63.5 -147z" />
    <glyph glyph-name="Q" unicode="Q" horiz-adv-x="707" 
d="M539 350c0 42 -3.66699 81.667 -11 119s-18.5 69.833 -33.5 97.5s-34.167 49.667 -57.5 66s-51 24.5 -83 24.5s-59.667 -7.33301 -83 -22s-42.5 -35 -57.5 -61s-26 -56.667 -33 -92s-10.5 -73.333 -10.5 -114c0 -39.333 3.33301 -77.5 10 -114.5s17.5 -69.667 32.5 -98
s34.333 -51.166 58 -68.499s52.5 -26 86.5 -26c32 0 59.333 8.33301 82 25s41.5 38.667 56.5 66s26 58.166 33 92.499s10.5 69.5 10.5 105.5zM657 370c0 -58 -6.33398 -108.331 -19.001 -150.998s-29.167 -78.834 -49.5 -108.501s-43.333 -53.167 -69 -70.5
s-51.5 -30 -77.5 -38c17.333 -6 35.333 -10.167 54 -12.5s38.667 -3.5 60 -3.5h25c8 0 16.667 0.666992 26 2v-75c-7.33301 -2 -16.166 -3.5 -26.499 -4.5s-21.5 -1.5 -33.5 -1.5c-46 0 -89 6.83301 -129 20.5s-78 35.5 -114 65.5c-44 6 -81.833 19.167 -113.5 39.5
s-58 46 -79 77s-36.5 66.667 -46.5 107s-15 83.5 -15 129.5c0 52 6.16699 101.167 18.5 147.5s31 86.833 56 121.5s56.333 62.167 94 82.5s82.167 30.5 133.5 30.5c54 0 100.333 -9 139 -27s70.167 -42.833 94.5 -74.5s42.333 -69.334 54 -113.001s17.5 -91.5 17.5 -143.5z
" />
    <glyph glyph-name="R" unicode="R" horiz-adv-x="622" 
d="M432 519c0 50 -12.499 85.667 -37.499 107s-59.5 32 -103.5 32h-44v-284c3.33301 -0.666992 6.66602 -1 9.99902 -1h11c50 0 89.833 12.333 119.5 37s44.5 61 44.5 109zM443.001 0l-138.998 313.003h-56v-253h57v-60h-240v60h78v598h-78v60h149
c13.333 0 28.166 0.166992 44.499 0.5s30.166 0.5 41.499 0.5c82 0 142.833 -14 182.5 -42s59.5 -74.667 59.5 -140c0 -29.333 -4.5 -54.833 -13.5 -76.5s-20.333 -40.334 -34 -56.001s-28.5 -28.334 -44.5 -38.001s-31 -16.834 -45 -21.501l132 -285h61v-60h-155z" />
    <glyph glyph-name="S" unicode="S" 
d="M453 206c0 -31.333 -6.83301 -60.001 -20.5 -86.001s-32 -48.167 -55 -66.5s-49.667 -32.5 -80 -42.5s-62.166 -15 -95.499 -15c-34 0 -64 1.66699 -90 5s-48.667 8.33301 -68 15v143h70v-83c11.333 -3.33301 23.5 -6 36.5 -8s29.167 -3 48.5 -3
c45.333 0 81.5 10 108.5 30s40.5 46 40.5 78c0 18 -3.5 33.833 -10.5 47.5s-16.333 26 -28 37s-25.167 21.5 -40.5 31.5l-47 30l-42 26c-22 14 -41 27.833 -57 41.5s-29 28.334 -39 44.001s-17.5 32.334 -22.5 50.001s-7.5 37.167 -7.5 58.5
c0 24.667 5.16699 48.167 15.5 70.5s25.166 42 44.499 59s42.833 30.5 70.5 40.5s58.834 15 93.501 15c57.333 0 102.666 -5.66699 135.999 -17v-144h-70v89c-9.33301 2 -19.333 3.5 -30 4.5s-24.334 1.5 -41.001 1.5c-35.333 0 -63.666 -9.5 -84.999 -28.5
s-32 -43.167 -32 -72.5c0 -14 2 -26.5 6 -37.5s10.333 -21.333 19 -31s20 -19.334 34 -29.001s31 -20.5 51 -32.5l63 -37c39.333 -23.333 69.833 -49 91.5 -77s32.5 -63.667 32.5 -107z" />
    <glyph glyph-name="T" unicode="T" horiz-adv-x="558" 
d="M482 566v88h-149v-594h76v-60h-261v60h78v594h-149v-88h-70v152h544v-152h-69z" />
    <glyph glyph-name="U" unicode="U" horiz-adv-x="755" 
d="M639 658l-0.000976562 -420c0 -48 -7.66699 -87.667 -23 -119s-35.333 -56.5 -60 -75.5s-52.167 -32.333 -82.5 -40s-60.5 -11.5 -90.5 -11.5c-34 0 -66 3.5 -96 10.5s-56.167 19 -78.5 36s-39.833 39.333 -52.5 67s-19 62.167 -19 103.5v449h-72v60h253v-60h-74v-432
c0 -28 3.83301 -52 11.5 -72s18.334 -36.5 32.001 -49.5s29.5 -22.5 47.5 -28.5s37.667 -9 59 -9c48 0 86.5 13.167 115.5 39.5s43.5 68.5 43.5 126.5v425h-77v60h224v-60h-61z" />
    <glyph glyph-name="V" unicode="V" horiz-adv-x="637" 
d="M559 658l-178 -660h-88l-208 660h-60v60h243v-60h-71l153 -514l126 514h-72v60h208v-60h-53z" />
    <glyph glyph-name="W" unicode="W" horiz-adv-x="910" 
d="M832 658l-131 -660h-111l-124 631l-136 -631h-110l-143 660h-47v60h225v-60h-68l100 -527l115 527h-53v60h199l112 -586l92 526h-78v60h210v-60h-52z" />
    <glyph glyph-name="X" unicode="X" horiz-adv-x="591" 
d="M401 0l-124 286l-122 -226h78v-60h-215v60h53l165 300l-141 298h-62v60h154l114 -254l116 194h-73v60h214v-60h-56l-165 -261l155 -337h68v-60h-159z" />
    <glyph glyph-name="Y" unicode="Y" horiz-adv-x="588" 
d="M514 658l-159 -347v-251h84v-60h-270v60h81v250l-175 348h-51v60h230v-60h-63l125 -276l117 276h-70v60h214v-60h-63z" />
    <glyph glyph-name="Z" unicode="Z" horiz-adv-x="540" 
d="M35 0v60l328 592h-234v-96h-71v162h428v-59l-329 -593h265v91h72v-157h-459z" />
    <glyph glyph-name="bracketleft" unicode="[" horiz-adv-x="270" 
d="M72 -190v972h180v-58h-90v-852h90v-62h-180z" />
    <glyph glyph-name="backslash" unicode="\" horiz-adv-x="293" 
d="M251 -113l-256 839l57 18l256 -839z" />
    <glyph glyph-name="bracketright" unicode="]" horiz-adv-x="270" 
d="M18 -190v58h90v852h-90v62h180v-972h-180z" />
    <glyph glyph-name="asciicircum" unicode="^" 
d="M348 336l-103 207l-103 -207l-74 16l159 315h47l158 -316z" />
    <glyph glyph-name="underscore" unicode="_" 
d="M0 -109v58h500v-58h-500z" />
    <glyph glyph-name="grave" unicode="`" horiz-adv-x="340" 
d="M235 584l-160 116l60 59l137 -138z" />
    <glyph glyph-name="a" unicode="a" horiz-adv-x="504" 
d="M309 245c-56.667 0 -98.5 -8 -125.5 -24s-40.5 -42.667 -40.5 -80c0 -29.333 11.333 -50.5 34 -63.5s53 -19.5 91 -19.5c7.33301 0 14.5 0.333008 21.5 1s13.5 1.66699 19.5 3v183zM333 0c-11.333 0 -25.3379 -0.666016 -42.0049 -1.99902s-33.667 -2 -51 -2
c-37.333 0 -69 3.16699 -95 9.5s-47 15.5 -63 27.5s-27.667 26.667 -35 44s-11 37.333 -11 60c0 36 8.83301 65 26.5 87s39.834 39.167 66.501 51.5s55.834 20.5 87.501 24.5s61.834 5.66699 90.501 5c0 40 -2.5 70.667 -7.5 92s-13.833 38.666 -26.5 51.999
c-11.333 11.333 -25.833 19.666 -43.5 24.999s-37.5 8 -59.5 8c-5.33301 0 -11.166 -0.166992 -17.499 -0.5s-12.166 -1.16602 -17.499 -2.49902v-90h-66v145c16.667 3.33301 37.167 6.33301 61.5 9s50.5 4 78.5 4c64.667 0 114 -14 148 -42s50.667 -69.333 50 -124l-2 -323
h74v-58h-146z" />
    <glyph glyph-name="b" unicode="b" horiz-adv-x="576" 
d="M421 269c0 74 -16.3311 128.165 -48.998 162.498s-75.667 51.5 -129 51.5c-8 0 -16 -0.333008 -24 -1s-15.333 -1.33398 -22 -2.00098v-415c7.33301 -1.33301 15.666 -2.66602 24.999 -3.99902s17.666 -2 24.999 -2c27.333 0 51.833 3.83301 73.5 11.5
s40 19.834 55 36.501s26.333 38.334 34 65.001s11.5 59 11.5 97zM531.002 292.998c0 -53.333 -7.33203 -98.833 -21.999 -136.5s-34.667 -68.5 -60 -92.5s-54.833 -41.5 -88.5 -52.5s-69.834 -16.5 -108.501 -16.5c-24.667 0 -51 0.5 -79 1.5s-53.667 2.16699 -77 3.5v690
h-76v58h178v-211c9.33301 3.33301 22.333 6 39 8s32.667 3 48 3c80 0 141 -22.5 183 -67.5s63 -107.5 63 -187.5z" />
    <glyph glyph-name="c" unicode="c" horiz-adv-x="455" 
d="M418 20c-16 -9.33301 -33.0039 -15.835 -51.0039 -19.502s-40.333 -5.5 -67 -5.5c-38 0 -72.667 5.5 -104 16.5s-58.166 27.667 -80.499 50s-39.666 50.5 -51.999 84.5s-18.5 74 -18.5 120c0 40 6.16699 77.167 18.5 111.5s30 64 53 89s51.167 44.5 84.5 58.5
s71 21 113 21c18.667 0 37.5 -1 56.5 -3s33.167 -4.33301 42.5 -7v-152h-66v87c-12 3.33301 -28.667 5 -50 5c-24 0 -45.167 -4.83301 -63.5 -14.5s-33.666 -23.167 -45.999 -40.5s-21.833 -38.166 -28.5 -62.499s-10 -51.166 -10 -80.499c0 -39.333 4.66699 -72.333 14 -99
s22 -48 38 -64s34.833 -27.5 56.5 -34.5s44.834 -10.5 69.501 -10.5c19.333 0 37 1.5 53 4.5s28.667 6.5 38 10.5v-65z" />
    <glyph glyph-name="d" unicode="d" horiz-adv-x="581" 
d="M376 479c-7.33301 2.66699 -15.835 4.33398 -25.502 5.00098s-21.167 1 -34.5 1c-29.333 0 -54.166 -5.5 -74.499 -16.5s-36.833 -25.833 -49.5 -44.5s-22 -40.334 -28 -65.001s-9 -50.667 -9 -78c0 -40 4.33301 -74.167 13 -102.5s20.834 -51.5 36.501 -69.5
s34 -31 55 -39s43.833 -12 68.5 -12c6 0 12 0.333008 18 1s16 2 30 4v416zM388.998 0c-4 0 -9.66797 -0.331055 -17.001 -0.998047s-15.5 -1.33398 -24.5 -2.00098s-18.5 -1.33398 -28.5 -2.00098s-19.333 -1 -28 -1c-35.333 0 -68 4.83301 -98 14.5s-56 25.5 -78 47.5
s-39.167 50.833 -51.5 86.5s-18.5 79.5 -18.5 131.5c0 36.667 6.16699 71.5 18.5 104.5s29.833 62 52.5 87s49.667 44.833 81 59.5s66 22 104 22c18.667 0 33.334 -0.5 44.001 -1.5s20.667 -2.5 30 -4.5v149h-79v58h181v-690h79v-58h-167z" />
    <glyph glyph-name="e" unicode="e" horiz-adv-x="490" 
d="M351 354c0 42 -8.16504 74 -24.498 96s-39.5 33 -69.5 33c-16.667 0 -31.334 -3.66699 -44.001 -11s-23.334 -17 -32.001 -29s-15.167 -25.667 -19.5 -41s-6.5 -31.333 -6.5 -48h196zM153.002 293c0 -73.333 15.832 -129.335 47.499 -168.002s75.834 -58 132.501 -58
c25.333 0 47 1.83301 65 5.5s34 8.16699 48 13.5v-65c-19.333 -8 -41.666 -14.333 -66.999 -19s-52.666 -7 -81.999 -7c-36 0 -69.333 5.66699 -100 17s-57.334 28.5 -80.001 51.5s-40.334 51.667 -53.001 86s-19 74.5 -19 120.5c0 37.333 4.33301 72.833 13 106.5
s22.167 63.167 40.5 88.5s41.5 45.5 69.5 60.5s61.667 22.5 101 22.5c31.333 0 58.833 -4.66699 82.5 -14s43.5 -24.166 59.5 -44.499s28.167 -46.666 36.5 -78.999s12.5 -71.5 12.5 -117.5h-307z" />
    <glyph glyph-name="f" unicode="f" horiz-adv-x="347" 
d="M347 670c-5.33301 3.33301 -12.4961 5.83008 -21.4961 7.49707s-17.833 2.5 -26.5 2.5c-31.333 0 -54.666 -7.66699 -69.999 -23c-5.33301 -5.33301 -9.33301 -12.166 -12 -20.499s-4.33398 -17.166 -5.00098 -26.499s-0.833984 -18.666 -0.500977 -27.999
s0.5 -17.666 0.5 -24.999v-14h129v-62h-127v-423h95v-58h-280v58h83v423h-82v62h82v40c0 14.667 0.166992 28.167 0.5 40.5s1.66602 23.833 3.99902 34.5s5.83301 20.667 10.5 30s11.334 18.333 20.001 27c13.333 13.333 28.666 23 45.999 29s40.666 9 69.999 9
c18 0 34.167 -1.33301 48.5 -4s26.166 -6.33398 35.499 -11.001v-68z" />
    <glyph glyph-name="g" unicode="g" horiz-adv-x="508" 
d="M388 -46c0 10 -4.16895 18.666 -12.502 25.999s-19.166 13.5 -32.499 18.5s-28.333 9.16699 -45 12.5s-33.167 6 -49.5 8l-46 5.5c-14.333 1.66699 -26.166 3.16699 -35.499 4.5c-10.667 -10.667 -18.167 -21 -22.5 -31s-6.5 -22 -6.5 -36
c0 -24.667 11.5 -45.167 34.5 -61.5s55.833 -24.5 98.5 -24.5c36 0 64.5 7.33301 85.5 22s31.5 33.334 31.5 56.001zM332.998 353.999c0 37.333 -7.49902 67.167 -22.499 89.5s-38.167 33.5 -69.5 33.5c-16 0 -30.333 -3.33301 -43 -10s-23.334 -15.5 -32.001 -26.5
s-15.334 -23.5 -20.001 -37.5s-7 -28.667 -7 -44c0 -41.333 8.83301 -71.5 26.5 -90.5s41.834 -28.5 72.501 -28.5c30 0 53.333 10.5 70 31.5s25 48.5 25 82.5zM372.999 484c39.333 -28 59.0049 -71.6719 59.0049 -131.005c0 -31.333 -6 -58.166 -18 -80.499
s-27.833 -40.666 -47.5 -54.999s-41.834 -25 -66.501 -32s-50 -10.5 -76 -10.5c-24 0 -41.667 2.33301 -53 7c-2 -4.66699 -3.83301 -10 -5.5 -16s-2.5 -12 -2.5 -18s1.5 -11.667 4.5 -17s7.16699 -9.66602 12.5 -12.999c7.33301 -4.66699 20 -8 38 -10l61 -6.5
c22.667 -2.33301 46 -5.83301 70 -10.5s46 -11.834 66 -21.501s36.333 -22.5 49 -38.5s19 -36.667 19 -62c0 -21.333 -5.33301 -41.833 -16 -61.5s-26 -37.167 -46 -52.5s-44.667 -27.666 -74 -36.999s-63 -14 -101 -14c-27.333 0 -53.333 2.83301 -78 8.5
s-46.167 13.834 -64.5 24.501s-32.833 23.667 -43.5 39s-16 33 -16 53c0 28.667 8.16699 52.834 24.5 72.501s35.166 33.834 56.499 42.501c-3.33301 1.33301 -8 3.5 -14 6.5s-11.833 7.16699 -17.5 12.5s-10.667 12.333 -15 21s-6.5 19 -6.5 31
c0 21.333 6.16699 40 18.5 56s25.166 26.667 38.499 32c-6.66699 1.33301 -14.5 4.83301 -23.5 10.5s-17.167 12.167 -24.5 19.5c-12 12 -21.5 26.833 -28.5 44.5s-10.5 40.5 -10.5 68.5c0 27.333 5.16699 53.166 15.5 77.499s24.666 45.5 42.999 63.5s40 32.333 65 43
s52.5 16 82.5 16c14 0 24.667 -0.333008 32 -1s15.666 -1 24.999 -1l198 2v-65z" />
    <glyph glyph-name="h" unicode="h" horiz-adv-x="623" 
d="M417 0l-0.00292969 326.001c0 22.667 -1.66699 43.167 -5 61.5s-12 34.5 -26 48.5c-16 16 -36.667 27.5 -62 34.5s-52 10.5 -80 10.5c-3.33301 0 -6.66602 0.166992 -9.99902 0.5s-6.66602 0.166016 -9.99902 -0.500977v-423h79v-58h-259v58h78v632h-75v58h177v-205
c3.33301 0 11 0.666992 23 2s26.333 2 43 2c88.667 0 151.334 -18.333 188.001 -55c12.667 -12.667 22.667 -28.167 30 -46.5s11 -39.833 11 -64.5v-323h79v-58h-181z" />
    <glyph glyph-name="i" unicode="i" horiz-adv-x="325" 
d="M40 0v58h78v428h-78v58h180v-486h80v-58h-260zM236 686c0 -20 -7.16699 -37 -21.5 -51s-31.5 -21 -51.5 -21s-37 7 -51 21s-21 31 -21 51s7 37 21 51s31 21 51 21s37.167 -7 51.5 -21s21.5 -31 21.5 -51z" />
    <glyph glyph-name="j" unicode="j" horiz-adv-x="301" 
d="M217 -28c0 -31.333 -3.16699 -55.667 -9.5 -73s-15.5 -32 -27.5 -44c-14.667 -15.333 -33 -26 -55 -32s-45 -9 -69 -9c-20.667 0 -37.5 2 -50.5 6s-21.5 7 -25.5 9v63c6 -3.33301 13 -5.83301 21 -7.5s17.667 -2.5 29 -2.5c28.667 0 52 9 70 27
c4.66699 4.66699 8 11 10 19s3.33301 16.667 4 26s1 18.833 1 28.5v26.5v477h-78v58h180v-572zM233 685.999c0 -20 -7 -37 -21 -51s-31 -21 -51 -21s-37 7 -51 21s-21 31 -21 51s7 37 21 51s31 21 51 21s37 -7 51 -21s21 -31 21 -51z" />
    <glyph glyph-name="k" unicode="k" horiz-adv-x="542" 
d="M400 0l-178 286v-228h44v-58h-222v58h78v632h-78v58h180v-450l168 188h-79v58h178v-54l-165 -180l158 -252h44v-58h-128z" />
    <glyph glyph-name="l" unicode="l" horiz-adv-x="329" 
d="M44 0v58h78v632h-78v58h180v-690h80v-58h-260z" />
    <glyph glyph-name="m" unicode="m" horiz-adv-x="905" 
d="M705 0v325.996c0 26.667 -2.66699 48.5 -8 65.5s-14.666 32.167 -27.999 45.5c-16.667 16.667 -37.167 27.334 -61.5 32.001s-47.166 7 -68.499 7c-13.333 0 -23.833 -0.166992 -31.5 -0.5s-14.5 -1.16602 -20.5 -2.49902c7.33301 -12 13.5 -26.5 18.5 -43.5
s7.5 -35.167 7.5 -54.5v-317h74v-58h-176v326c0 16 -0.5 29.5 -1.5 40.5s-2.83301 20.667 -5.5 29s-6.33398 16 -11.001 23s-10.667 14.167 -18 21.5c-14.667 14.667 -34.667 25.5 -60 32.5s-51 10.5 -77 10.5c-2 0 -4.83301 -0.166992 -8.5 -0.5
s-6.83398 -0.5 -9.50098 -0.5v-424h80v-58h-260v58h78v428h-78v58h162c14 0 28.167 0.333008 42.5 1s28.5 1 42.5 1c32 0 60 -2.16699 84 -6.5s47.667 -12.166 71 -23.499c22.667 9.33301 48 16.833 76 22.5s58 8.5 90 8.5c30.667 0 59.667 -4.66699 87 -14
s49.333 -22.666 66 -39.999c18 -18.667 30.167 -36.5 36.5 -53.5s9.5 -38.833 9.5 -65.5v-316h73v-58h-175z" />
    <glyph glyph-name="n" unicode="n" horiz-adv-x="618" 
d="M413 0l-0.000976562 326.002c0 29.333 -2.5 52.166 -7.5 68.499s-13.167 30.166 -24.5 41.499c-16 16 -36.667 27.667 -62 35s-52 11 -80 11c-3.33301 0 -6.5 -0.166992 -9.5 -0.5s-6.16699 -0.5 -9.5 -0.5v-423h80v-58h-260v58h78v428h-78v58h151
c13.333 0 27.333 0.333008 42 1s29.667 1 45 1c39.333 0 75.833 -3.16699 109.5 -9.5s62.834 -21.5 87.501 -45.5c26.667 -26 40 -62.667 40 -110v-323h78v-58h-180z" />
    <glyph glyph-name="o" unicode="o" horiz-adv-x="570" 
d="M416 282c0 24.667 -2.5 48.832 -7.5 72.499s-12.833 45 -23.5 64s-24.334 34.333 -41.001 46s-36.667 17.5 -60 17.5c-22.667 0 -42.167 -5.5 -58.5 -16.5s-29.666 -26 -39.999 -45s-18 -41.333 -23 -67s-7.5 -53.167 -7.5 -82.5c0 -25.333 2 -50.5 6 -75.5
s11 -47.5 21 -67.5s23.667 -36.167 41 -48.5s39.333 -18.5 66 -18.5c24 0 44.167 6.33301 60.5 19s29.5 29.334 39.5 50.001s17 44.167 21 70.5s6 53.5 6 81.5zM525 286.998c0 -39.333 -4.83594 -76.999 -14.5029 -112.999s-24.5 -67.667 -44.5 -95
s-45.167 -49.166 -75.5 -65.499s-65.833 -24.5 -106.5 -24.5c-41.333 0 -77.166 7.16699 -107.499 21.5s-55.166 34 -74.499 59s-33.666 54.5 -42.999 88.5s-14 70.667 -14 110s5.66699 76.333 17 111s27.333 65 48 91s45.834 46.5 75.501 61.5s63.167 22.5 100.5 22.5
c40.667 0 76.167 -6.83301 106.5 -20.5s55.166 -32.334 74.499 -56.001s33.833 -51.834 43.5 -84.501s14.5 -68 14.5 -106z" />
    <glyph glyph-name="p" unicode="p" horiz-adv-x="590" 
d="M435 261c0 72 -14.667 127.001 -44 165.001s-75 57 -137 57h-19c-7.33301 0 -14.333 -0.666992 -21 -2v-416c7.33301 -2.66699 15.5 -4.33398 24.5 -5.00098s18.833 -1 29.5 -1c57.333 0 99.5 18.333 126.5 55s40.5 85.667 40.5 147zM545 269.001
c0 -38.667 -5.99707 -74.498 -17.9971 -107.498s-29.167 -61.667 -51.5 -86s-50 -43.333 -83 -57s-70.5 -20.5 -112.5 -20.5c-17.333 0 -30.333 0.5 -39 1.5s-17.334 2.16699 -26.001 3.5v-129h79v-58h-256v58h75v612h-79v58h167c4 0 9.66699 0.166992 17 0.5
s15.5 0.666016 24.5 0.999023s18.5 0.666016 28.5 0.999023s19.333 0.5 28 0.5c37.333 0 71.166 -5 101.499 -15s56.166 -26 77.499 -48s37.833 -50.667 49.5 -86s17.5 -78.333 17.5 -129z" />
    <glyph glyph-name="q" unicode="q" horiz-adv-x="573" 
d="M376 479c-6.66699 1.33301 -15.3301 2.33496 -25.9971 3.00195s-23.334 1 -38.001 1c-28.667 0 -52.834 -5 -72.501 -15s-35.667 -24 -48 -42s-21.333 -39.833 -27 -65.5s-8.5 -54.167 -8.5 -85.5c0 -36.667 3.5 -67.334 10.5 -92.001s16.167 -45 27.5 -61
s23.666 -28.167 36.999 -36.5s26.5 -14.333 39.5 -18s24.667 -5.66699 35 -6s17.833 -0.5 22.5 -0.5c11.333 0 20.5 0.166992 27.5 0.5s13.833 1.16602 20.5 2.49902v415zM299.004 -183.998l-0.000976562 58.002h75v133c-4 -2.66699 -14.167 -5.16699 -30.5 -7.5
s-35.166 -3.5 -56.499 -3.5c-48 0 -87.667 7.83301 -119 23.5s-56 36 -74 61s-30.667 53.333 -38 85s-11 63.5 -11 95.5c0 42 5.5 80.667 16.5 116s27.5 65.666 49.5 90.999s49.5 45.166 82.5 59.499s71.5 21.5 115.5 21.5c28 0 56.5 -0.833008 85.5 -2.5
s56.167 -2.5 81.5 -2.5v-670h72v-58h-249z" />
    <glyph glyph-name="r" unicode="r" horiz-adv-x="410" 
d="M324 388l0.000976562 22c0 21.333 -6.66699 39 -20 53s-30 21 -50 21h-17c-4.66699 0 -10.334 -0.666992 -17.001 -2v-424h80v-58h-260v58h78v428h-78v58h180c12 0 22 0.333008 30 1s18.667 1 32 1c41.333 0 69.833 -6.33301 85.5 -19s23.5 -35.667 23.5 -69v-70h-67z
" />
    <glyph glyph-name="s" unicode="s" horiz-adv-x="425" 
d="M388 163c0 -26 -5.00195 -49.334 -15.002 -70.001s-24 -38.5 -42 -53.5s-39.667 -26.5 -65 -34.5s-53 -12 -83 -12c-35.333 0 -65 2.16699 -89 6.5s-42 9.83301 -54 16.5v140h65v-85c8 -4 19.167 -7.5 33.5 -10.5s30.833 -4.5 49.5 -4.5c34 0 60.667 6.83301 80 20.5
s29 34.167 29 61.5c0 18.667 -6.33301 34.667 -19 48s-34 26.666 -64 39.999l-71 31c-34.667 15.333 -60.167 33.666 -76.5 54.999s-24.5 48 -24.5 80c0 22 4.33301 42.5 13 61.5s21.334 35.667 38.001 50s37.334 25.5 62.001 33.5s53 12 85 12c26 0 51.167 -1.5 75.5 -4.5
s41.5 -6.83301 51.5 -11.5v-142h-67v86c-8 2.66699 -17.333 4.83398 -28 6.50098s-22 2.5 -34 2.5c-36 0 -62.5 -6.83301 -79.5 -20.5s-25.5 -31.167 -25.5 -52.5c0 -18 6.33301 -32.167 19 -42.5s29.667 -20.166 51 -29.499l73 -31
c37.333 -15.333 65.333 -34.166 84 -56.499s28 -52.5 28 -90.5z" />
    <glyph glyph-name="t" unicode="t" horiz-adv-x="345" 
d="M330 15c-8.66699 -4.66699 -21.834 -9.16895 -39.501 -13.502s-36.167 -6.5 -55.5 -6.5c-26 0 -47.333 2.66699 -64 8s-31.667 14.666 -45 27.999c-9.33301 9.33301 -16.5 19 -21.5 29s-8.5 20.667 -10.5 32s-3.16699 23.333 -3.5 36s-0.5 26.334 -0.5 41.001l1 313h-74
v62h75l-3 112l99 3l-1 -115h137v-63h-136v-286c0 -8 -0.166992 -16.667 -0.5 -26s0 -18.666 1 -27.999s2.66699 -18.166 5 -26.499s6.5 -15.5 12.5 -21.5c8 -8 18.5 -14.333 31.5 -19s26.167 -7 39.5 -7c8.66699 0 18.334 0.833008 29.001 2.5s18.667 4.16699 24 7.5v-62z
" />
    <glyph glyph-name="u" unicode="u" horiz-adv-x="618" 
d="M426 0c-16 0 -32.168 -0.333008 -48.501 -1s-35.166 -1 -56.499 -1c-32 0 -64 3.5 -96 10.5s-59 21.5 -81 43.5c-13.333 13.333 -23.666 29.333 -30.999 48s-11 41 -11 67v319h-77v58h179v-326c0 -15.333 0.5 -28.666 1.5 -39.999s2.83301 -21.5 5.5 -30.5
s6.16699 -16.833 10.5 -23.5s9.83301 -13.334 16.5 -20.001c14 -14 33.833 -24.5 59.5 -31.5s52.167 -10.5 79.5 -10.5c4 0 7.66699 0.166992 11 0.5s6.66602 0.5 9.99902 0.5v423h-80v58h182v-486h78v-58h-152z" />
    <glyph glyph-name="v" unicode="v" horiz-adv-x="503" 
d="M443 486l-154 -487h-67l-155 487h-63v58h155l111 -385l91 327h-76v58h208v-58h-50z" />
    <glyph glyph-name="w" unicode="w" horiz-adv-x="780" 
d="M723 486l-134 -487h-71l-123 394l-123 -394h-66l-143 487h-55v58h147l100 -388l96 330h-75v58h171l121 -388l76 330h-79v58h207v-58h-49z" />
    <glyph glyph-name="x" unicode="x" horiz-adv-x="537" 
d="M364 0l-104 212l-95 -154h80v-58h-225v58h63l128 203l-113 225h-70v58h154l88 -195l86 137h-68v58h217v-58h-70l-118 -175l131 -253h69v-58h-153z" />
    <glyph glyph-name="y" unicode="y" 
d="M446 486l-233 -571.002c-12 -30 -29 -54.833 -51 -74.5s-52.333 -29.5 -91 -29.5c-20 0 -36.333 2.33301 -49 7v62l22 -4c7.33301 -1.33301 15 -2 23 -2c12 0 22.167 1.83301 30.5 5.5s15.5 8.33398 21.5 14.001s11 11.834 15 18.501s7 13 9 19l56 151l-129 404h-67v58
h156l102 -342l103 284h-75v58h204v-58h-47z" />
    <glyph glyph-name="z" unicode="z" horiz-adv-x="476" 
d="M41 0v52l258 430h-178v-75h-64v137h358v-54l-255 -428h200v75h63v-137h-382z" />
    <glyph glyph-name="braceleft" unicode="{" horiz-adv-x="322" 
d="M317 -182c-9.33301 -2 -19.832 -3.66992 -31.499 -5.00293s-26.167 -2 -43.5 -2c-15.333 0 -29.666 2.66699 -42.999 8s-25 13 -35 23s-18 22.167 -24 36.5s-9 30.5 -9 48.5c0 17.333 0.5 38.833 1.5 64.5s1.5 53.834 1.5 84.501c0 28 -1 52.333 -3 73s-6 38.5 -12 53.5
s-14.5 27.667 -25.5 38s-25.5 19.166 -43.5 26.499v58c18 7.33301 32.333 16.166 43 26.499s18.834 23 24.501 38s9.5 32.833 11.5 53.5s3 45 3 73c0 30.667 -0.5 58.834 -1.5 84.501s-1.5 47.167 -1.5 64.5c0 36.667 10.667 65.167 32 85.5s47.666 30.5 78.999 30.5
c17.333 0 31.833 -0.666992 43.5 -2s22.167 -3 31.5 -5v-52c-16.667 0 -32.334 -1 -47.001 -3s-26.667 -7.66699 -36 -17c-6 -6 -10 -14.167 -12 -24.5s-3 -21.166 -3 -32.499c0 -12.667 0.666992 -30 2 -52s2 -45.667 2 -71c0 -39.333 -1.83301 -71.666 -5.5 -96.999
s-9.5 -46 -17.5 -62s-18 -28.667 -30 -38s-26 -17.333 -42 -24c16 -6.66699 30 -15 42 -25s22 -23.667 30 -41s14.167 -39.333 18.5 -66s6.5 -59.667 6.5 -99c0 -25.333 -0.666992 -49 -2 -71s-2 -39.333 -2 -52s1.33301 -24.167 4 -34.5s6.66699 -18.166 12 -23.499
c7.33301 -7.33301 18.666 -12.333 33.999 -15s31.333 -4 48 -4v-52z" />
    <glyph glyph-name="bar" unicode="|" horiz-adv-x="204" 
d="M69 -184v932h66v-932h-66z" />
    <glyph glyph-name="braceright" unicode="}" horiz-adv-x="322" 
d="M272 267c-18 -7.33301 -32.3359 -16.1631 -43.0029 -26.4961s-18.834 -23 -24.501 -38s-9.5 -32.833 -11.5 -53.5s-3 -45 -3 -73c0 -30.667 0.5 -58.834 1.5 -84.501s1.5 -47.167 1.5 -64.5c0 -36.667 -10.667 -65.167 -32 -85.5s-47.666 -30.5 -78.999 -30.5
c-17.333 0 -31.833 0.666992 -43.5 2s-22.167 3 -31.5 5v52c16.667 0 32.334 1 47.001 3s26.667 7.66699 36 17c6 6 10 14.167 12 24.5s3 21.166 3 32.499c0 12.667 -0.666992 30 -2 52s-2 45.667 -2 71c0 39.333 1.83301 71.666 5.5 96.999s9.5 46 17.5 62s18 28.5 30 37.5
s26 17.167 42 24.5c-16 6.66699 -30 15 -42 25s-22 23.667 -30 41s-14.167 39.333 -18.5 66s-6.5 59.667 -6.5 99c0 25.333 0.666992 49 2 71s2 39.333 2 52s-1.33301 24.167 -4 34.5s-6.66699 18.166 -12 23.499c-7.33301 7.33301 -18.666 12.333 -33.999 15
s-31.333 4 -48 4v52c9.33301 2 19.833 3.66699 31.5 5s26.167 2 43.5 2c14.667 0 28.834 -2.66699 42.501 -8s25.5 -13 35.5 -23s18 -22.167 24 -36.5s9 -30.5 9 -48.5c0 -17.333 -0.5 -38.833 -1.5 -64.5s-1.5 -53.834 -1.5 -84.501c0 -28 1 -52.333 3 -73
s6 -38.5 12 -53.5s14.5 -27.667 25.5 -38s25.5 -19.166 43.5 -26.499v-58z" />
    <glyph glyph-name="asciitilde" unicode="~" 
d="M475 320c-15.333 -29.333 -33.833 -51.6699 -55.5 -67.0029s-47.5 -23 -77.5 -23c-18.667 0 -36.334 2.66699 -53.001 8s-32.667 11.166 -48 17.499l-44 17.5c-14 5.33301 -28 8 -42 8c-16 0 -32 -5.16699 -48 -15.5s-29 -24.166 -39 -41.499l-43 43
c5.33301 12.667 12.5 25 21.5 37s19.5 22.833 31.5 32.5s25.333 17.5 40 23.5s30 9 46 9c19.333 0 37 -2.66699 53 -8s31.167 -11.166 45.5 -17.499s28.333 -12.166 42 -17.499s27.834 -8 42.501 -8c16 0 31.833 4.33301 47.5 13s28.167 19.334 37.5 32.001z" />
    <glyph glyph-name="nonbreakingspace" unicode="&#xa0;" horiz-adv-x="190" 
 />
    <glyph glyph-name="exclamdown" unicode="&#xa1;" horiz-adv-x="340" 
d="M120 -16l18 494l73 27l19 -498zM247 654c-0.666992 -20 -8.16699 -37.002 -22.5 -51.002s-31.5 -21 -51.5 -21s-36.833 7.33301 -50.5 22s-20.5 32.334 -20.5 53.001c0 20 6.83301 37.333 20.5 52s30.5 22.334 50.5 23.001c10.667 0 20.5 -2 29.5 -6s17 -9.66699 24 -17
s12.333 -15.833 16 -25.5s5.16699 -19.5 4.5 -29.5z" />
    <glyph glyph-name="cent" unicode="&#xa2;" horiz-adv-x="455" 
d="M237 463c-28.667 -13.333 -50.5 -36.332 -65.5 -68.999s-22.5 -71.334 -22.5 -116.001c0 -52.667 8 -94 24 -124s37.333 -51.667 64 -65v374zM418 20.001c-16 -9.33301 -32.999 -15.8311 -50.999 -19.498s-40.333 -5.5 -67 -5.5h-11v-121h-52v126
c-58.667 11.333 -105.334 38.666 -140.001 81.999s-52 104.666 -52 183.999c0 34 4.33301 65.667 13 95s21.167 55.833 37.5 79.5s36.5 43.667 60.5 60s51 28.5 81 36.5v121h52v-113c4 0.666992 8 1 12 1h13c18.667 0 37.5 -1 56.5 -3s33.167 -4.33301 42.5 -7v-152h-66v87
c-12 3.33301 -28.667 5 -50 5h-8v-403c12 -2 24.667 -3 38 -3c19.333 0 37 1.5 53 4.5s28.667 6.5 38 10.5v-65z" />
    <glyph glyph-name="sterling" unicode="&#xa3;" horiz-adv-x="488" 
d="M34 0v58.002h78v313h-82v62h82v150c0 25.333 2.83301 47.166 8.5 65.499s16.167 35.166 31.5 50.499c10 10 20.5 18.333 31.5 25s23.5 12.167 37.5 16.5s30.167 7.5 48.5 9.5s40.166 3 65.499 3c20.667 0 39.334 -1.33301 56.001 -4s29 -5.66699 37 -9v-70
c-7.33301 2.66699 -20 5 -38 7s-33.667 3 -47 3c-29.333 0 -52 -2.5 -68 -7.5s-29 -12.5 -39 -22.5c-16 -16 -24 -47 -24 -93v-124h169v-62h-167v-313h191v90h66v-148h-437z" />
    <glyph glyph-name="currency" unicode="&#xa4;" 
d="M355 280c0 19.333 -2 38.499 -6 57.499s-10.333 36 -19 51s-19.667 27 -33 36s-29.333 13.5 -48 13.5c-18 0 -33.5 -4.33301 -46.5 -13s-23.667 -20.5 -32 -35.5s-14.5 -32.667 -18.5 -53s-6 -42.166 -6 -65.499c0 -20.667 1.66699 -41 5 -61s9 -38 17 -54
s18.833 -28.833 32.5 -38.5s31.167 -14.5 52.5 -14.5c19.333 0 35.5 5 48.5 15s23.5 23.333 31.5 40s13.667 35.667 17 57s5 43 5 65zM427 -3.00098l-77 75.9971c-26.667 -17.333 -58.667 -26 -96 -26c-21.333 0 -40.666 2.33301 -57.999 7s-33 11 -47 19l-76 -76l-41 41
l74 74c-16.667 20 -28.834 43.333 -36.501 70s-11.5 55.667 -11.5 87s4.33301 60.5 13 87.5s21 50.833 37 71.5l-76 76l41 41l78 -78c14 9.33301 29.333 16.5 46 21.5s34.667 7.5 54 7.5c20.667 0 39.5 -2.16699 56.5 -6.5s32.167 -10.166 45.5 -17.499l74 73l41 -41
l-70 -70c15.333 -19.333 26.5 -41.666 33.5 -66.999s10.5 -53 10.5 -83c0 -33.333 -4 -64.666 -12 -93.999s-20.333 -55 -37 -77l75 -75z" />
    <glyph glyph-name="yen" unicode="&#xa5;" horiz-adv-x="588" 
d="M514 658l-153 -334h138v-52h-144v-58h144v-52h-144v-102h84v-60h-270v60h81v102h-144v52h144v58h-144v52h137l-168 334h-51v60h230v-60h-63l125 -276l117 276h-70v60h214v-60h-63z" />
    <glyph glyph-name="brokenbar" unicode="&#xa6;" horiz-adv-x="204" 
d="M71 -184v388h62v-388h-62zM71 360v388h62v-388h-62z" />
    <glyph glyph-name="section" unicode="&#xa7;" horiz-adv-x="425" 
d="M299 311c0 20 -7.33203 37.332 -21.999 51.999c-5.33301 0.666992 -11.333 1.33398 -18 2.00098s-13.667 1 -21 1c-36 0 -62.833 -7.16699 -80.5 -21.5s-26.5 -32.833 -26.5 -55.5c0 -14.667 4.16699 -27 12.5 -37s19.833 -18.667 34.5 -26c2 -0.666992 4.33301 -1 7 -1
h6c35.333 0 62.166 7.33301 80.499 22s27.5 36 27.5 64zM387.001 34.999c0 -52 -18.1699 -92.6699 -54.5029 -122.003s-86.166 -44 -149.499 -44c-35.333 0 -65.5 2.66699 -90.5 8s-42.5 11.333 -52.5 18v137h65v-89c7.33301 -3.33301 18.5 -6 33.5 -8s31.5 -3 49.5 -3
c35.333 0 62.333 6.83301 81 20.5s28 34.5 28 62.5c0 19.333 -6.83301 35.5 -20.5 48.5s-34.5 25.833 -62.5 38.5l-71 31c-67.333 29.333 -101 74.666 -101 135.999c0 38.667 13.167 70.834 39.5 96.501s60.833 41.834 103.5 48.501c-18 6 -35.667 13 -53 21
s-32.666 18 -45.999 30s-24 26.167 -32 42.5s-12 35.5 -12 57.5c0 44.667 16.833 81.667 50.5 111s82.834 44 147.501 44c26 0 51 -1.66699 75 -5s41.333 -7.33301 52 -12v-140h-67v88c-8 2.66699 -17.333 4.5 -28 5.5s-22 1.5 -34 1.5c-36 0 -62.5 -6.83301 -79.5 -20.5
s-25.5 -31.167 -25.5 -52.5c0 -18 6.33301 -32.167 19 -42.5s29.667 -20.166 51 -29.499l74 -30c38 -16.667 65.833 -36 83.5 -58s26.5 -52.333 26.5 -91c0 -37.333 -10.333 -68.166 -31 -92.499s-47.667 -43.166 -81 -56.499c38 -14 66.167 -32.833 84.5 -56.5
s27.5 -54.834 27.5 -93.501z" />
    <glyph glyph-name="dieresis" unicode="&#xa8;" horiz-adv-x="419" 
d="M171 665c0 -16 -5.66699 -29.667 -17 -41s-25 -17 -41 -17s-29.667 5.66699 -41 17s-17 25 -17 41s5.66699 29.667 17 41s25 17 41 17s29.667 -5.66699 41 -17s17 -25 17 -41zM364 665c0 -16 -5.66699 -29.667 -17 -41s-25 -17 -41 -17s-29.667 5.66699 -41 17
s-17 25 -17 41s5.66699 29.667 17 41s25 17 41 17s29.667 -5.66699 41 -17s17 -25 17 -41z" />
    <glyph glyph-name="copyright" unicode="&#xa9;" horiz-adv-x="826" 
d="M531 159c-9.33301 -3.33301 -24 -7.00098 -44 -11.001s-41.333 -6 -64 -6c-29.333 0 -56.666 3.83301 -81.999 11.5s-47.166 20.167 -65.499 37.5s-32.666 40 -42.999 68s-15.5 62.333 -15.5 103c0 32.667 5 62.834 15 90.501s24.167 51.5 42.5 71.5s40.333 35.5 66 46.5
s54.167 16.5 85.5 16.5c19.333 0 37.666 -1.33301 54.999 -4s33.666 -7.33398 48.999 -14.001v-92h-53v52c-4.66699 1.33301 -11.5 2.83301 -20.5 4.5s-18.5 2.5 -28.5 2.5c-44 0 -76.833 -15.667 -98.5 -47s-32.5 -73 -32.5 -125c0 -49.333 11.167 -89.166 33.5 -119.499
s53.5 -45.5 93.5 -45.5c9.33301 0 19.166 0.333008 29.499 1s18.833 2 25.5 4v54h52v-99zM702 359.999c0 42.667 -7.49707 82.3311 -22.4971 118.998s-35.667 68.5 -62 95.5s-57.333 48.167 -93 63.5s-73.834 23 -114.501 23c-41.333 0 -79.333 -8.5 -114 -25.5
s-64.834 -39.5 -90.501 -67.5s-45.667 -60.167 -60 -96.5s-21.5 -74.166 -21.5 -113.499c0 -43.333 7.66699 -83.166 23 -119.499s36.166 -67.5 62.499 -93.5s57.166 -46.333 92.499 -61s73.333 -22 114 -22c40 0 77.5 7.66699 112.5 23s65.333 36.5 91 63.5
s45.834 58.5 60.501 94.5s22 75 22 117zM786.003 362.996c0 -53.333 -10 -102.668 -30 -148.001s-47.167 -84.5 -81.5 -117.5s-74.333 -59 -120 -78s-93.834 -28.5 -144.501 -28.5c-52.667 0 -101.667 9 -147 27s-84.5 43.167 -117.5 75.5s-58.833 70.833 -77.5 115.5
s-28 93.667 -28 147c0 52.667 10.167 101.834 30.5 147.501s47.833 85.5 82.5 119.5s74.5 60.667 119.5 80s92.5 29 142.5 29c50.667 0 98.5 -9 143.5 -27s84.333 -43.333 118 -76s60.334 -71.5 80.001 -116.5s29.5 -94.833 29.5 -149.5z" />
    <glyph glyph-name="ordfeminine" unicode="&#xaa;" horiz-adv-x="300" 
d="M173 594c-19.333 0 -35.667 -3.5 -49 -10.5s-20 -18.5 -20 -34.5c0 -7.33301 1.5 -13.5 4.5 -18.5s6.83301 -9 11.5 -12s9.66699 -5.16699 15 -6.5s10.333 -2 15 -2s9 0.333008 13 1s7.33301 1 10 1v82zM192.999 476c-5.33301 0 -11.168 -0.166992 -17.501 -0.5
s-13.166 -0.5 -20.499 -0.5c-13.333 0 -27 0.5 -41 1.5s-26.833 3.66699 -38.5 8s-21.334 11.166 -29.001 20.499s-11.5 22.333 -11.5 39c0 16 4 29.667 12 41s18.5 20.333 31.5 27s27.833 11.5 44.5 14.5s33.334 4.5 50.001 4.5c0 23.333 -4.83301 42 -14.5 56
s-26.5 21 -50.5 21c-3.33301 0 -5.83301 -0.166992 -7.5 -0.5l-7.5 -1.5v-42h-42v80c11.333 2 23.5 3.5 36.5 4.5s28.833 1.5 47.5 1.5c32 0 57.5 -7.16699 76.5 -21.5s28.5 -39.166 28.5 -74.499l-1 -143h34v-35h-80z" />
    <glyph glyph-name="guillemotleft" unicode="&#xab;" horiz-adv-x="650" 
d="M272 81l-210 135v97l208 136l56 -56l-197 -121l201 -132zM530 81l-210 135v97l208 136l56 -56l-197 -121l201 -132z" />
    <glyph glyph-name="logicalnot" unicode="&#xac;" 
d="M404 120v192h-364v58h420v-250h-56z" />
    <glyph glyph-name="registered" unicode="&#xae;" horiz-adv-x="826" 
d="M479 453c0 29.333 -7.33301 49.833 -22 61.5s-38.667 17.5 -72 17.5v-157c30 0 53.167 6 69.5 18s24.5 32 24.5 60zM485 145l-87.001 184h-13v-139h27v-45h-149v47h45v340h-45v47h107c6 0 11 0.166992 15 0.5s9.66699 0.5 17 0.5c24.667 0 46.667 -1.83301 66 -5.5
s35.833 -10 49.5 -19s24.167 -21.167 31.5 -36.5s11 -34.333 11 -57c0 -18 -3.33301 -33.667 -10 -47s-14.667 -24.833 -24 -34.5s-18.666 -17.167 -27.999 -22.5s-17 -9 -23 -11l80 -157h28v-45h-98zM701.999 360c0 42.667 -7.49707 82.3311 -22.4971 118.998
s-35.667 68.5 -62 95.5s-57.333 48.167 -93 63.5s-73.834 23 -114.501 23c-41.333 0 -79.333 -8.5 -114 -25.5s-64.834 -39.5 -90.501 -67.5s-45.667 -60.167 -60 -96.5s-21.5 -74.166 -21.5 -113.499c0 -43.333 7.66699 -83.166 23 -119.499s36.166 -67.5 62.499 -93.5
s57.166 -46.333 92.499 -61s73.333 -22 114 -22c40 0 77.5 7.66699 112.5 23s65.333 36.5 91 63.5s45.834 58.5 60.501 94.5s22 75 22 117zM786.002 362.997c0 -53.333 -10 -102.668 -30 -148.001s-47.167 -84.5 -81.5 -117.5s-74.333 -59 -120 -78
s-93.834 -28.5 -144.501 -28.5c-52.667 0 -101.667 9 -147 27s-84.5 43.167 -117.5 75.5s-58.833 70.833 -77.5 115.5s-28 93.667 -28 147c0 52.667 10.167 101.834 30.5 147.501s47.833 85.5 82.5 119.5s74.5 60.667 119.5 80s92.5 29 142.5 29c50.667 0 98.5 -9 143.5 -27
s84.333 -43.333 118 -76s60.334 -71.5 80.001 -116.5s29.5 -94.833 29.5 -149.5z" />
    <glyph glyph-name="macron" unicode="&#xaf;" horiz-adv-x="400" 
d="M55 654v63h291v-63h-291z" />
    <glyph glyph-name="macron" unicode="&#x2c9;" horiz-adv-x="400" 
d="M55 654v63h291v-63h-291z" />
    <glyph glyph-name="degree" unicode="&#xb0;" horiz-adv-x="353" 
d="M271 541c0 29.333 -8.33301 53.666 -25 72.999s-39.334 29 -68.001 29s-51.334 -9.66699 -68.001 -29s-25 -43.666 -25 -72.999c0 -28.667 8.33301 -52.667 25 -72s39.334 -29 68.001 -29s51.334 9.66699 68.001 29s25 43.333 25 72zM337 542
c0 -22 -4.16699 -42.5 -12.5 -61.5s-19.833 -35.833 -34.5 -50.5s-31.5 -26.167 -50.5 -34.5s-39.5 -12.5 -61.5 -12.5s-42.5 4.16699 -61.5 12.5s-35.833 19.833 -50.5 34.5s-26.167 31.5 -34.5 50.5s-12.5 39.5 -12.5 61.5s4.16699 42.5 12.5 61.5
s19.833 35.833 34.5 50.5s31.5 26.167 50.5 34.5s39.5 12.5 61.5 12.5s42.5 -4.16699 61.5 -12.5s35.833 -19.833 50.5 -34.5s26.167 -31.5 34.5 -50.5s12.5 -39.5 12.5 -61.5z" />
    <glyph glyph-name="plusminus" unicode="&#xb1;" 
d="M60 91v72h380v-72h-380zM287 328v-128h-74v128h-154v71h154v154h74v-154h153v-71h-153z" />
    <glyph glyph-name="twosuperior" unicode="&#xb2;" horiz-adv-x="366" 
d="M30 340l0.000976562 50.001c16.667 9.33301 34 20.166 52 32.499s33.333 24.833 46 37.5c26.667 26.667 45 49.5 55 68.5s15 38.5 15 58.5c0 25.333 -7 45.166 -21 59.499s-34.667 21.5 -62 21.5c-24.667 0 -44.334 -3 -59.001 -9v57
c5.33301 3.33301 15.833 7.5 31.5 12.5s32.5 7.5 50.5 7.5c44 0 79.333 -11.667 106 -35s40 -54.666 40 -93.999c0 -18.667 -3.83301 -37 -11.5 -55s-18.167 -35.5 -31.5 -52.5s-29 -33.5 -47 -49.5s-37.333 -31 -58 -45h163v-65h-269z" />
    <glyph glyph-name="threesuperior" unicode="&#xb3;" horiz-adv-x="366" 
d="M291 411c0 -22.667 -4.16504 -42.8379 -12.498 -60.5049s-19.833 -32.667 -34.5 -45s-31.834 -21.666 -51.501 -27.999s-40.834 -9.5 -63.501 -9.5c-14.667 0 -26.834 0.5 -36.501 1.5s-20.167 3.16699 -31.5 6.5v52c13.333 -2 24.333 -3.33301 33 -4s19 -1 31 -1
c20 0 38 5.83301 54 17.5s24 29.167 24 52.5c0 21.333 -9.5 38 -28.5 50s-47.833 18 -86.5 18l-5 72c14.667 2 28.5 5.66699 41.5 11s24.5 12 34.5 20s17.833 17 23.5 27s8.5 20.333 8.5 31c0 15.333 -5.33301 27.333 -16 36s-25.667 13 -45 13
c-11.333 0 -21.166 -0.166992 -29.499 -0.5s-18.5 -2.16602 -30.5 -5.49902v58c12 5.33301 25 9.33301 39 12s30.333 4 49 4c37.333 0 66.833 -9 88.5 -27s32.5 -42.667 32.5 -74c0 -13.333 -2.83301 -26.166 -8.5 -38.499s-13.5 -23.666 -23.5 -33.999
s-21.667 -19.666 -35 -27.999s-27.333 -14.833 -42 -19.5c36 0 65.167 -9.66699 87.5 -29s33.5 -45.333 33.5 -78z" />
    <glyph glyph-name="acute" unicode="&#xb4;" horiz-adv-x="340" 
d="M110 584l-37 37l137 138l60 -59z" />
    <glyph glyph-name="mu" unicode="&#xb5;" horiz-adv-x="618" 
d="M426 0c-16 0 -32.168 -0.333984 -48.501 -1.00098s-35.166 -1 -56.499 -1c-29.333 0 -52.666 1.83301 -69.999 5.5s-33 10.834 -47 21.501v-151h-102v293v319h-77v58h179v-326c0 -15.333 0.5 -28.666 1.5 -39.999s2.83301 -21.5 5.5 -30.5s6.16699 -16.833 10.5 -23.5
s9.83301 -13.334 16.5 -20.001c14 -14 33.833 -24.5 59.5 -31.5s52.167 -10.5 79.5 -10.5c4 0 7.66699 0.166992 11 0.5s6.66602 0.5 9.99902 0.5v423h-80v58h182v-486h78v-58h-152z" />
    <glyph glyph-name="mu" unicode="&#x3bc;" horiz-adv-x="618" 
d="M426 0c-16 0 -32.168 -0.333984 -48.501 -1.00098s-35.166 -1 -56.499 -1c-29.333 0 -52.666 1.83301 -69.999 5.5s-33 10.834 -47 21.501v-151h-102v293v319h-77v58h179v-326c0 -15.333 0.5 -28.666 1.5 -39.999s2.83301 -21.5 5.5 -30.5s6.16699 -16.833 10.5 -23.5
s9.83301 -13.334 16.5 -20.001c14 -14 33.833 -24.5 59.5 -31.5s52.167 -10.5 79.5 -10.5c4 0 7.66699 0.166992 11 0.5s6.66602 0.5 9.99902 0.5v423h-80v58h182v-486h78v-58h-152z" />
    <glyph glyph-name="paragraph" unicode="&#xb6;" horiz-adv-x="750" 
d="M333 658c-6 0.666992 -11.167 1.00098 -15.5 1.00098h-14.5c-54 0 -94.833 -13.333 -122.5 -40s-41.5 -61.334 -41.5 -104.001c0 -31.333 4.5 -57.5 13.5 -78.5s21.167 -37.667 36.5 -50s33.333 -21 54 -26s42.667 -7.5 66 -7.5c5.33301 0 10 0.166992 14 0.5
s7.33301 0.5 10 0.5v304zM622 658.001l0.00292969 -784h-100v784h-93v-784h-177v60h79v358c-3.33301 0 -7.83301 -0.333008 -13.5 -1s-12.834 -1 -21.501 -1c-38 0 -73.333 3.66699 -106 11s-60.834 19.333 -84.501 36s-42.334 38.5 -56.001 65.5s-20.5 60.167 -20.5 99.5
c0 68 22.333 121.167 67 159.5s110 57.5 196 57.5c8 0 17.333 -0.166992 28 -0.5s23 -0.5 37 -0.5h343v-60h-78z" />
    <glyph glyph-name="periodcentered" unicode="&#xb7;" horiz-adv-x="250" 
d="M197 284c0 -20 -7.16699 -37 -21.5 -51s-31.5 -21 -51.5 -21s-37 7 -51 21s-21 31 -21 51s7 37 21 51s31 21 51 21s37.167 -7 51.5 -21s21.5 -31 21.5 -51z" />
    <glyph glyph-name="periodcentered" unicode="&#x2219;" horiz-adv-x="250" 
d="M197 284c0 -20 -7.16699 -37 -21.5 -51s-31.5 -21 -51.5 -21s-37 7 -51 21s-21 31 -21 51s7 37 21 51s31 21 51 21s37.167 -7 51.5 -21s21.5 -31 21.5 -51z" />
    <glyph glyph-name="cedilla" unicode="&#xb8;" horiz-adv-x="300" 
d="M219 -99c0 -32.667 -10.501 -57.165 -31.501 -73.498s-49.5 -24.5 -85.5 -24.5c-6 0 -10.333 0.166992 -13 0.5s-5.33398 0.833008 -8.00098 1.5v37c2.66699 -1.33301 6 -2 10 -2h11c14.667 0 27.167 4.16699 37.5 12.5s15.5 21.166 15.5 38.499
c0 12.667 -4.66699 22.667 -14 30s-22.666 11 -39.999 11l5 78h53v-36c8.66699 0 16.834 -2.16699 24.501 -6.5s14 -10 19 -17s9 -14.833 12 -23.5s4.5 -17.334 4.5 -26.001z" />
    <glyph glyph-name="onesuperior" unicode="&#xb9;" horiz-adv-x="366" 
d="M68 340v53h75v259l-77 -13l-6 53l166 50v-349h72v-53h-230z" />
    <glyph glyph-name="ordmasculine" unicode="&#xba;" horiz-adv-x="300" 
d="M205 614c0 29.333 -4.66699 51.668 -14 67.001s-23 23 -41 23s-31.667 -8.33301 -41 -25s-14 -39.334 -14 -68.001c0 -62.667 19 -94 57 -94c15.333 0 28 7.5 38 22.5s15 39.833 15 74.5zM280 620.002c0 -46.667 -12.334 -83 -37.001 -109s-56 -39 -94 -39
c-39.333 0 -70.666 12 -93.999 36s-35 56.333 -35 97c0 20.667 3 40 9 58s14.667 33.5 26 46.5s25 23.167 41 30.5s34.333 11 55 11c40 0 71.5 -11.333 94.5 -34s34.5 -55 34.5 -97z" />
    <glyph glyph-name="guillemotright" unicode="&#xbb;" horiz-adv-x="650" 
d="M118 83l-56 56l197 121l-201 132l58 59l210 -135v-97zM376 83l-56 56l197 121l-201 132l58 59l210 -135v-97z" />
    <glyph glyph-name="onequarter" unicode="&#xbc;" horiz-adv-x="800" 
d="M615 288l-82 -155h82v155zM693 69v-100l-78 -12v112h-156v57l156 274h78v-267h43v-64h-43zM263 -55l-63 20l317 779l63 -20zM68 340v53h75v259l-77 -13l-6 53l166 50v-349h72v-53h-230z" />
    <glyph glyph-name="onehalf" unicode="&#xbd;" horiz-adv-x="800" 
d="M484 0l0.000976562 50.001c16.667 9.33301 34 20.166 52 32.499s33.333 24.833 46 37.5c26.667 26.667 45 49.5 55 68.5s15 38.5 15 58.5c0 25.333 -7 45.166 -21 59.499s-34.667 21.5 -62 21.5c-24.667 0 -44.334 -3 -59.001 -9v57
c5.33301 3.33301 15.833 7.5 31.5 12.5s32.5 7.5 50.5 7.5c44 0 79.333 -11.667 106 -35s40 -54.666 40 -93.999c0 -18.667 -3.83301 -37 -11.5 -55s-18.167 -35.5 -31.5 -52.5s-29 -33.5 -47 -49.5s-37.333 -31 -58 -45h163v-65h-269zM263.001 -54.999l-63 20l317 779
l63 -20zM68.001 340.001v53h75v259l-77 -13l-6 53l166 50v-349h72v-53h-230z" />
    <glyph glyph-name="threequarters" unicode="&#xbe;" horiz-adv-x="800" 
d="M615 288l-82 -155h82v155zM693 69v-100l-78 -12v112h-156v57l156 274h78v-267h43v-64h-43zM263 -55l-63 20l317 779l63 -20zM291 411c0 -22.667 -4.16504 -42.8379 -12.498 -60.5049s-19.833 -32.667 -34.5 -45s-31.834 -21.666 -51.501 -27.999
s-40.834 -9.5 -63.501 -9.5c-14.667 0 -26.834 0.5 -36.501 1.5s-20.167 3.16699 -31.5 6.5v52c13.333 -2 24.333 -3.33301 33 -4s19 -1 31 -1c20 0 38 5.83301 54 17.5s24 29.167 24 52.5c0 21.333 -9.5 38 -28.5 50s-47.833 18 -86.5 18l-5 72
c14.667 2 28.5 5.66699 41.5 11s24.5 12 34.5 20s17.833 17 23.5 27s8.5 20.333 8.5 31c0 15.333 -5.33301 27.333 -16 36s-25.667 13 -45 13c-11.333 0 -21.166 -0.166992 -29.499 -0.5s-18.5 -2.16602 -30.5 -5.49902v58c12 5.33301 25 9.33301 39 12s30.333 4 49 4
c37.333 0 66.833 -9 88.5 -27s32.5 -42.667 32.5 -74c0 -13.333 -2.83301 -26.166 -8.5 -38.499s-13.5 -23.666 -23.5 -33.999s-21.667 -19.666 -35 -27.999s-27.333 -14.833 -42 -19.5c36 0 65.167 -9.66699 87.5 -29s33.5 -45.333 33.5 -78z" />
    <glyph glyph-name="questiondown" unicode="&#xbf;" horiz-adv-x="476" 
d="M389 25c-17.333 -8 -39.6641 -14.4961 -66.9971 -19.4961s-56 -7.5 -86 -7.5c-68.667 0 -118.667 14.5 -150 43.5s-47 68.833 -47 119.5c0 21.333 4 40.666 12 57.999s18.333 32.666 31 45.999s27 25.166 43 35.499s31.5 19.5 46.5 27.5l42 21.5
c13 6.33301 23.167 12.5 30.5 18.5c16 12 24 26.333 24 43c0 10 -2.16699 19.667 -6.5 29s-9.83301 17.666 -16.5 24.999l73 45c11.333 -13.333 20.5 -27.5 27.5 -42.5s10.5 -30.833 10.5 -47.5c0 -24.667 -9.66699 -47 -29 -67
c-14.667 -15.333 -32.334 -28.333 -53.001 -39s-40.334 -22 -59.001 -34s-34.5 -26.333 -47.5 -43s-19.5 -38.334 -19.5 -65.001c0 -32 10.833 -57.833 32.5 -77.5s49.834 -29.5 84.501 -29.5c13.333 0 23.666 0.333008 30.999 1s15.666 2.33398 24.999 5.00098v94h68v-140z
M337.002 660.004c0 -20 -7 -37 -21 -51s-31 -21 -51 -21s-37.167 7 -51.5 21s-21.5 31 -21.5 51s7.16699 37 21.5 51s31.5 21 51.5 21s37 -7 51 -21s21 -31 21 -51z" />
    <glyph glyph-name="Agrave" unicode="&#xc0;" horiz-adv-x="698" 
d="M349 656l-86 -326h162zM409 0v60h77l-50 204h-190l-53 -204h72v-60h-240v60h77l187 661h143l167 -661h74v-60h-264zM405 749l-160 116l60 59l137 -138z" />
    <glyph glyph-name="Aacute" unicode="&#xc1;" horiz-adv-x="698" 
d="M349 656l-86 -326h162zM409 0v60h77l-50 204h-190l-53 -204h72v-60h-240v60h77l187 661h143l167 -661h74v-60h-264zM318 749l-37 37l137 138l60 -59z" />
    <glyph glyph-name="Acircumflex" unicode="&#xc2;" horiz-adv-x="698" 
d="M349 656l-86 -326h162zM409 0v60h77l-50 204h-190l-53 -204h72v-60h-240v60h77l187 661h143l167 -661h74v-60h-264zM478 746l-127 85l-111 -84l-36 37l156 140l157 -138z" />
    <glyph glyph-name="Atilde" unicode="&#xc3;" horiz-adv-x="698" 
d="M349 656l-86 -326h162zM409 0v60h77l-50 204h-190l-53 -204h72v-60h-240v60h77l187 661h143l167 -661h74v-60h-264zM514 855c-13.333 -23.333 -29.3301 -43 -47.9971 -59s-38.334 -24 -59.001 -24c-14 0 -26.333 2.5 -37 7.5s-20.834 10.667 -30.501 17s-19 12 -28 17
s-18.5 7.5 -28.5 7.5c-14 0 -27 -4.5 -39 -13.5s-21.667 -20.167 -29 -33.5l-38 38c13.333 22 30.833 41.167 52.5 57.5s43.167 24.5 64.5 24.5c14 0 26.333 -2.66699 37 -8s20.5 -11.166 29.5 -17.499l26 -17.5c8.33301 -5.33301 17.5 -8 27.5 -8
c12.667 0 24.167 4.66699 34.5 14s19.166 21.666 26.499 36.999z" />
    <glyph glyph-name="Adieresis" unicode="&#xc4;" horiz-adv-x="698" 
d="M349 656l-86 -326h162zM409 0v60h77l-50 204h-190l-53 -204h72v-60h-240v60h77l187 661h143l167 -661h74v-60h-264zM322 830c0 -16 -5.66699 -29.667 -17 -41s-25 -17 -41 -17s-29.667 5.66699 -41 17s-17 25 -17 41s5.66699 29.667 17 41s25 17 41 17
s29.667 -5.66699 41 -17s17 -25 17 -41zM515 830c0 -16 -5.66699 -29.667 -17 -41s-25 -17 -41 -17s-29.667 5.66699 -41 17s-17 25 -17 41s5.66699 29.667 17 41s25 17 41 17s29.667 -5.66699 41 -17s17 -25 17 -41z" />
    <glyph glyph-name="Aring" unicode="&#xc5;" horiz-adv-x="698" 
d="M349 656l-86 -326h162zM409 0v60h77l-50 204h-190l-53 -204h72v-60h-240v60h77l187 661h143l167 -661h74v-60h-264zM411 837c0 15.333 -4 28.834 -12 40.501s-19.667 17.5 -35 17.5c-16 0 -28.5 -5.33301 -37.5 -16s-13.5 -25.334 -13.5 -44.001
c0 -17.333 4.33301 -32 13 -44s20.667 -18 36 -18c32.667 0 49 21.333 49 64zM458 838.001c0 -30 -9.33203 -54.334 -27.999 -73.001s-41.334 -28 -68.001 -28c-30 0 -53.5 8.66699 -70.5 26s-25.5 41 -25.5 71c0 27.333 9.5 50.333 28.5 69s42.5 28 70.5 28
s50.5 -8.16699 67.5 -24.5s25.5 -39.166 25.5 -68.499z" />
    <glyph glyph-name="AE" unicode="&#xc6;" horiz-adv-x="927" 
d="M490 650l-162 -320h162v320zM412 0v59h78v206h-195l-95 -205h74v-60h-240v60h75l339 658h409v-143h-66v79h-193v-242h216v-75h-216v-273h221v89h66v-153h-473z" />
    <glyph glyph-name="Ccedilla" unicode="&#xc7;" horiz-adv-x="589" 
d="M561 20c-11.333 -4 -33.3301 -9.33594 -65.9971 -16.0029s-69.667 -10 -111 -10c-56 0 -104.833 6.83301 -146.5 20.5s-76.334 34.834 -104.001 63.501s-48.5 65.334 -62.5 110.001s-21 98.334 -21 161.001c0 52 8.16699 100.667 24.5 146s39.5 84.833 69.5 118.5
s66.333 60.334 109 80.001s90 29.5 142 29.5c35.333 0 65.666 -2 90.999 -6s49.666 -9.33301 72.999 -16v-143h-71v80c-12 4 -26.167 7.33301 -42.5 10s-33.833 4 -52.5 4c-34 0 -65 -6.33301 -93 -19s-52 -31.334 -72 -56.001s-35.5 -55 -46.5 -91
s-16.5 -77.333 -16.5 -124c0 -98 18.667 -172 56 -222s91.333 -75 162 -75c22 0 41.833 1.66699 59.5 5s33.5 7 47.5 11v90h71v-151zM448.003 -99.0029c0 -32.667 -10.501 -57.165 -31.501 -73.498s-49.5 -24.5 -85.5 -24.5c-6 0 -10.333 0.166992 -13 0.5
s-5.33398 0.833008 -8.00098 1.5v37c2.66699 -1.33301 6 -2 10 -2h11c14.667 0 27.167 4.16699 37.5 12.5s15.5 21.166 15.5 38.499c0 12.667 -4.66699 22.667 -14 30s-22.666 11 -39.999 11l5 78h53v-36c8.66699 0 16.834 -2.16699 24.501 -6.5s14 -10 19 -17
s9 -14.833 12 -23.5s4.5 -17.334 4.5 -26.001z" />
    <glyph glyph-name="Egrave" unicode="&#xc8;" horiz-adv-x="581" 
d="M66 0v60h78v598h-79v60h446v-143h-66v79h-193v-242h216v-75h-216v-274h221v90h66v-153h-473zM320 749l-160 116l60 59l137 -138z" />
    <glyph glyph-name="Eacute" unicode="&#xc9;" horiz-adv-x="581" 
d="M66 0v60h78v598h-79v60h446v-143h-66v79h-193v-242h216v-75h-216v-274h221v90h66v-153h-473zM255 749l-37 37l137 138l60 -59z" />
    <glyph glyph-name="Ecircumflex" unicode="&#xca;" horiz-adv-x="581" 
d="M66 0v60h78v598h-79v60h446v-143h-66v79h-193v-242h216v-75h-216v-274h221v90h66v-153h-473zM423 746l-127 85l-111 -84l-36 37l156 140l157 -138z" />
    <glyph glyph-name="Edieresis" unicode="&#xcb;" horiz-adv-x="581" 
d="M66 0v60h78v598h-79v60h446v-143h-66v79h-193v-242h216v-75h-216v-274h221v90h66v-153h-473zM271 830c0 -16 -5.66699 -29.667 -17 -41s-25 -17 -41 -17s-29.667 5.66699 -41 17s-17 25 -17 41s5.66699 29.667 17 41s25 17 41 17s29.667 -5.66699 41 -17s17 -25 17 -41z
M464 830c0 -16 -5.66699 -29.667 -17 -41s-25 -17 -41 -17s-29.667 5.66699 -41 17s-17 25 -17 41s5.66699 29.667 17 41s25 17 41 17s29.667 -5.66699 41 -17s17 -25 17 -41z" />
    <glyph glyph-name="Igrave" unicode="&#xcc;" horiz-adv-x="389" 
d="M65 0v60h78v598h-78v60h259v-60h-74v-598h74v-60h-259zM221 749l-160 116l60 59l137 -138z" />
    <glyph glyph-name="Iacute" unicode="&#xcd;" horiz-adv-x="389" 
d="M65 0v60h78v598h-78v60h259v-60h-74v-598h74v-60h-259zM159 749l-37 37l137 138l60 -59z" />
    <glyph glyph-name="Icircumflex" unicode="&#xce;" horiz-adv-x="389" 
d="M65 0v60h78v598h-78v60h259v-60h-74v-598h74v-60h-259zM314 746l-127 85l-111 -84l-36 37l156 140l157 -138z" />
    <glyph glyph-name="Idieresis" unicode="&#xcf;" horiz-adv-x="389" 
d="M65 0v60h78v598h-78v60h259v-60h-74v-598h74v-60h-259zM162 830c0 -16 -5.66699 -29.667 -17 -41s-25 -17 -41 -17s-29.667 5.66699 -41 17s-17 25 -17 41s5.66699 29.667 17 41s25 17 41 17s29.667 -5.66699 41 -17s17 -25 17 -41zM355 830
c0 -16 -5.66699 -29.667 -17 -41s-25 -17 -41 -17s-29.667 5.66699 -41 17s-17 25 -17 41s5.66699 29.667 17 41s25 17 41 17s29.667 -5.66699 41 -17s17 -25 17 -41z" />
    <glyph glyph-name="Eth" unicode="&#xd0;" horiz-adv-x="726" 
d="M563 379c0 96.667 -23.666 167.334 -70.999 212.001s-114 67 -200 67h-41v-260h121v-60h-121v-278c5.33301 -0.666992 9.16602 -1.16699 11.499 -1.5s4.33301 -0.5 6 -0.5h5.5h11c88.667 0 157.167 26.667 205.5 80s72.5 133.666 72.5 240.999zM676.001 396
c0 -58 -7.33398 -111.333 -22.001 -160s-37.667 -90.5 -69 -125.5s-71.5 -62.333 -120.5 -82s-107.833 -29.5 -176.5 -29.5c-9.33301 0 -19.666 0.166992 -30.999 0.5s-23.333 0.5 -36 0.5h-156v60h78v278h-105v60h105v260h-78v60h167c8.66699 0 18.5 0.166992 29.5 0.5
s26.5 0.5 46.5 0.5c245.333 0 368 -107.667 368 -323z" />
    <glyph glyph-name="Ntilde" unicode="&#xd1;" horiz-adv-x="714" 
d="M584 658v-658h-137l-231 633v-573h91v-60h-242v60h76v598h-67v60h226l209 -587v527h-77v60h217v-60h-65zM533 855c-13.333 -23.333 -29.3301 -43 -47.9971 -59s-38.334 -24 -59.001 -24c-14 0 -26.333 2.5 -37 7.5s-20.834 10.667 -30.501 17s-19 12 -28 17
s-18.5 7.5 -28.5 7.5c-14 0 -27 -4.5 -39 -13.5s-21.667 -20.167 -29 -33.5l-38 38c13.333 22 30.833 41.167 52.5 57.5s43.167 24.5 64.5 24.5c14 0 26.333 -2.66699 37 -8s20.5 -11.166 29.5 -17.499l26 -17.5c8.33301 -5.33301 17.5 -8 27.5 -8
c12.667 0 24.167 4.66699 34.5 14s19.166 21.666 26.499 36.999z" />
    <glyph glyph-name="Ograve" unicode="&#xd2;" horiz-adv-x="707" 
d="M539 350c0 100.667 -17 176.999 -51 228.999s-78.667 78 -134 78c-32 0 -59.667 -7.33301 -83 -22s-42.5 -35 -57.5 -61s-26 -56.667 -33 -92s-10.5 -73.333 -10.5 -114c0 -39.333 3.33301 -77.5 10 -114.5s17.5 -69.667 32.5 -98s34.333 -51.166 58 -68.499
s52.5 -26 86.5 -26c28 0 53.167 7.16699 75.5 21.5s41.5 34.333 57.5 60s28.167 56.167 36.5 91.5s12.5 74 12.5 116zM657 369.999c0 -61.333 -7.33203 -115.832 -21.999 -163.499s-35.334 -87.667 -62.001 -120s-58.334 -56.833 -95.001 -73.5s-77.334 -25 -122.001 -25
c-51.333 0 -96.166 8.83301 -134.499 26.5s-70.166 42.5 -95.499 74.5s-44.333 69.833 -57 113.5s-19 91.5 -19 143.5c0 55.333 6.66699 106.333 20 153s32.666 87 57.999 121s56.833 60.5 94.5 79.5s80.834 28.5 129.501 28.5c54 0 100.333 -9 139 -27
s70.167 -42.833 94.5 -74.5s42.333 -69.334 54 -113.001s17.5 -91.5 17.5 -143.5zM390.001 749l-160 116l60 59l137 -138z" />
    <glyph glyph-name="Oacute" unicode="&#xd3;" horiz-adv-x="707" 
d="M539 350c0 100.667 -17 176.999 -51 228.999s-78.667 78 -134 78c-32 0 -59.667 -7.33301 -83 -22s-42.5 -35 -57.5 -61s-26 -56.667 -33 -92s-10.5 -73.333 -10.5 -114c0 -39.333 3.33301 -77.5 10 -114.5s17.5 -69.667 32.5 -98s34.333 -51.166 58 -68.499
s52.5 -26 86.5 -26c28 0 53.167 7.16699 75.5 21.5s41.5 34.333 57.5 60s28.167 56.167 36.5 91.5s12.5 74 12.5 116zM657 369.999c0 -61.333 -7.33203 -115.832 -21.999 -163.499s-35.334 -87.667 -62.001 -120s-58.334 -56.833 -95.001 -73.5s-77.334 -25 -122.001 -25
c-51.333 0 -96.166 8.83301 -134.499 26.5s-70.166 42.5 -95.499 74.5s-44.333 69.833 -57 113.5s-19 91.5 -19 143.5c0 55.333 6.66699 106.333 20 153s32.666 87 57.999 121s56.833 60.5 94.5 79.5s80.834 28.5 129.501 28.5c54 0 100.333 -9 139 -27
s70.167 -42.833 94.5 -74.5s42.333 -69.334 54 -113.001s17.5 -91.5 17.5 -143.5zM338.001 749l-37 37l137 138l60 -59z" />
    <glyph glyph-name="Ocircumflex" unicode="&#xd4;" horiz-adv-x="707" 
d="M539 350c0 100.667 -17 176.999 -51 228.999s-78.667 78 -134 78c-32 0 -59.667 -7.33301 -83 -22s-42.5 -35 -57.5 -61s-26 -56.667 -33 -92s-10.5 -73.333 -10.5 -114c0 -39.333 3.33301 -77.5 10 -114.5s17.5 -69.667 32.5 -98s34.333 -51.166 58 -68.499
s52.5 -26 86.5 -26c28 0 53.167 7.16699 75.5 21.5s41.5 34.333 57.5 60s28.167 56.167 36.5 91.5s12.5 74 12.5 116zM657 369.999c0 -61.333 -7.33203 -115.832 -21.999 -163.499s-35.334 -87.667 -62.001 -120s-58.334 -56.833 -95.001 -73.5s-77.334 -25 -122.001 -25
c-51.333 0 -96.166 8.83301 -134.499 26.5s-70.166 42.5 -95.499 74.5s-44.333 69.833 -57 113.5s-19 91.5 -19 143.5c0 55.333 6.66699 106.333 20 153s32.666 87 57.999 121s56.833 60.5 94.5 79.5s80.834 28.5 129.501 28.5c54 0 100.333 -9 139 -27
s70.167 -42.833 94.5 -74.5s42.333 -69.334 54 -113.001s17.5 -91.5 17.5 -143.5zM473.001 746l-127 85l-111 -84l-36 37l156 140l157 -138z" />
    <glyph glyph-name="Otilde" unicode="&#xd5;" horiz-adv-x="707" 
d="M539 350c0 100.667 -17 176.999 -51 228.999s-78.667 78 -134 78c-32 0 -59.667 -7.33301 -83 -22s-42.5 -35 -57.5 -61s-26 -56.667 -33 -92s-10.5 -73.333 -10.5 -114c0 -39.333 3.33301 -77.5 10 -114.5s17.5 -69.667 32.5 -98s34.333 -51.166 58 -68.499
s52.5 -26 86.5 -26c28 0 53.167 7.16699 75.5 21.5s41.5 34.333 57.5 60s28.167 56.167 36.5 91.5s12.5 74 12.5 116zM657 369.999c0 -61.333 -7.33203 -115.832 -21.999 -163.499s-35.334 -87.667 -62.001 -120s-58.334 -56.833 -95.001 -73.5s-77.334 -25 -122.001 -25
c-51.333 0 -96.166 8.83301 -134.499 26.5s-70.166 42.5 -95.499 74.5s-44.333 69.833 -57 113.5s-19 91.5 -19 143.5c0 55.333 6.66699 106.333 20 153s32.666 87 57.999 121s56.833 60.5 94.5 79.5s80.834 28.5 129.501 28.5c54 0 100.333 -9 139 -27
s70.167 -42.833 94.5 -74.5s42.333 -69.334 54 -113.001s17.5 -91.5 17.5 -143.5zM529.001 855c-13.333 -23.333 -29.3301 -43 -47.9971 -59s-38.334 -24 -59.001 -24c-14 0 -26.333 2.5 -37 7.5s-20.834 10.667 -30.501 17s-19 12 -28 17s-18.5 7.5 -28.5 7.5
c-14 0 -27 -4.5 -39 -13.5s-21.667 -20.167 -29 -33.5l-38 38c13.333 22 30.833 41.167 52.5 57.5s43.167 24.5 64.5 24.5c14 0 26.333 -2.66699 37 -8s20.5 -11.166 29.5 -17.499l26 -17.5c8.33301 -5.33301 17.5 -8 27.5 -8c12.667 0 24.167 4.66699 34.5 14
s19.166 21.666 26.499 36.999z" />
    <glyph glyph-name="Odieresis" unicode="&#xd6;" horiz-adv-x="707" 
d="M539 350c0 100.667 -17 176.999 -51 228.999s-78.667 78 -134 78c-32 0 -59.667 -7.33301 -83 -22s-42.5 -35 -57.5 -61s-26 -56.667 -33 -92s-10.5 -73.333 -10.5 -114c0 -39.333 3.33301 -77.5 10 -114.5s17.5 -69.667 32.5 -98s34.333 -51.166 58 -68.499
s52.5 -26 86.5 -26c28 0 53.167 7.16699 75.5 21.5s41.5 34.333 57.5 60s28.167 56.167 36.5 91.5s12.5 74 12.5 116zM657 369.999c0 -61.333 -7.33203 -115.832 -21.999 -163.499s-35.334 -87.667 -62.001 -120s-58.334 -56.833 -95.001 -73.5s-77.334 -25 -122.001 -25
c-51.333 0 -96.166 8.83301 -134.499 26.5s-70.166 42.5 -95.499 74.5s-44.333 69.833 -57 113.5s-19 91.5 -19 143.5c0 55.333 6.66699 106.333 20 153s32.666 87 57.999 121s56.833 60.5 94.5 79.5s80.834 28.5 129.501 28.5c54 0 100.333 -9 139 -27
s70.167 -42.833 94.5 -74.5s42.333 -69.334 54 -113.001s17.5 -91.5 17.5 -143.5zM324.001 830c0 -16 -5.66699 -29.667 -17 -41s-25 -17 -41 -17s-29.667 5.66699 -41 17s-17 25 -17 41s5.66699 29.667 17 41s25 17 41 17s29.667 -5.66699 41 -17s17 -25 17 -41z
M517.001 830c0 -16 -5.66699 -29.667 -17 -41s-25 -17 -41 -17s-29.667 5.66699 -41 17s-17 25 -17 41s5.66699 29.667 17 41s25 17 41 17s29.667 -5.66699 41 -17s17 -25 17 -41z" />
    <glyph glyph-name="multiply" unicode="&#xd7;" 
d="M396 85l-145 145l-145 -145l-47 48l145 144l-152 152l52 52l152 -151l145 144l47 -47l-145 -145l145 -145z" />
    <glyph glyph-name="Oslash" unicode="&#xd8;" horiz-adv-x="707" 
d="M539 350c0 42 -3.16797 79.5 -9.50098 112.5s-15.166 62.167 -26.499 87.5l-256 -443c14 -14.667 30 -26 48 -34s38.667 -12 62 -12c28 0 53.167 7.16699 75.5 21.5s41.5 34.333 57.5 60s28.167 56.167 36.5 91.5s12.5 74 12.5 116zM458.999 615
c-29.333 28 -64.333 42 -105 42c-32 0 -59.667 -7.33301 -83 -22s-42.5 -35 -57.5 -61s-26 -56.667 -33 -92s-10.5 -73.333 -10.5 -114c0 -35.333 2.66699 -69.5 8 -102.5s14 -63.5 26 -91.5zM656.999 370c0 -61.333 -7.33008 -115.833 -21.9971 -163.5
s-35.334 -87.667 -62.001 -120s-58.334 -56.833 -95.001 -73.5s-77.334 -25 -122.001 -25c-60.667 0 -112.667 12.667 -156 38l-61 -106l-63 31l68 118c-32 32 -55.667 71.667 -71 119s-23 100 -23 158c0 55.333 6.66699 106.333 20 153s32.666 87 57.999 121
s56.833 60.5 94.5 79.5s80.834 28.5 129.501 28.5c30.667 0 58.5 -2.83301 83.5 -8.5s48.167 -14.167 69.5 -25.5l49 84l63 -31l-55 -94c33.333 -32 57.5 -72.167 72.5 -120.5s22.5 -102.5 22.5 -162.5z" />
    <glyph glyph-name="Ugrave" unicode="&#xd9;" horiz-adv-x="755" 
d="M639 658l-0.000976562 -420c0 -48 -7.66699 -87.667 -23 -119s-35.333 -56.5 -60 -75.5s-52.167 -32.333 -82.5 -40s-60.5 -11.5 -90.5 -11.5c-34 0 -66 3.5 -96 10.5s-56.167 19 -78.5 36s-39.833 39.333 -52.5 67s-19 62.167 -19 103.5v449h-72v60h253v-60h-74v-432
c0 -28 3.83301 -52 11.5 -72s18.334 -36.5 32.001 -49.5s29.5 -22.5 47.5 -28.5s37.667 -9 59 -9c48 0 86.5 13.167 115.5 39.5s43.5 68.5 43.5 126.5v425h-77v60h224v-60h-61zM438.999 749l-160 116l60 59l137 -138z" />
    <glyph glyph-name="Uacute" unicode="&#xda;" horiz-adv-x="755" 
d="M639 658l-0.000976562 -420c0 -48 -7.66699 -87.667 -23 -119s-35.333 -56.5 -60 -75.5s-52.167 -32.333 -82.5 -40s-60.5 -11.5 -90.5 -11.5c-34 0 -66 3.5 -96 10.5s-56.167 19 -78.5 36s-39.833 39.333 -52.5 67s-19 62.167 -19 103.5v449h-72v60h253v-60h-74v-432
c0 -28 3.83301 -52 11.5 -72s18.334 -36.5 32.001 -49.5s29.5 -22.5 47.5 -28.5s37.667 -9 59 -9c48 0 86.5 13.167 115.5 39.5s43.5 68.5 43.5 126.5v425h-77v60h224v-60h-61zM352.999 749l-37 37l137 138l60 -59z" />
    <glyph glyph-name="Ucircumflex" unicode="&#xdb;" horiz-adv-x="755" 
d="M639 658l-0.000976562 -420c0 -48 -7.66699 -87.667 -23 -119s-35.333 -56.5 -60 -75.5s-52.167 -32.333 -82.5 -40s-60.5 -11.5 -90.5 -11.5c-34 0 -66 3.5 -96 10.5s-56.167 19 -78.5 36s-39.833 39.333 -52.5 67s-19 62.167 -19 103.5v449h-72v60h253v-60h-74v-432
c0 -28 3.83301 -52 11.5 -72s18.334 -36.5 32.001 -49.5s29.5 -22.5 47.5 -28.5s37.667 -9 59 -9c48 0 86.5 13.167 115.5 39.5s43.5 68.5 43.5 126.5v425h-77v60h224v-60h-61zM512.999 746l-127 85l-111 -84l-36 37l156 140l157 -138z" />
    <glyph glyph-name="Udieresis" unicode="&#xdc;" horiz-adv-x="755" 
d="M639 658l-0.000976562 -420c0 -48 -7.66699 -87.667 -23 -119s-35.333 -56.5 -60 -75.5s-52.167 -32.333 -82.5 -40s-60.5 -11.5 -90.5 -11.5c-34 0 -66 3.5 -96 10.5s-56.167 19 -78.5 36s-39.833 39.333 -52.5 67s-19 62.167 -19 103.5v449h-72v60h253v-60h-74v-432
c0 -28 3.83301 -52 11.5 -72s18.334 -36.5 32.001 -49.5s29.5 -22.5 47.5 -28.5s37.667 -9 59 -9c48 0 86.5 13.167 115.5 39.5s43.5 68.5 43.5 126.5v425h-77v60h224v-60h-61zM361.999 820c0 -16 -5.66699 -29.667 -17 -41s-25 -17 -41 -17s-29.667 5.66699 -41 17
s-17 25 -17 41s5.66699 29.667 17 41s25 17 41 17s29.667 -5.66699 41 -17s17 -25 17 -41zM554.999 820c0 -16 -5.66699 -29.667 -17 -41s-25 -17 -41 -17s-29.667 5.66699 -41 17s-17 25 -17 41s5.66699 29.667 17 41s25 17 41 17s29.667 -5.66699 41 -17s17 -25 17 -41z
" />
    <glyph glyph-name="Yacute" unicode="&#xdd;" horiz-adv-x="588" 
d="M514 658l-159 -347v-251h84v-60h-270v60h81v250l-175 348h-51v60h230v-60h-63l125 -276l117 276h-70v60h214v-60h-63zM308 749l-37 37l137 138l60 -59z" />
    <glyph glyph-name="Thorn" unicode="&#xde;" horiz-adv-x="588" 
d="M442 372c0 46 -13.167 81.167 -39.5 105.5s-64.166 36.5 -113.499 36.5h-40v-304c3.33301 0 7.16602 -0.166992 11.499 -0.5s9.5 -0.5 15.5 -0.5c110.667 0 166 54.333 166 163zM553 385c0 -41.333 -6.83301 -77 -20.5 -107s-32.667 -54.667 -57 -74
s-53 -33.833 -86 -43.5s-68.833 -14.5 -107.5 -14.5h-15.5c-5 0 -10.167 0.333008 -15.5 1v-87h79v-60h-265v60h78v598h-78v60h260v-60h-74v-84c8.66699 0 16 0.166992 22 0.5s11.667 0.5 17 0.5c90.667 0 157.167 -14.333 199.5 -43s63.5 -77.667 63.5 -147z" />
    <glyph glyph-name="germandbls" unicode="&#xdf;" horiz-adv-x="656" 
d="M634 160c0 -25.333 -4.83105 -48.334 -14.498 -69.001s-23.5 -38.167 -41.5 -52.5s-39.833 -25.5 -65.5 -33.5s-54.167 -12 -85.5 -12c-16 0 -31.667 0.833008 -47 2.5s-29.333 3.83398 -42 6.50098s-23.5 5.5 -32.5 8.5s-15.5 5.83301 -19.5 8.5v137h65v-88
c7.33301 -3.33301 17.666 -6.16602 30.999 -8.49902s30.666 -3.5 51.999 -3.5c39.333 0 67.333 7.5 84 22.5s25 35.167 25 60.5c0 14 -3.5 26 -10.5 36s-16.167 18.833 -27.5 26.5s-23.833 14.5 -37.5 20.5l-40.5 18l-49 22.5c-16 7.66699 -30.167 17.167 -42.5 28.5
s-22.333 25.166 -30 41.499s-11.5 36.833 -11.5 61.5c0 28.667 4.66699 51.5 14 68.5s20.833 30.333 34.5 40s28.5 17.167 44.5 22.5s30.833 10.833 44.5 16.5s25.167 12.667 34.5 21s14 20.166 14 35.499c0 30.667 -11.5 53.667 -34.5 69s-54.167 23 -93.5 23
c-12.667 0 -27.167 -1 -43.5 -3s-31.833 -6.66699 -46.5 -14s-27 -18.166 -37 -32.499s-15 -33.833 -15 -58.5v-524h36v-58h-217v58h83v423h-82v62h78v22c0 32 4.66699 58.667 14 80s21.333 38.833 36 52.5s31.167 24.167 49.5 31.5s36.5 12.5 54.5 15.5
s34.833 4.66699 50.5 5s28.5 0.5 38.5 0.5c78 0 135.833 -11.333 173.5 -34s56.5 -59 56.5 -109c0 -26.667 -4.83301 -47 -14.5 -61s-21.667 -24.833 -36 -32.5s-30 -13.5 -47 -17.5s-32.667 -8.66699 -47 -14s-26.333 -13 -36 -23s-14.5 -24.667 -14.5 -44
c0 -14.667 4.16699 -27 12.5 -37s18.5 -18.667 30.5 -26s24.833 -13.666 38.5 -18.999l37.5 -15l30 -13c14 -6 27 -13 39 -21s22.5 -17.667 31.5 -29s16 -24.833 21 -40.5s7.5 -33.834 7.5 -54.501z" />
    <glyph glyph-name="agrave" unicode="&#xe0;" horiz-adv-x="504" 
d="M309 245c-56.667 0 -98.5 -8 -125.5 -24s-40.5 -42.667 -40.5 -80c0 -29.333 11.333 -50.5 34 -63.5s53 -19.5 91 -19.5c7.33301 0 14.5 0.333008 21.5 1s13.5 1.66699 19.5 3v183zM333 0c-11.333 0 -25.3379 -0.666016 -42.0049 -1.99902s-33.667 -2 -51 -2
c-37.333 0 -69 3.16699 -95 9.5s-47 15.5 -63 27.5s-27.667 26.667 -35 44s-11 37.333 -11 60c0 36 8.83301 65 26.5 87s39.834 39.167 66.501 51.5s55.834 20.5 87.501 24.5s61.834 5.66699 90.501 5c0 40 -2.5 70.667 -7.5 92s-13.833 38.666 -26.5 51.999
c-11.333 11.333 -25.833 19.666 -43.5 24.999s-37.5 8 -59.5 8c-5.33301 0 -11.166 -0.166992 -17.499 -0.5s-12.166 -1.16602 -17.499 -2.49902v-90h-66v145c16.667 3.33301 37.167 6.33301 61.5 9s50.5 4 78.5 4c64.667 0 114 -14 148 -42s50.667 -69.333 50 -124l-2 -323
h74v-58h-146zM274.995 584.001l-160 116l60 59l137 -138z" />
    <glyph glyph-name="aacute" unicode="&#xe1;" horiz-adv-x="504" 
d="M309 245c-56.667 0 -98.5 -8 -125.5 -24s-40.5 -42.667 -40.5 -80c0 -29.333 11.333 -50.5 34 -63.5s53 -19.5 91 -19.5c7.33301 0 14.5 0.333008 21.5 1s13.5 1.66699 19.5 3v183zM333 0c-11.333 0 -25.3379 -0.666016 -42.0049 -1.99902s-33.667 -2 -51 -2
c-37.333 0 -69 3.16699 -95 9.5s-47 15.5 -63 27.5s-27.667 26.667 -35 44s-11 37.333 -11 60c0 36 8.83301 65 26.5 87s39.834 39.167 66.501 51.5s55.834 20.5 87.501 24.5s61.834 5.66699 90.501 5c0 40 -2.5 70.667 -7.5 92s-13.833 38.666 -26.5 51.999
c-11.333 11.333 -25.833 19.666 -43.5 24.999s-37.5 8 -59.5 8c-5.33301 0 -11.166 -0.166992 -17.499 -0.5s-12.166 -1.16602 -17.499 -2.49902v-90h-66v145c16.667 3.33301 37.167 6.33301 61.5 9s50.5 4 78.5 4c64.667 0 114 -14 148 -42s50.667 -69.333 50 -124l-2 -323
h74v-58h-146zM179.995 584.001l-37 37l137 138l60 -59z" />
    <glyph glyph-name="acircumflex" unicode="&#xe2;" horiz-adv-x="504" 
d="M309 245c-56.667 0 -98.5 -8 -125.5 -24s-40.5 -42.667 -40.5 -80c0 -29.333 11.333 -50.5 34 -63.5s53 -19.5 91 -19.5c7.33301 0 14.5 0.333008 21.5 1s13.5 1.66699 19.5 3v183zM333 0c-11.333 0 -25.3379 -0.666016 -42.0049 -1.99902s-33.667 -2 -51 -2
c-37.333 0 -69 3.16699 -95 9.5s-47 15.5 -63 27.5s-27.667 26.667 -35 44s-11 37.333 -11 60c0 36 8.83301 65 26.5 87s39.834 39.167 66.501 51.5s55.834 20.5 87.501 24.5s61.834 5.66699 90.501 5c0 40 -2.5 70.667 -7.5 92s-13.833 38.666 -26.5 51.999
c-11.333 11.333 -25.833 19.666 -43.5 24.999s-37.5 8 -59.5 8c-5.33301 0 -11.166 -0.166992 -17.499 -0.5s-12.166 -1.16602 -17.499 -2.49902v-90h-66v145c16.667 3.33301 37.167 6.33301 61.5 9s50.5 4 78.5 4c64.667 0 114 -14 148 -42s50.667 -69.333 50 -124l-2 -323
h74v-58h-146zM346.995 581.001l-127 85l-111 -84l-36 37l156 140l157 -138z" />
    <glyph glyph-name="atilde" unicode="&#xe3;" horiz-adv-x="504" 
d="M309 245c-56.667 0 -98.5 -8 -125.5 -24s-40.5 -42.667 -40.5 -80c0 -29.333 11.333 -50.5 34 -63.5s53 -19.5 91 -19.5c7.33301 0 14.5 0.333008 21.5 1s13.5 1.66699 19.5 3v183zM333 0c-11.333 0 -25.3379 -0.666016 -42.0049 -1.99902s-33.667 -2 -51 -2
c-37.333 0 -69 3.16699 -95 9.5s-47 15.5 -63 27.5s-27.667 26.667 -35 44s-11 37.333 -11 60c0 36 8.83301 65 26.5 87s39.834 39.167 66.501 51.5s55.834 20.5 87.501 24.5s61.834 5.66699 90.501 5c0 40 -2.5 70.667 -7.5 92s-13.833 38.666 -26.5 51.999
c-11.333 11.333 -25.833 19.666 -43.5 24.999s-37.5 8 -59.5 8c-5.33301 0 -11.166 -0.166992 -17.499 -0.5s-12.166 -1.16602 -17.499 -2.49902v-90h-66v145c16.667 3.33301 37.167 6.33301 61.5 9s50.5 4 78.5 4c64.667 0 114 -14 148 -42s50.667 -69.333 50 -124l-2 -323
h74v-58h-146zM407.995 690.001c-13.333 -23.333 -29.3301 -43 -47.9971 -59s-38.334 -24 -59.001 -24c-14 0 -26.333 2.5 -37 7.5s-20.834 10.667 -30.501 17s-19 12 -28 17s-18.5 7.5 -28.5 7.5c-14 0 -27 -4.5 -39 -13.5s-21.667 -20.167 -29 -33.5l-38 38
c13.333 22 30.833 41.167 52.5 57.5s43.167 24.5 64.5 24.5c14 0 26.333 -2.66699 37 -8s20.5 -11.166 29.5 -17.499l26 -17.5c8.33301 -5.33301 17.5 -8 27.5 -8c12.667 0 24.167 4.66699 34.5 14s19.166 21.666 26.499 36.999z" />
    <glyph glyph-name="adieresis" unicode="&#xe4;" horiz-adv-x="504" 
d="M309 245c-56.667 0 -98.5 -8 -125.5 -24s-40.5 -42.667 -40.5 -80c0 -29.333 11.333 -50.5 34 -63.5s53 -19.5 91 -19.5c7.33301 0 14.5 0.333008 21.5 1s13.5 1.66699 19.5 3v183zM333 0c-11.333 0 -25.3379 -0.666016 -42.0049 -1.99902s-33.667 -2 -51 -2
c-37.333 0 -69 3.16699 -95 9.5s-47 15.5 -63 27.5s-27.667 26.667 -35 44s-11 37.333 -11 60c0 36 8.83301 65 26.5 87s39.834 39.167 66.501 51.5s55.834 20.5 87.501 24.5s61.834 5.66699 90.501 5c0 40 -2.5 70.667 -7.5 92s-13.833 38.666 -26.5 51.999
c-11.333 11.333 -25.833 19.666 -43.5 24.999s-37.5 8 -59.5 8c-5.33301 0 -11.166 -0.166992 -17.499 -0.5s-12.166 -1.16602 -17.499 -2.49902v-90h-66v145c16.667 3.33301 37.167 6.33301 61.5 9s50.5 4 78.5 4c64.667 0 114 -14 148 -42s50.667 -69.333 50 -124l-2 -323
h74v-58h-146zM189.995 665.001c0 -16 -5.66699 -29.667 -17 -41s-25 -17 -41 -17s-29.667 5.66699 -41 17s-17 25 -17 41s5.66699 29.667 17 41s25 17 41 17s29.667 -5.66699 41 -17s17 -25 17 -41zM382.995 665.001c0 -16 -5.66699 -29.667 -17 -41s-25 -17 -41 -17
s-29.667 5.66699 -41 17s-17 25 -17 41s5.66699 29.667 17 41s25 17 41 17s29.667 -5.66699 41 -17s17 -25 17 -41z" />
    <glyph glyph-name="aring" unicode="&#xe5;" horiz-adv-x="504" 
d="M309 245c-56.667 0 -98.5 -8 -125.5 -24s-40.5 -42.667 -40.5 -80c0 -29.333 11.333 -50.5 34 -63.5s53 -19.5 91 -19.5c7.33301 0 14.5 0.333008 21.5 1s13.5 1.66699 19.5 3v183zM333 0c-11.333 0 -25.3379 -0.666016 -42.0049 -1.99902s-33.667 -2 -51 -2
c-37.333 0 -69 3.16699 -95 9.5s-47 15.5 -63 27.5s-27.667 26.667 -35 44s-11 37.333 -11 60c0 36 8.83301 65 26.5 87s39.834 39.167 66.501 51.5s55.834 20.5 87.501 24.5s61.834 5.66699 90.501 5c0 40 -2.5 70.667 -7.5 92s-13.833 38.666 -26.5 51.999
c-11.333 11.333 -25.833 19.666 -43.5 24.999s-37.5 8 -59.5 8c-5.33301 0 -11.166 -0.166992 -17.499 -0.5s-12.166 -1.16602 -17.499 -2.49902v-90h-66v145c16.667 3.33301 37.167 6.33301 61.5 9s50.5 4 78.5 4c64.667 0 114 -14 148 -42s50.667 -69.333 50 -124l-2 -323
h74v-58h-146zM278.995 672.001c0 15.333 -4 28.834 -12 40.501s-19.667 17.5 -35 17.5c-16 0 -28.5 -5.33301 -37.5 -16s-13.5 -25.334 -13.5 -44.001c0 -17.333 4.33301 -32 13 -44s20.667 -18 36 -18c32.667 0 49 21.333 49 64zM325.995 673.002
c0 -30 -9.33203 -54.334 -27.999 -73.001s-41.334 -28 -68.001 -28c-30 0 -53.5 8.66699 -70.5 26s-25.5 41 -25.5 71c0 27.333 9.5 50.333 28.5 69s42.5 28 70.5 28s50.5 -8.16699 67.5 -24.5s25.5 -39.166 25.5 -68.499z" />
    <glyph glyph-name="ae" unicode="&#xe6;" horiz-adv-x="748" 
d="M348 99c-10 15.333 -18.833 33.999 -26.5 55.999s-12.5 46.333 -14.5 73c-0.666992 3.33301 -1 6.33301 -1 9v8c-24 0 -45.833 -1.66699 -65.5 -5s-36.834 -8.83301 -51.501 -16.5s-26 -18.167 -34 -31.5s-12 -30 -12 -50c0 -15.333 3.16699 -28.333 9.5 -39
s14.833 -19.167 25.5 -25.5s22.667 -10.833 36 -13.5s27 -4 41 -4c16 0 32.333 3.33301 49 10s31.334 16.334 44.001 29.001zM611 359.999c0 8.66699 -0.834961 19.833 -2.50195 33.5s-5.66699 27.167 -12 40.5s-15.666 24.833 -27.999 34.5s-29.166 14.5 -50.499 14.5
c-20.667 0 -37.667 -4.83301 -51 -14.5s-24 -21 -32 -34s-13.5 -26.5 -16.5 -40.5s-4.5 -25.333 -4.5 -34h197zM411.998 297.998c0 -32 3.33203 -62.166 9.99902 -90.499s17.167 -52.833 31.5 -73.5s33 -37 56 -49s50.5 -18 82.5 -18c25.333 0 47 1.83301 65 5.5
s34 8.16699 48 13.5v-65c-19.333 -8 -41.666 -14.333 -66.999 -19s-52.666 -7 -81.999 -7c-21.333 0 -40.333 1.66699 -57 5s-31.834 7.66602 -45.501 12.999s-25.834 11.666 -36.501 18.999l-31 22c-22 -21.333 -44.5 -36.166 -67.5 -44.499s-51.167 -12.5 -84.5 -12.5
c-26.667 0 -52 2 -76 6s-45 11.333 -63 22s-32.333 24.834 -43 42.501s-16 40.5 -16 68.5c0 36 8.83301 65.167 26.5 87.5s39.834 39.666 66.501 51.999s55.834 20.5 87.501 24.5s61.834 5.66699 90.501 5c0 20.667 -0.666992 38.834 -2 54.501s-3.33301 29.167 -6 40.5
s-6.33398 21 -11.001 29s-10.334 15.333 -17.001 22c-9.33301 9.33301 -23 16.833 -41 22.5s-37.333 8.5 -58 8.5c-5.33301 0 -10.666 -0.166992 -15.999 -0.5s-12.333 -1.16602 -21 -2.49902v-91h-66v146c14 2.66699 32.833 5.5 56.5 8.5s53.5 4.5 89.5 4.5
c42 -0.666992 75.667 -6.83398 101 -18.501s44.666 -25.5 57.999 -41.5c18 19.333 39.833 34.333 65.5 45s55.834 16 90.501 16c31.333 0 57.666 -4.66699 78.999 -14s39 -21.333 53 -36s24.833 -31.167 32.5 -49.5s13.167 -36.833 16.5 -55.5s5.33301 -36.334 6 -53.001
s1 -30.667 1 -42h-306z" />
    <glyph glyph-name="ccedilla" unicode="&#xe7;" horiz-adv-x="455" 
d="M418 20c-16 -9.33301 -33.0039 -15.835 -51.0039 -19.502s-40.333 -5.5 -67 -5.5c-38 0 -72.667 5.5 -104 16.5s-58.166 27.667 -80.499 50s-39.666 50.5 -51.999 84.5s-18.5 74 -18.5 120c0 40 6.16699 77.167 18.5 111.5s30 64 53 89s51.167 44.5 84.5 58.5
s71 21 113 21c18.667 0 37.5 -1 56.5 -3s33.167 -4.33301 42.5 -7v-152h-66v87c-12 3.33301 -28.667 5 -50 5c-24 0 -45.167 -4.83301 -63.5 -14.5s-33.666 -23.167 -45.999 -40.5s-21.833 -38.166 -28.5 -62.499s-10 -51.166 -10 -80.499c0 -39.333 4.66699 -72.333 14 -99
s22 -48 38 -64s34.833 -27.5 56.5 -34.5s44.834 -10.5 69.501 -10.5c19.333 0 37 1.5 53 4.5s28.667 6.5 38 10.5v-65zM356.996 -99.002c0 -32.667 -10.501 -57.165 -31.501 -73.498s-49.5 -24.5 -85.5 -24.5c-6 0 -10.333 0.166992 -13 0.5s-5.33398 0.833008 -8.00098 1.5
v37c2.66699 -1.33301 6 -2 10 -2h11c14.667 0 27.167 4.16699 37.5 12.5s15.5 21.166 15.5 38.499c0 12.667 -4.66699 22.667 -14 30s-22.666 11 -39.999 11l5 78h53v-36c8.66699 0 16.834 -2.16699 24.501 -6.5s14 -10 19 -17s9 -14.833 12 -23.5s4.5 -17.334 4.5 -26.001z
" />
    <glyph glyph-name="egrave" unicode="&#xe8;" horiz-adv-x="490" 
d="M351 354c0 42 -8.16504 74 -24.498 96s-39.5 33 -69.5 33c-16.667 0 -31.334 -3.66699 -44.001 -11s-23.334 -17 -32.001 -29s-15.167 -25.667 -19.5 -41s-6.5 -31.333 -6.5 -48h196zM153.002 293c0 -73.333 15.832 -129.335 47.499 -168.002s75.834 -58 132.501 -58
c25.333 0 47 1.83301 65 5.5s34 8.16699 48 13.5v-65c-19.333 -8 -41.666 -14.333 -66.999 -19s-52.666 -7 -81.999 -7c-36 0 -69.333 5.66699 -100 17s-57.334 28.5 -80.001 51.5s-40.334 51.667 -53.001 86s-19 74.5 -19 120.5c0 37.333 4.33301 72.833 13 106.5
s22.167 63.167 40.5 88.5s41.5 45.5 69.5 60.5s61.667 22.5 101 22.5c31.333 0 58.833 -4.66699 82.5 -14s43.5 -24.166 59.5 -44.499s28.167 -46.666 36.5 -78.999s12.5 -71.5 12.5 -117.5h-307zM304.001 583.998l-160 116l60 59l137 -138z" />
    <glyph glyph-name="eacute" unicode="&#xe9;" horiz-adv-x="490" 
d="M351 354c0 42 -8.16504 74 -24.498 96s-39.5 33 -69.5 33c-16.667 0 -31.334 -3.66699 -44.001 -11s-23.334 -17 -32.001 -29s-15.167 -25.667 -19.5 -41s-6.5 -31.333 -6.5 -48h196zM153.002 293c0 -73.333 15.832 -129.335 47.499 -168.002s75.834 -58 132.501 -58
c25.333 0 47 1.83301 65 5.5s34 8.16699 48 13.5v-65c-19.333 -8 -41.666 -14.333 -66.999 -19s-52.666 -7 -81.999 -7c-36 0 -69.333 5.66699 -100 17s-57.334 28.5 -80.001 51.5s-40.334 51.667 -53.001 86s-19 74.5 -19 120.5c0 37.333 4.33301 72.833 13 106.5
s22.167 63.167 40.5 88.5s41.5 45.5 69.5 60.5s61.667 22.5 101 22.5c31.333 0 58.833 -4.66699 82.5 -14s43.5 -24.166 59.5 -44.499s28.167 -46.666 36.5 -78.999s12.5 -71.5 12.5 -117.5h-307zM222.001 583.998l-37 37l137 138l60 -59z" />
    <glyph glyph-name="ecircumflex" unicode="&#xea;" horiz-adv-x="490" 
d="M351 354c0 42 -8.16504 74 -24.498 96s-39.5 33 -69.5 33c-16.667 0 -31.334 -3.66699 -44.001 -11s-23.334 -17 -32.001 -29s-15.167 -25.667 -19.5 -41s-6.5 -31.333 -6.5 -48h196zM153.002 293c0 -73.333 15.832 -129.335 47.499 -168.002s75.834 -58 132.501 -58
c25.333 0 47 1.83301 65 5.5s34 8.16699 48 13.5v-65c-19.333 -8 -41.666 -14.333 -66.999 -19s-52.666 -7 -81.999 -7c-36 0 -69.333 5.66699 -100 17s-57.334 28.5 -80.001 51.5s-40.334 51.667 -53.001 86s-19 74.5 -19 120.5c0 37.333 4.33301 72.833 13 106.5
s22.167 63.167 40.5 88.5s41.5 45.5 69.5 60.5s61.667 22.5 101 22.5c31.333 0 58.833 -4.66699 82.5 -14s43.5 -24.166 59.5 -44.499s28.167 -46.666 36.5 -78.999s12.5 -71.5 12.5 -117.5h-307zM382.001 580.998l-127 85l-111 -84l-36 37l156 140l157 -138z" />
    <glyph glyph-name="edieresis" unicode="&#xeb;" horiz-adv-x="490" 
d="M351 354c0 42 -8.16504 74 -24.498 96s-39.5 33 -69.5 33c-16.667 0 -31.334 -3.66699 -44.001 -11s-23.334 -17 -32.001 -29s-15.167 -25.667 -19.5 -41s-6.5 -31.333 -6.5 -48h196zM153.002 293c0 -73.333 15.832 -129.335 47.499 -168.002s75.834 -58 132.501 -58
c25.333 0 47 1.83301 65 5.5s34 8.16699 48 13.5v-65c-19.333 -8 -41.666 -14.333 -66.999 -19s-52.666 -7 -81.999 -7c-36 0 -69.333 5.66699 -100 17s-57.334 28.5 -80.001 51.5s-40.334 51.667 -53.001 86s-19 74.5 -19 120.5c0 37.333 4.33301 72.833 13 106.5
s22.167 63.167 40.5 88.5s41.5 45.5 69.5 60.5s61.667 22.5 101 22.5c31.333 0 58.833 -4.66699 82.5 -14s43.5 -24.166 59.5 -44.499s28.167 -46.666 36.5 -78.999s12.5 -71.5 12.5 -117.5h-307zM227.001 664.998c0 -16 -5.66699 -29.667 -17 -41s-25 -17 -41 -17
s-29.667 5.66699 -41 17s-17 25 -17 41s5.66699 29.667 17 41s25 17 41 17s29.667 -5.66699 41 -17s17 -25 17 -41zM420.001 664.998c0 -16 -5.66699 -29.667 -17 -41s-25 -17 -41 -17s-29.667 5.66699 -41 17s-17 25 -17 41s5.66699 29.667 17 41s25 17 41 17
s29.667 -5.66699 41 -17s17 -25 17 -41z" />
    <glyph glyph-name="igrave" unicode="&#xec;" horiz-adv-x="325" 
d="M40 0v58h78v428h-78v58h180v-486h80v-58h-260zM192 584l-160 116l60 59l137 -138z" />
    <glyph glyph-name="iacute" unicode="&#xed;" horiz-adv-x="325" 
d="M40 0v58h78v428h-78v58h180v-486h80v-58h-260zM120 584l-37 37l137 138l60 -59z" />
    <glyph glyph-name="icircumflex" unicode="&#xee;" horiz-adv-x="325" 
d="M40 0v58h78v428h-78v58h180v-486h80v-58h-260zM282 581l-127 85l-111 -84l-36 37l156 140l157 -138z" />
    <glyph glyph-name="idieresis" unicode="&#xef;" horiz-adv-x="325" 
d="M40 0v58h78v428h-78v58h180v-486h80v-58h-260zM123 665c0 -16 -5.66699 -29.667 -17 -41s-25 -17 -41 -17s-29.667 5.66699 -41 17s-17 25 -17 41s5.66699 29.667 17 41s25 17 41 17s29.667 -5.66699 41 -17s17 -25 17 -41zM316 665c0 -16 -5.66699 -29.667 -17 -41
s-25 -17 -41 -17s-29.667 5.66699 -41 17s-17 25 -17 41s5.66699 29.667 17 41s25 17 41 17s29.667 -5.66699 41 -17s17 -25 17 -41z" />
    <glyph glyph-name="eth" unicode="&#xf0;" horiz-adv-x="570" 
d="M416 282c0 24.667 -2.5 48.8301 -7.5 72.4971s-13 44.834 -24 63.501s-25 33.667 -42 45s-37.167 17 -60.5 17c-22.667 0 -42 -5.33301 -58 -16s-29.167 -25.5 -39.5 -44.5s-17.833 -41.167 -22.5 -66.5s-7 -52.666 -7 -81.999c0 -25.333 2 -50.5 6 -75.5
s11 -47.5 21 -67.5s23.667 -36.167 41 -48.5s39.333 -18.5 66 -18.5c24 0 44.167 6.33301 60.5 19s29.5 29.334 39.5 50.001s17 44.167 21 70.5s6 53.5 6 81.5zM525 300.996c0 -51.333 -5.99902 -96.3389 -17.999 -135.006s-28.5 -71 -49.5 -97s-46.333 -45.5 -76 -58.5
s-61.834 -19.5 -96.501 -19.5c-42 0 -78.167 7.16699 -108.5 21.5s-55.166 34 -74.499 59s-33.666 54.333 -42.999 88s-14 69.834 -14 108.501c0 39.333 5.33301 76.333 16 111s26.167 64.834 46.5 90.501s45 45.834 74 60.501s61.833 22 98.5 22
c12.667 0 25.667 -0.833008 39 -2.5s25.666 -4.16699 36.999 -7.5c-4.66699 8 -10.5 15.5 -17.5 22.5l-18.5 18.5c-10.667 10.667 -22 21 -34 31s-24 19 -36 27l-63 -63l-43 41l55 55c-26.667 14.667 -55.667 28.334 -87 41.001l23 44
c14.667 -1.33301 31.667 -5.16602 51 -11.499s39.666 -14.5 60.999 -24.5l52 51l43 -41l-40 -40c36 -21.333 68 -46.666 96 -75.999c44 -44.667 76.167 -93 96.5 -145s30.5 -109 30.5 -171z" />
    <glyph glyph-name="ntilde" unicode="&#xf1;" horiz-adv-x="622" 
d="M413 0l-0.000976562 326.002c0 29.333 -2.5 52.166 -7.5 68.499s-13.167 30.166 -24.5 41.499c-16 16 -36.667 27.667 -62 35s-52 11 -80 11c-3.33301 0 -6.5 -0.166992 -9.5 -0.5s-6.16699 -0.5 -9.5 -0.5v-423h80v-58h-260v58h78v428h-78v58h151
c13.333 0 27.333 0.333008 42 1s29.667 1 45 1c39.333 0 75.833 -3.16699 109.5 -9.5s62.834 -21.5 87.501 -45.5c26.667 -26 40 -62.667 40 -110v-323h78v-58h-180zM471.999 690.002c-13.333 -23.333 -29.3301 -43 -47.9971 -59s-38.334 -24 -59.001 -24
c-14 0 -26.333 2.5 -37 7.5s-20.834 10.667 -30.501 17s-19 12 -28 17s-18.5 7.5 -28.5 7.5c-14 0 -27 -4.5 -39 -13.5s-21.667 -20.167 -29 -33.5l-38 38c13.333 22 30.833 41.167 52.5 57.5s43.167 24.5 64.5 24.5c14 0 26.333 -2.66699 37 -8s20.5 -11.166 29.5 -17.499
l26 -17.5c8.33301 -5.33301 17.5 -8 27.5 -8c12.667 0 24.167 4.66699 34.5 14s19.166 21.666 26.499 36.999z" />
    <glyph glyph-name="ograve" unicode="&#xf2;" horiz-adv-x="570" 
d="M416 282c0 24.667 -2.5 48.832 -7.5 72.499s-12.833 45 -23.5 64s-24.334 34.333 -41.001 46s-36.667 17.5 -60 17.5c-22.667 0 -42.167 -5.5 -58.5 -16.5s-29.666 -26 -39.999 -45s-18 -41.333 -23 -67s-7.5 -53.167 -7.5 -82.5c0 -25.333 2 -50.5 6 -75.5
s11 -47.5 21 -67.5s23.667 -36.167 41 -48.5s39.333 -18.5 66 -18.5c24 0 44.167 6.33301 60.5 19s29.5 29.334 39.5 50.001s17 44.167 21 70.5s6 53.5 6 81.5zM525 286.998c0 -39.333 -4.83594 -76.999 -14.5029 -112.999s-24.5 -67.667 -44.5 -95
s-45.167 -49.166 -75.5 -65.499s-65.833 -24.5 -106.5 -24.5c-41.333 0 -77.166 7.16699 -107.499 21.5s-55.166 34 -74.499 59s-33.666 54.5 -42.999 88.5s-14 70.667 -14 110s5.66699 76.333 17 111s27.333 65 48 91s45.834 46.5 75.501 61.5s63.167 22.5 100.5 22.5
c40.667 0 76.167 -6.83301 106.5 -20.5s55.166 -32.334 74.499 -56.001s33.833 -51.834 43.5 -84.501s14.5 -68 14.5 -106zM314.997 583.999l-160 116l60 59l137 -138z" />
    <glyph glyph-name="oacute" unicode="&#xf3;" horiz-adv-x="570" 
d="M416 282c0 24.667 -2.5 48.832 -7.5 72.499s-12.833 45 -23.5 64s-24.334 34.333 -41.001 46s-36.667 17.5 -60 17.5c-22.667 0 -42.167 -5.5 -58.5 -16.5s-29.666 -26 -39.999 -45s-18 -41.333 -23 -67s-7.5 -53.167 -7.5 -82.5c0 -25.333 2 -50.5 6 -75.5
s11 -47.5 21 -67.5s23.667 -36.167 41 -48.5s39.333 -18.5 66 -18.5c24 0 44.167 6.33301 60.5 19s29.5 29.334 39.5 50.001s17 44.167 21 70.5s6 53.5 6 81.5zM525 286.998c0 -39.333 -4.83594 -76.999 -14.5029 -112.999s-24.5 -67.667 -44.5 -95
s-45.167 -49.166 -75.5 -65.499s-65.833 -24.5 -106.5 -24.5c-41.333 0 -77.166 7.16699 -107.499 21.5s-55.166 34 -74.499 59s-33.666 54.5 -42.999 88.5s-14 70.667 -14 110s5.66699 76.333 17 111s27.333 65 48 91s45.834 46.5 75.501 61.5s63.167 22.5 100.5 22.5
c40.667 0 76.167 -6.83301 106.5 -20.5s55.166 -32.334 74.499 -56.001s33.833 -51.834 43.5 -84.501s14.5 -68 14.5 -106zM246.997 583.999l-37 37l137 138l60 -59z" />
    <glyph glyph-name="ocircumflex" unicode="&#xf4;" horiz-adv-x="570" 
d="M416 282c0 24.667 -2.5 48.832 -7.5 72.499s-12.833 45 -23.5 64s-24.334 34.333 -41.001 46s-36.667 17.5 -60 17.5c-22.667 0 -42.167 -5.5 -58.5 -16.5s-29.666 -26 -39.999 -45s-18 -41.333 -23 -67s-7.5 -53.167 -7.5 -82.5c0 -25.333 2 -50.5 6 -75.5
s11 -47.5 21 -67.5s23.667 -36.167 41 -48.5s39.333 -18.5 66 -18.5c24 0 44.167 6.33301 60.5 19s29.5 29.334 39.5 50.001s17 44.167 21 70.5s6 53.5 6 81.5zM525 286.998c0 -39.333 -4.83594 -76.999 -14.5029 -112.999s-24.5 -67.667 -44.5 -95
s-45.167 -49.166 -75.5 -65.499s-65.833 -24.5 -106.5 -24.5c-41.333 0 -77.166 7.16699 -107.499 21.5s-55.166 34 -74.499 59s-33.666 54.5 -42.999 88.5s-14 70.667 -14 110s5.66699 76.333 17 111s27.333 65 48 91s45.834 46.5 75.501 61.5s63.167 22.5 100.5 22.5
c40.667 0 76.167 -6.83301 106.5 -20.5s55.166 -32.334 74.499 -56.001s33.833 -51.834 43.5 -84.501s14.5 -68 14.5 -106zM407.997 580.999l-127 85l-111 -84l-36 37l156 140l157 -138z" />
    <glyph glyph-name="otilde" unicode="&#xf5;" horiz-adv-x="570" 
d="M416 282c0 24.667 -2.5 48.832 -7.5 72.499s-12.833 45 -23.5 64s-24.334 34.333 -41.001 46s-36.667 17.5 -60 17.5c-22.667 0 -42.167 -5.5 -58.5 -16.5s-29.666 -26 -39.999 -45s-18 -41.333 -23 -67s-7.5 -53.167 -7.5 -82.5c0 -25.333 2 -50.5 6 -75.5
s11 -47.5 21 -67.5s23.667 -36.167 41 -48.5s39.333 -18.5 66 -18.5c24 0 44.167 6.33301 60.5 19s29.5 29.334 39.5 50.001s17 44.167 21 70.5s6 53.5 6 81.5zM525 286.998c0 -39.333 -4.83594 -76.999 -14.5029 -112.999s-24.5 -67.667 -44.5 -95
s-45.167 -49.166 -75.5 -65.499s-65.833 -24.5 -106.5 -24.5c-41.333 0 -77.166 7.16699 -107.499 21.5s-55.166 34 -74.499 59s-33.666 54.5 -42.999 88.5s-14 70.667 -14 110s5.66699 76.333 17 111s27.333 65 48 91s45.834 46.5 75.501 61.5s63.167 22.5 100.5 22.5
c40.667 0 76.167 -6.83301 106.5 -20.5s55.166 -32.334 74.499 -56.001s33.833 -51.834 43.5 -84.501s14.5 -68 14.5 -106zM449.997 689.999c-13.333 -23.333 -29.3301 -43 -47.9971 -59s-38.334 -24 -59.001 -24c-14 0 -26.333 2.5 -37 7.5s-20.834 10.667 -30.501 17
s-19 12 -28 17s-18.5 7.5 -28.5 7.5c-14 0 -27 -4.5 -39 -13.5s-21.667 -20.167 -29 -33.5l-38 38c13.333 22 30.833 41.167 52.5 57.5s43.167 24.5 64.5 24.5c14 0 26.333 -2.66699 37 -8s20.5 -11.166 29.5 -17.499l26 -17.5c8.33301 -5.33301 17.5 -8 27.5 -8
c12.667 0 24.167 4.66699 34.5 14s19.166 21.666 26.499 36.999z" />
    <glyph glyph-name="odieresis" unicode="&#xf6;" horiz-adv-x="570" 
d="M416 282c0 24.667 -2.5 48.832 -7.5 72.499s-12.833 45 -23.5 64s-24.334 34.333 -41.001 46s-36.667 17.5 -60 17.5c-22.667 0 -42.167 -5.5 -58.5 -16.5s-29.666 -26 -39.999 -45s-18 -41.333 -23 -67s-7.5 -53.167 -7.5 -82.5c0 -25.333 2 -50.5 6 -75.5
s11 -47.5 21 -67.5s23.667 -36.167 41 -48.5s39.333 -18.5 66 -18.5c24 0 44.167 6.33301 60.5 19s29.5 29.334 39.5 50.001s17 44.167 21 70.5s6 53.5 6 81.5zM525 286.998c0 -39.333 -4.83594 -76.999 -14.5029 -112.999s-24.5 -67.667 -44.5 -95
s-45.167 -49.166 -75.5 -65.499s-65.833 -24.5 -106.5 -24.5c-41.333 0 -77.166 7.16699 -107.499 21.5s-55.166 34 -74.499 59s-33.666 54.5 -42.999 88.5s-14 70.667 -14 110s5.66699 76.333 17 111s27.333 65 48 91s45.834 46.5 75.501 61.5s63.167 22.5 100.5 22.5
c40.667 0 76.167 -6.83301 106.5 -20.5s55.166 -32.334 74.499 -56.001s33.833 -51.834 43.5 -84.501s14.5 -68 14.5 -106zM249.997 664.999c0 -16 -5.66699 -29.667 -17 -41s-25 -17 -41 -17s-29.667 5.66699 -41 17s-17 25 -17 41s5.66699 29.667 17 41s25 17 41 17
s29.667 -5.66699 41 -17s17 -25 17 -41zM442.997 664.999c0 -16 -5.66699 -29.667 -17 -41s-25 -17 -41 -17s-29.667 5.66699 -41 17s-17 25 -17 41s5.66699 29.667 17 41s25 17 41 17s29.667 -5.66699 41 -17s17 -25 17 -41z" />
    <glyph glyph-name="divide" unicode="&#xf7;" 
d="M323 70c0 -20 -7.16699 -37 -21.5 -51s-31.5 -21 -51.5 -21s-37 7 -51 21s-21 31 -21 51s7 37 21 51s31 21 51 21s37.167 -7 51.5 -21s21.5 -31 21.5 -51zM0 236v72h500v-72h-500zM323 474c0 -20 -7.16699 -37 -21.5 -51s-31.5 -21 -51.5 -21s-37 7 -51 21s-21 31 -21 51
s7 37 21 51s31 21 51 21s37.167 -7 51.5 -21s21.5 -31 21.5 -51z" />
    <glyph glyph-name="oslash" unicode="&#xf8;" horiz-adv-x="570" 
d="M416 282c0 20.667 -1.66797 40.832 -5.00098 60.499s-8.66602 38.167 -15.999 55.5l-181 -311c9.33301 -8 20.333 -14.333 33 -19s26.667 -7 42 -7c24 0 44.167 6.33301 60.5 19s29.5 29.334 39.5 50.001s17 44.167 21 70.5s6 53.5 6 81.5zM358.999 452.998
c-10 9.33301 -21.1689 16.498 -33.502 21.498s-26.166 7.5 -41.499 7.5c-22.667 0 -42.167 -5.5 -58.5 -16.5s-29.666 -26 -39.999 -45s-18 -41.333 -23 -67s-7.5 -53.167 -7.5 -82.5c0 -23.333 1.66699 -46.166 5 -68.499s9 -43.166 17 -62.499zM524.997 286.996
c0 -39.333 -4.83301 -77.001 -14.5 -113.001s-24.5 -67.667 -44.5 -95s-45.167 -49.166 -75.5 -65.499s-65.833 -24.5 -106.5 -24.5c-22 0 -42.333 2.16699 -61 6.5s-36 10.166 -52 17.499l-62 -109l-54 28l68 115c-26.667 25.333 -46.334 57 -59.001 95s-19 80 -19 126
c0 39.333 5.66699 76.333 17 111s27.333 65 48 91s45.834 46.5 75.501 61.5s63.167 22.5 100.5 22.5c23.333 0 44.5 -2.16699 63.5 -6.5s36.833 -10.5 53.5 -18.5l65 112l52 -27l-69 -119c25.333 -24.667 44 -54.667 56 -90s18 -74.666 18 -117.999z" />
    <glyph glyph-name="ugrave" unicode="&#xf9;" horiz-adv-x="618" 
d="M426 0c-16 0 -32.168 -0.333008 -48.501 -1s-35.166 -1 -56.499 -1c-32 0 -64 3.5 -96 10.5s-59 21.5 -81 43.5c-13.333 13.333 -23.666 29.333 -30.999 48s-11 41 -11 67v319h-77v58h179v-326c0 -15.333 0.5 -28.666 1.5 -39.999s2.83301 -21.5 5.5 -30.5
s6.16699 -16.833 10.5 -23.5s9.83301 -13.334 16.5 -20.001c14 -14 33.833 -24.5 59.5 -31.5s52.167 -10.5 79.5 -10.5c4 0 7.66699 0.166992 11 0.5s6.66602 0.5 9.99902 0.5v423h-80v58h182v-486h78v-58h-152zM319.999 584l-160 116l60 59l137 -138z" />
    <glyph glyph-name="uacute" unicode="&#xfa;" horiz-adv-x="618" 
d="M426 0c-16 0 -32.168 -0.333008 -48.501 -1s-35.166 -1 -56.499 -1c-32 0 -64 3.5 -96 10.5s-59 21.5 -81 43.5c-13.333 13.333 -23.666 29.333 -30.999 48s-11 41 -11 67v319h-77v58h179v-326c0 -15.333 0.5 -28.666 1.5 -39.999s2.83301 -21.5 5.5 -30.5
s6.16699 -16.833 10.5 -23.5s9.83301 -13.334 16.5 -20.001c14 -14 33.833 -24.5 59.5 -31.5s52.167 -10.5 79.5 -10.5c4 0 7.66699 0.166992 11 0.5s6.66602 0.5 9.99902 0.5v423h-80v58h182v-486h78v-58h-152zM244.999 584l-37 37l137 138l60 -59z" />
    <glyph glyph-name="ucircumflex" unicode="&#xfb;" horiz-adv-x="618" 
d="M426 0c-16 0 -32.168 -0.333008 -48.501 -1s-35.166 -1 -56.499 -1c-32 0 -64 3.5 -96 10.5s-59 21.5 -81 43.5c-13.333 13.333 -23.666 29.333 -30.999 48s-11 41 -11 67v319h-77v58h179v-326c0 -15.333 0.5 -28.666 1.5 -39.999s2.83301 -21.5 5.5 -30.5
s6.16699 -16.833 10.5 -23.5s9.83301 -13.334 16.5 -20.001c14 -14 33.833 -24.5 59.5 -31.5s52.167 -10.5 79.5 -10.5c4 0 7.66699 0.166992 11 0.5s6.66602 0.5 9.99902 0.5v423h-80v58h182v-486h78v-58h-152zM419.999 581l-127 85l-111 -84l-36 37l156 140l157 -138z" />
    <glyph glyph-name="udieresis" unicode="&#xfc;" horiz-adv-x="618" 
d="M426 0c-16 0 -32.168 -0.333008 -48.501 -1s-35.166 -1 -56.499 -1c-32 0 -64 3.5 -96 10.5s-59 21.5 -81 43.5c-13.333 13.333 -23.666 29.333 -30.999 48s-11 41 -11 67v319h-77v58h179v-326c0 -15.333 0.5 -28.666 1.5 -39.999s2.83301 -21.5 5.5 -30.5
s6.16699 -16.833 10.5 -23.5s9.83301 -13.334 16.5 -20.001c14 -14 33.833 -24.5 59.5 -31.5s52.167 -10.5 79.5 -10.5c4 0 7.66699 0.166992 11 0.5s6.66602 0.5 9.99902 0.5v423h-80v58h182v-486h78v-58h-152zM255.999 665c0 -16 -5.66699 -29.667 -17 -41
s-25 -17 -41 -17s-29.667 5.66699 -41 17s-17 25 -17 41s5.66699 29.667 17 41s25 17 41 17s29.667 -5.66699 41 -17s17 -25 17 -41zM448.999 665c0 -16 -5.66699 -29.667 -17 -41s-25 -17 -41 -17s-29.667 5.66699 -41 17s-17 25 -17 41s5.66699 29.667 17 41s25 17 41 17
s29.667 -5.66699 41 -17s17 -25 17 -41z" />
    <glyph glyph-name="yacute" unicode="&#xfd;" 
d="M446 486l-233 -571.002c-12 -30 -29 -54.833 -51 -74.5s-52.333 -29.5 -91 -29.5c-20 0 -36.333 2.33301 -49 7v62l22 -4c7.33301 -1.33301 15 -2 23 -2c12 0 22.167 1.83301 30.5 5.5s15.5 8.33398 21.5 14.001s11 11.834 15 18.501s7 13 9 19l56 151l-129 404h-67v58
h156l102 -342l103 284h-75v58h204v-58h-47zM225 583.998l-37 37l137 138l60 -59z" />
    <glyph glyph-name="thorn" unicode="&#xfe;" horiz-adv-x="585" 
d="M435 261c0 72 -14.667 127.001 -44 165.001s-75 57 -137 57h-19c-7.33301 0 -14.333 -0.666992 -21 -2v-416c7.33301 -2.66699 15.5 -4.33398 24.5 -5.00098s18.833 -1 29.5 -1c57.333 0 99.5 18.333 126.5 55s40.5 85.667 40.5 147zM545 269.001
c0 -38.667 -5.99707 -74.501 -17.9971 -107.501s-29.167 -61.667 -51.5 -86s-50 -43.333 -83 -57s-70.5 -20.5 -112.5 -20.5c-17.333 0 -30.333 0.5 -39 1.5s-17.334 2.16699 -26.001 3.5v-129h79v-58h-256v58h75v816h-78v58h180v-204
c10.667 0.666992 24 1.33398 40 2.00098s30.667 1 44 1c37.333 0 71.166 -5 101.499 -15s56.166 -26 77.499 -48s37.833 -50.667 49.5 -86s17.5 -78.333 17.5 -129z" />
    <glyph glyph-name="ydieresis" unicode="&#xff;" 
d="M446 486l-233 -571.002c-12 -30 -29 -54.833 -51 -74.5s-52.333 -29.5 -91 -29.5c-20 0 -36.333 2.33301 -49 7v62l22 -4c7.33301 -1.33301 15 -2 23 -2c12 0 22.167 1.83301 30.5 5.5s15.5 8.33398 21.5 14.001s11 11.834 15 18.501s7 13 9 19l56 151l-129 404h-67v58
h156l102 -342l103 284h-75v58h204v-58h-47zM215 664.998c0 -16 -5.66699 -29.667 -17 -41s-25 -17 -41 -17s-29.667 5.66699 -41 17s-17 25 -17 41s5.66699 29.667 17 41s25 17 41 17s29.667 -5.66699 41 -17s17 -25 17 -41zM408 664.998c0 -16 -5.66699 -29.667 -17 -41
s-25 -17 -41 -17s-29.667 5.66699 -41 17s-17 25 -17 41s5.66699 29.667 17 41s25 17 41 17s29.667 -5.66699 41 -17s17 -25 17 -41z" />
    <glyph glyph-name="dotlessi" unicode="&#x131;" horiz-adv-x="325" 
d="M40 0v58h78v428h-78v58h180v-486h80v-58h-260z" />
    <glyph glyph-name="Lslash" unicode="&#x141;" horiz-adv-x="535" 
d="M65 0v60h78v225l-81 -47l-30 52l111 64v304h-78v60h260v-60h-74v-241l70 40l30 -51l-100 -58v-283h191v88h65v-153h-442z" />
    <glyph glyph-name="lslash" unicode="&#x142;" horiz-adv-x="329" 
d="M226 349v-291h80v-58h-260v58h78v232l-89 -52l-30 52l119 69v331h-78v58h180v-330l68 39l30 -51z" />
    <glyph glyph-name="OE" unicode="&#x152;" horiz-adv-x="908" 
d="M471 630c-27.333 16 -66.333 23.999 -117 23.999c-32 0 -59.667 -7.16699 -83 -21.5s-42.5 -34.333 -57.5 -60s-26 -56 -33 -91s-10.5 -72.833 -10.5 -113.5c0 -39.333 3.33301 -77.5 10 -114.5s17.5 -69.667 32.5 -98s34.333 -51.166 58 -68.499s52.5 -26 86.5 -26
c25.333 0 47.333 2.66699 66 8s34.667 13 48 23v538zM435 -0.000976562c-22 -8 -48.335 -12 -79.002 -12c-51.333 0 -96.166 8.83301 -134.499 26.5s-70.166 42.5 -95.499 74.5s-44.333 69.833 -57 113.5s-19 91.5 -19 143.5c0 55.333 6.5 106.166 19.5 152.499
s32.167 86.333 57.5 120s56.833 59.834 94.5 78.501s81.167 28 130.5 28c28.667 0 52.667 -2.33301 72 -7h414v-143h-66v79h-193v-242h216v-75h-216v-274h221v90h66v-153h-431z" />
    <glyph glyph-name="oe" unicode="&#x153;" horiz-adv-x="860" 
d="M416 282c0 24.667 -2.5 48.667 -7.5 72s-13 44.166 -24 62.499s-25 33.166 -42 44.499s-37.167 17 -60.5 17c-22.667 0 -42 -5.33301 -58 -16s-29.167 -25.167 -39.5 -43.5s-17.833 -40.166 -22.5 -65.499s-7 -52.666 -7 -81.999c0 -25.333 2 -50.5 6 -75.5
s11 -47.333 21 -67s23.667 -35.5 41 -47.5s39.333 -18 66 -18c24 0 44.167 6.16699 60.5 18.5s29.5 28.833 39.5 49.5s17 44 21 70s6 53 6 81zM723 360c0 8.66699 -0.834961 19.833 -2.50195 33.5s-5.66699 27.167 -12 40.5s-15.666 24.833 -27.999 34.5
s-29.166 14.5 -50.499 14.5c-20.667 0 -37.667 -4.83301 -51 -14.5s-24 -21 -32 -34s-13.5 -26.5 -16.5 -40.5s-4.5 -25.333 -4.5 -34h197zM524.998 297.999l-0.00292969 -10.998v-16c2 -29.333 6.66699 -56.333 14 -81s18.333 -46.167 33 -64.5
s32.834 -32.666 54.501 -42.999s47.5 -15.5 77.5 -15.5c25.333 0 47 1.83301 65 5.5s34 8.16699 48 13.5v-65c-19.333 -8 -41.666 -14.333 -66.999 -19s-52.666 -7 -81.999 -7c-41.333 0 -79 7.5 -113 22.5s-62.333 37.833 -85 68.5
c-19.333 -28.667 -44.5 -51.334 -75.5 -68.001s-67.5 -25 -109.5 -25s-78.167 7.16699 -108.5 21.5s-55.166 33.833 -74.499 58.5s-33.666 53.667 -42.999 87s-14 69.333 -14 108c0 39.333 5.33301 76.166 16 110.499s26.167 64.166 46.5 89.499s45 45.333 74 60
s61.833 22 98.5 22c45.333 0 83.666 -7.16699 114.999 -21.5s57 -34.166 77 -59.499c17.333 24 40 43.167 68 57.5s62 21.5 102 21.5c31.333 0 57.666 -4.66699 78.999 -14s39 -21.333 53 -36s24.833 -31.167 32.5 -49.5s13.167 -36.833 16.5 -55.5
s5.33301 -36.334 6 -53.001s1 -30.667 1 -42h-305z" />
    <glyph glyph-name="Scaron" unicode="&#x160;" 
d="M453 206c0 -31.333 -6.83301 -60.001 -20.5 -86.001s-32 -48.167 -55 -66.5s-49.667 -32.5 -80 -42.5s-62.166 -15 -95.499 -15c-34 0 -64 1.66699 -90 5s-48.667 8.33301 -68 15v143h70v-83c11.333 -3.33301 23.5 -6 36.5 -8s29.167 -3 48.5 -3
c45.333 0 81.5 10 108.5 30s40.5 46 40.5 78c0 18 -3.5 33.833 -10.5 47.5s-16.333 26 -28 37s-25.167 21.5 -40.5 31.5l-47 30l-42 26c-22 14 -41 27.833 -57 41.5s-29 28.334 -39 44.001s-17.5 32.334 -22.5 50.001s-7.5 37.167 -7.5 58.5
c0 24.667 5.16699 48.167 15.5 70.5s25.166 42 44.499 59s42.833 30.5 70.5 40.5s58.834 15 93.501 15c57.333 0 102.666 -5.66699 135.999 -17v-144h-70v89c-9.33301 2 -19.333 3.5 -30 4.5s-24.334 1.5 -41.001 1.5c-35.333 0 -63.666 -9.5 -84.999 -28.5
s-32 -43.167 -32 -72.5c0 -14 2 -26.5 6 -37.5s10.333 -21.333 19 -31s20 -19.334 34 -29.001s31 -20.5 51 -32.5l63 -37c39.333 -23.333 69.833 -49 91.5 -77s32.5 -63.667 32.5 -107zM284 745.999l-157 138l39 40l127 -85l111 84l36 -37z" />
    <glyph glyph-name="scaron" unicode="&#x161;" horiz-adv-x="425" 
d="M388 163c0 -26 -5.00195 -49.334 -15.002 -70.001s-24 -38.5 -42 -53.5s-39.667 -26.5 -65 -34.5s-53 -12 -83 -12c-35.333 0 -65 2.16699 -89 6.5s-42 9.83301 -54 16.5v140h65v-85c8 -4 19.167 -7.5 33.5 -10.5s30.833 -4.5 49.5 -4.5c34 0 60.667 6.83301 80 20.5
s29 34.167 29 61.5c0 18.667 -6.33301 34.667 -19 48s-34 26.666 -64 39.999l-71 31c-34.667 15.333 -60.167 33.666 -76.5 54.999s-24.5 48 -24.5 80c0 22 4.33301 42.5 13 61.5s21.334 35.667 38.001 50s37.334 25.5 62.001 33.5s53 12 85 12c26 0 51.167 -1.5 75.5 -4.5
s41.5 -6.83301 51.5 -11.5v-142h-67v86c-8 2.66699 -17.333 4.83398 -28 6.50098s-22 2.5 -34 2.5c-36 0 -62.5 -6.83301 -79.5 -20.5s-25.5 -31.167 -25.5 -52.5c0 -18 6.33301 -32.167 19 -42.5s29.667 -20.166 51 -29.499l73 -31
c37.333 -15.333 65.333 -34.166 84 -56.499s28 -52.5 28 -90.5zM217.998 580.999l-157 138l39 40l127 -85l111 84l36 -37z" />
    <glyph glyph-name="Ydieresis" unicode="&#x178;" horiz-adv-x="588" 
d="M514 658l-159 -347v-251h84v-60h-270v60h81v250l-175 348h-51v60h230v-60h-63l125 -276l117 276h-70v60h214v-60h-63zM272 830c0 -16 -5.66699 -29.667 -17 -41s-25 -17 -41 -17s-29.667 5.66699 -41 17s-17 25 -17 41s5.66699 29.667 17 41s25 17 41 17
s29.667 -5.66699 41 -17s17 -25 17 -41zM465 830c0 -16 -5.66699 -29.667 -17 -41s-25 -17 -41 -17s-29.667 5.66699 -41 17s-17 25 -17 41s5.66699 29.667 17 41s25 17 41 17s29.667 -5.66699 41 -17s17 -25 17 -41z" />
    <glyph glyph-name="Zcaron" unicode="&#x17d;" horiz-adv-x="540" 
d="M35 0v60l328 592h-234v-96h-71v162h428v-59l-329 -593h265v91h72v-157h-459zM265 746l-157 138l39 40l127 -85l111 84l36 -37z" />
    <glyph glyph-name="zcaron" unicode="&#x17e;" horiz-adv-x="476" 
d="M41 0v52l258 430h-178v-75h-64v137h358v-54l-255 -428h200v75h63v-137h-382zM234 581l-157 138l39 40l127 -85l111 84l36 -37z" />
    <glyph glyph-name="florin" unicode="&#x192;" horiz-adv-x="424" 
d="M445 674c-16.667 3.33301 -35.3252 5.00195 -55.9922 5.00195c-28.667 0 -53 -10 -73 -30c-12.667 -12.667 -21 -27.167 -25 -43.5s-7 -33.833 -9 -52.5l-12 -120h128l-7 -62h-128l-35 -305c-1.33301 -14 -3.5 -28.333 -6.5 -43s-6.83301 -29.334 -11.5 -44.001
s-10.5 -28.334 -17.5 -41.001s-15.167 -24 -24.5 -34c-17.333 -17.333 -35.833 -30.5 -55.5 -39.5s-42.167 -13.5 -67.5 -13.5c-20.667 0 -38.334 1 -53.001 3s-25.334 4.33301 -32.001 7l9 65c7.33301 -2 16.166 -3.33301 26.499 -4s20.166 -1 29.499 -1c22 0 42 9 60 27
c14.667 14.667 24.667 33.167 30 55.5s9 43.166 11 62.499l35 305h-81l7 62h81l11 105c3.33301 28.667 9.16602 57.334 17.499 86.001s22.166 53 41.499 73c17.333 17.333 36.666 30.5 57.999 39.5s45.666 13.5 72.999 13.5c40 0 68.333 -3.33301 85 -10z" />
    <glyph glyph-name="circumflex" unicode="&#x2c6;" horiz-adv-x="400" 
d="M318 581l-127 85l-111 -84l-36 37l156 140l157 -138z" />
    <glyph glyph-name="caron" unicode="&#x2c7;" horiz-adv-x="400" 
d="M200 581l-157 138l39 40l127 -85l111 84l36 -37z" />
    <glyph glyph-name="breve" unicode="&#x2d8;" horiz-adv-x="400" 
d="M344 748c0 -18 -2.66992 -35.833 -8.00293 -53.5s-13.666 -33.5 -24.999 -47.5s-26.333 -25.5 -45 -34.5s-41 -13.5 -67 -13.5c-33.333 0 -59.5 4.33301 -78.5 13s-33.333 20 -43 34s-15.667 29.833 -18 47.5s-3.5 35.834 -3.5 54.501h61
c0 -9.33301 1.33301 -18.833 4 -28.5s7.33398 -18.834 14.001 -27.501s15.5 -15.667 26.5 -21s24.833 -8 41.5 -8c16 0 29.167 2.83301 39.5 8.5s18.833 12.667 25.5 21s11.334 17.5 14.001 27.5s4 19.333 4 28h58z" />
    <glyph glyph-name="dotaccent" unicode="&#x2d9;" horiz-adv-x="250" 
d="M197 678c0 -20 -7.16699 -37 -21.5 -51s-31.5 -21 -51.5 -21s-37 7 -51 21s-21 31 -21 51s7 37 21 51s31 21 51 21s37.167 -7 51.5 -21s21.5 -31 21.5 -51z" />
    <glyph glyph-name="ring" unicode="&#x2da;" horiz-adv-x="400" 
d="M248 672c0 15.333 -4 28.834 -12 40.501s-19.667 17.5 -35 17.5c-16 0 -28.5 -5.33301 -37.5 -16s-13.5 -25.334 -13.5 -44.001c0 -17.333 4.33301 -32 13 -44s20.667 -18 36 -18c32.667 0 49 21.333 49 64zM295 673.001c0 -30 -9.33203 -54.334 -27.999 -73.001
s-41.334 -28 -68.001 -28c-30 0 -53.5 8.66699 -70.5 26s-25.5 41 -25.5 71c0 27.333 9.5 50.333 28.5 69s42.5 28 70.5 28s50.5 -8.16699 67.5 -24.5s25.5 -39.166 25.5 -68.499z" />
    <glyph glyph-name="ogonek" unicode="&#x2db;" horiz-adv-x="300" 
d="M211 -187c-8 -3.33301 -17.167 -6.00098 -27.5 -8.00098s-23.833 -3 -40.5 -3c-28 0 -49.333 7.66699 -64 23s-22 33.666 -22 54.999c0 14 1.83301 27.5 5.5 40.5s8.16699 25.167 13.5 36.5s10.833 21.5 16.5 30.5s10.167 16.5 13.5 22.5h53
c-9.33301 -15.333 -17.5 -33.666 -24.5 -54.999s-10.5 -42 -10.5 -62c0 -18 4.16699 -30.333 12.5 -37s17.833 -10 28.5 -10c11.333 0 20.333 0.833008 27 2.5s13 3.83398 19 6.50098v-42z" />
    <glyph glyph-name="tilde" unicode="&#x2dc;" horiz-adv-x="400" 
d="M364 690c-13.333 -23.333 -29.3301 -43 -47.9971 -59s-38.334 -24 -59.001 -24c-14 0 -26.333 2.5 -37 7.5s-20.834 10.667 -30.501 17s-19 12 -28 17s-18.5 7.5 -28.5 7.5c-14 0 -27 -4.5 -39 -13.5s-21.667 -20.167 -29 -33.5l-38 38
c13.333 22 30.833 41.167 52.5 57.5s43.167 24.5 64.5 24.5c14 0 26.333 -2.66699 37 -8s20.5 -11.166 29.5 -17.499l26 -17.5c8.33301 -5.33301 17.5 -8 27.5 -8c12.667 0 24.167 4.66699 34.5 14s19.166 21.666 26.499 36.999z" />
    <glyph glyph-name="hungarumlaut" unicode="&#x2dd;" horiz-adv-x="450" 
d="M290 561l-48 22l81 177l77 -35zM92 568l-42 30l110 160l70 -48z" />
    <glyph glyph-name="Delta" unicode="&#x394;" horiz-adv-x="698" 
d="M349 656l-157 -596h294zM83 0l206 721h143l184 -721h-533z" />
    <glyph glyph-name="Delta" unicode="&#x2206;" horiz-adv-x="698" 
d="M349 656l-157 -596h294zM83 0l206 721h143l184 -721h-533z" />
    <glyph glyph-name="Omega" unicode="&#x3a9;" horiz-adv-x="683" 
d="M381 0l-0.00488281 143.001c19.333 7.33301 37.833 17.833 55.5 31.5s33.167 30.667 46.5 51s24 44.5 32 72.5s12 60 12 96c0 38 -4.66699 72.833 -14 104.5s-22.333 59 -39 82s-36.167 41 -58.5 54s-46.833 19.5 -73.5 19.5s-51.167 -6.16699 -73.5 -18.5
s-41.666 -29.333 -57.999 -51s-29.166 -47.334 -38.499 -77.001s-14 -61.5 -14 -95.5c0 -75.333 12.5 -135.166 37.5 -179.499s60.5 -74.166 106.5 -89.499v-143h-282v133h65v-73h160v46c-25.333 5.33301 -50.333 16 -75 32s-46.667 36.167 -66 60.5
s-35.166 52.666 -47.499 84.999s-18.5 67.833 -18.5 106.5c0 42.667 7.33301 84.167 22 124.5s35.334 76.166 62.001 107.499s58.5 56.333 95.5 75s77.833 28 122.5 28c50.667 0 95 -8.16699 133 -24.5s69.667 -38.5 95 -66.5s44.5 -61 57.5 -99s19.5 -78.333 19.5 -121
c0 -43.333 -6.5 -82 -19.5 -116s-29.5 -63.667 -49.5 -89s-42.167 -46.333 -66.5 -63s-48.166 -29 -71.499 -37v-49h160v73h65v-133h-282z" />
    <glyph glyph-name="Omega" unicode="&#x2126;" horiz-adv-x="683" 
d="M381 0l-0.00488281 143.001c19.333 7.33301 37.833 17.833 55.5 31.5s33.167 30.667 46.5 51s24 44.5 32 72.5s12 60 12 96c0 38 -4.66699 72.833 -14 104.5s-22.333 59 -39 82s-36.167 41 -58.5 54s-46.833 19.5 -73.5 19.5s-51.167 -6.16699 -73.5 -18.5
s-41.666 -29.333 -57.999 -51s-29.166 -47.334 -38.499 -77.001s-14 -61.5 -14 -95.5c0 -75.333 12.5 -135.166 37.5 -179.499s60.5 -74.166 106.5 -89.499v-143h-282v133h65v-73h160v46c-25.333 5.33301 -50.333 16 -75 32s-46.667 36.167 -66 60.5
s-35.166 52.666 -47.499 84.999s-18.5 67.833 -18.5 106.5c0 42.667 7.33301 84.167 22 124.5s35.334 76.166 62.001 107.499s58.5 56.333 95.5 75s77.833 28 122.5 28c50.667 0 95 -8.16699 133 -24.5s69.667 -38.5 95 -66.5s44.5 -61 57.5 -99s19.5 -78.333 19.5 -121
c0 -43.333 -6.5 -82 -19.5 -116s-29.5 -63.667 -49.5 -89s-42.167 -46.333 -66.5 -63s-48.166 -29 -71.499 -37v-49h160v73h65v-133h-282z" />
    <glyph glyph-name="pi" unicode="&#x3c0;" horiz-adv-x="645" 
d="M630 15c-8.66699 -4.66699 -21.834 -9.16895 -39.501 -13.502s-36.167 -6.5 -55.5 -6.5c-26 0 -47.333 2.66699 -64 8s-31.667 14.666 -45 27.999c-9.33301 9.33301 -16.5 19 -21.5 29s-8.5 20.667 -10.5 32s-3.16699 23.333 -3.5 36s-0.5 26.334 -0.5 41.001l1 317h-171
v-428h80v-58h-260v58h78v428h-78v58h564v-58h-116v-291c0 -8 -0.166992 -16.667 -0.5 -26s0 -18.666 1 -27.999s2.83301 -18.166 5.5 -26.499s6.66699 -15.5 12 -21.5c8 -8 18.5 -14.333 31.5 -19s26.167 -7 39.5 -7c8.66699 0 18.334 0.833008 29.001 2.5
s18.667 4.16699 24 7.5v-62z" />
    <glyph glyph-name="endash" unicode="&#x2013;" 
d="M0 282v58h500v-58h-500z" />
    <glyph glyph-name="emdash" unicode="&#x2014;" horiz-adv-x="1000" 
d="M0 282v58h1000v-58h-1000z" />
    <glyph glyph-name="quoteleft" unicode="&#x2018;" horiz-adv-x="250" 
d="M212 714c-2 0 -4.99902 -0.668945 -8.99902 -2.00195s-8.5 -3.16602 -13.5 -5.49902s-10 -5 -15 -8s-9.16699 -6.16699 -12.5 -9.5c-12 -13.333 -18 -29.666 -18 -48.999c15.333 -5.33301 27.5 -14 36.5 -26s13.5 -26.333 13.5 -43c0 -20 -6.33301 -37 -19 -51
s-29.667 -21 -51 -21s-38.5 8 -51.5 24s-19.5 34 -19.5 54c0 28 4 52 12 72s20.667 38.667 38 56c21.333 21.333 39.666 34.5 54.999 39.5s24.333 7.5 27 7.5z" />
    <glyph glyph-name="quoteright" unicode="&#x2019;" horiz-adv-x="250" 
d="M197 674c0 -28 -4.00098 -51.999 -12.001 -71.999s-20.667 -38.667 -38 -56c-21.333 -21.333 -39.666 -34.5 -54.999 -39.5s-24.333 -7.5 -27 -7.5l-27 38c2 0 5 0.666992 9 2s8.5 3.16602 13.5 5.49902s10 5 15 8s9.16699 6.16699 12.5 9.5c12 12.667 18 29 18 49
c-15.333 5.33301 -27.5 14 -36.5 26s-13.5 26.333 -13.5 43c0 20 6.33301 37 19 51s29.667 21 51 21s38.5 -8 51.5 -24s19.5 -34 19.5 -54z" />
    <glyph glyph-name="quotesinglbase" unicode="&#x201a;" horiz-adv-x="250" 
d="M197 64c0 -28 -4.00098 -51.998 -12.001 -71.998s-20.667 -38.667 -38 -56c-21.333 -21.333 -39.666 -34.5 -54.999 -39.5s-24.333 -7.5 -27 -7.5l-27 38c2 0 5 0.666992 9 2s8.5 3.16602 13.5 5.49902s10 5 15 8s9.16699 6.16699 12.5 9.5
c12 13.333 18 29.666 18 48.999c-15.333 5.33301 -27.5 14 -36.5 26s-13.5 26.333 -13.5 43c0 20 6.33301 37 19 51s29.667 21 51 21s38.5 -8 51.5 -24s19.5 -34 19.5 -54z" />
    <glyph glyph-name="quotedblleft" unicode="&#x201c;" horiz-adv-x="456" 
d="M212 714c-2 0 -4.99902 -0.668945 -8.99902 -2.00195s-8.5 -3.16602 -13.5 -5.49902s-10 -5 -15 -8s-9.16699 -6.16699 -12.5 -9.5c-12 -13.333 -18 -29.666 -18 -48.999c15.333 -5.33301 27.5 -14 36.5 -26s13.5 -26.333 13.5 -43c0 -20 -6.33301 -37 -19 -51
s-29.667 -21 -51 -21s-38.5 8 -51.5 24s-19.5 34 -19.5 54c0 28 4 52 12 72s20.667 38.667 38 56c21.333 21.333 39.666 34.5 54.999 39.5s24.333 7.5 27 7.5zM418.001 713.998c-2 0 -4.99902 -0.668945 -8.99902 -2.00195s-8.5 -3.16602 -13.5 -5.49902s-10 -5 -15 -8
s-9.16699 -6.16699 -12.5 -9.5c-12 -13.333 -18 -29.666 -18 -48.999c15.333 -5.33301 27.5 -14 36.5 -26s13.5 -26.333 13.5 -43c0 -20 -6.33301 -37 -19 -51s-29.667 -21 -51 -21s-38.5 8 -51.5 24s-19.5 34 -19.5 54c0 28 4 52 12 72s20.667 38.667 38 56
c21.333 21.333 39.666 34.5 54.999 39.5s24.333 7.5 27 7.5z" />
    <glyph glyph-name="quotedblright" unicode="&#x201d;" horiz-adv-x="456" 
d="M197 674c0 -28 -4.00098 -51.999 -12.001 -71.999s-20.667 -38.667 -38 -56c-21.333 -21.333 -39.666 -34.5 -54.999 -39.5s-24.333 -7.5 -27 -7.5l-27 38c2 0 5 0.666992 9 2s8.5 3.16602 13.5 5.49902s10 5 15 8s9.16699 6.16699 12.5 9.5c12 12.667 18 29 18 49
c-15.333 5.33301 -27.5 14 -36.5 26s-13.5 26.333 -13.5 43c0 20 6.33301 37 19 51s29.667 21 51 21s38.5 -8 51.5 -24s19.5 -34 19.5 -54zM402.999 674.001c0 -28 -4.00098 -51.999 -12.001 -71.999s-20.667 -38.667 -38 -56c-21.333 -21.333 -39.666 -34.5 -54.999 -39.5
s-24.333 -7.5 -27 -7.5l-27 38c2 0 5 0.666992 9 2s8.5 3.16602 13.5 5.49902s10 5 15 8s9.16699 6.16699 12.5 9.5c12 12.667 18 29 18 49c-15.333 5.33301 -27.5 14 -36.5 26s-13.5 26.333 -13.5 43c0 20 6.33301 37 19 51s29.667 21 51 21s38.5 -8 51.5 -24
s19.5 -34 19.5 -54z" />
    <glyph glyph-name="quotedblbase" unicode="&#x201e;" horiz-adv-x="456" 
d="M197 64c0 -28 -4.00098 -51.998 -12.001 -71.998s-20.667 -38.667 -38 -56c-21.333 -21.333 -39.666 -34.5 -54.999 -39.5s-24.333 -7.5 -27 -7.5l-27 38c2 0 5 0.666992 9 2s8.5 3.16602 13.5 5.49902s10 5 15 8s9.16699 6.16699 12.5 9.5
c12 13.333 18 29.666 18 48.999c-15.333 5.33301 -27.5 14 -36.5 26s-13.5 26.333 -13.5 43c0 20 6.33301 37 19 51s29.667 21 51 21s38.5 -8 51.5 -24s19.5 -34 19.5 -54zM402.999 64.002c0 -28 -4.00098 -51.998 -12.001 -71.998s-20.667 -38.667 -38 -56
c-21.333 -21.333 -39.666 -34.5 -54.999 -39.5s-24.333 -7.5 -27 -7.5l-27 38c2 0 5 0.666992 9 2s8.5 3.16602 13.5 5.49902s10 5 15 8s9.16699 6.16699 12.5 9.5c12 13.333 18 29.666 18 48.999c-15.333 5.33301 -27.5 14 -36.5 26s-13.5 26.333 -13.5 43
c0 20 6.33301 37 19 51s29.667 21 51 21s38.5 -8 51.5 -24s19.5 -34 19.5 -54z" />
    <glyph glyph-name="dagger" unicode="&#x2020;" horiz-adv-x="600" 
d="M342 465l14 -591h-111l14 591l-201 -27v114l202 -27l-17 223h115l-17 -223l201 27v-114z" />
    <glyph glyph-name="daggerdbl" unicode="&#x2021;" horiz-adv-x="600" 
d="M341 97l17 -223h-116l17 223l-201 -27v114l201 -27v307l-201 -26v114l202 -27l-15 223h110l-15 -223l202 27v-114l-201 26v-307l201 27v-114z" />
    <glyph glyph-name="bullet" unicode="&#x2022;" horiz-adv-x="250" 
d="M232 281c0 -14.667 -2.83301 -28.5 -8.5 -41.5s-13.334 -24.167 -23.001 -33.5s-21 -16.833 -34 -22.5s-26.833 -8.5 -41.5 -8.5s-28.5 2.83301 -41.5 8.5s-24.333 13.167 -34 22.5s-17.334 20.5 -23.001 33.5s-8.5 26.833 -8.5 41.5s2.83301 28.5 8.5 41.5
s13.334 24.333 23.001 34s21 17.334 34 23.001s26.833 8.5 41.5 8.5s28.5 -2.83301 41.5 -8.5s24.333 -13.334 34 -23.001s17.334 -21 23.001 -34s8.5 -26.833 8.5 -41.5z" />
    <glyph glyph-name="ellipsis" unicode="&#x2026;" horiz-adv-x="710" 
d="M197 70c0 -20 -7.16699 -37 -21.5 -51s-31.5 -21 -51.5 -21s-37 7 -51 21s-21 31 -21 51s7 37 21 51s31 21 51 21s37.167 -7 51.5 -21s21.5 -31 21.5 -51zM427 70c0 -20 -7.16699 -37 -21.5 -51s-31.5 -21 -51.5 -21s-37 7 -51 21s-21 31 -21 51s7 37 21 51s31 21 51 21
s37.167 -7 51.5 -21s21.5 -31 21.5 -51zM657 70c0 -20 -7.16699 -37 -21.5 -51s-31.5 -21 -51.5 -21s-37 7 -51 21s-21 31 -21 51s7 37 21 51s31 21 51 21s37.167 -7 51.5 -21s21.5 -31 21.5 -51z" />
    <glyph glyph-name="perthousand" unicode="&#x2030;" horiz-adv-x="1165" 
d="M691 179c0 13.333 -1.16504 27.001 -3.49805 41.001s-6.33301 26.833 -12 38.5s-12.834 21.334 -21.501 29.001s-19.334 11.5 -32.001 11.5c-12 0 -22.333 -3.83301 -31 -11.5s-15.667 -17.334 -21 -29.001s-9.16602 -24.5 -11.499 -38.5s-3.5 -27.667 -3.5 -41
c0 -16 1.16699 -32.167 3.5 -48.5s6.16602 -31.333 11.499 -45s12.333 -24.834 21 -33.501s19.667 -13 33 -13s24.333 4.16699 33 12.5s15.5 19.166 20.5 32.499s8.5 28.333 10.5 45s3 33.334 3 50.001zM1056 179.001c0 13.333 -1.16504 27.001 -3.49805 41.001
s-6.33301 26.833 -12 38.5s-12.834 21.334 -21.501 29.001s-19.334 11.5 -32.001 11.5c-12 0 -22.333 -3.83301 -31 -11.5s-15.667 -17.334 -21 -29.001s-9.16602 -24.5 -11.499 -38.5s-3.5 -27.667 -3.5 -41c0 -16 1.16699 -32.167 3.5 -48.5s6.16602 -31.333 11.499 -45
s12.333 -24.834 21 -33.501s19.667 -13 33 -13s24.333 4.16699 33 12.5s15.5 19.166 20.5 32.499s8.5 28.333 10.5 45s3 33.334 3 50.001zM246.004 526.002c0 13.333 -1.16504 27.001 -3.49805 41.001s-6.33301 26.833 -12 38.5s-12.834 21.334 -21.501 29.001
s-19.334 11.5 -32.001 11.5c-12 0 -22.333 -3.83301 -31 -11.5s-15.667 -17.334 -21 -29.001s-9.16602 -24.5 -11.499 -38.5s-3.5 -27.667 -3.5 -41c0 -16 1.16699 -32.167 3.5 -48.5s6.16602 -31.333 11.499 -45s12.333 -24.834 21 -33.501s19.667 -13 33 -13
s24.333 4.16699 33 12.5s15.5 19.166 20.5 32.499s8.5 28.333 10.5 45s3 33.334 3 50.001zM776.006 181.003c0 -24.667 -3.50195 -48.501 -10.502 -71.501s-17.167 -43.333 -30.5 -61s-29.5 -31.834 -48.5 -42.501s-40.5 -16 -64.5 -16c-26 0 -48.667 4.83301 -68 14.5
s-35.166 22.834 -47.499 39.501s-21.5 36.334 -27.5 59.001s-9 47 -9 73c0 22.667 3.66699 44.5 11 65.5s17.833 39.5 31.5 55.5s29.834 28.833 48.501 38.5s39.667 14.5 63 14.5c24 0 45.333 -4.66699 64 -14s34.5 -21.833 47.5 -37.5s23 -33.667 30 -54
s10.5 -41.5 10.5 -63.5zM1141 181.002c0 -24.667 -3.50195 -48.501 -10.502 -71.501s-17.167 -43.333 -30.5 -61s-29.5 -31.834 -48.5 -42.501s-40.5 -16 -64.5 -16c-26 0 -48.667 4.83301 -68 14.5s-35.166 22.834 -47.499 39.501s-21.5 36.334 -27.5 59.001s-9 47 -9 73
c0 22.667 3.66699 44.5 11 65.5s17.833 39.5 31.5 55.5s29.834 28.833 48.501 38.5s39.667 14.5 63 14.5c24 0 45.333 -4.66699 64 -14s34.5 -21.833 47.5 -37.5s23 -33.667 30 -54s10.5 -41.5 10.5 -63.5zM173.002 -94.999l-47 26l489 844l46 -26zM331.002 528.001
c0 -24.667 -3.50195 -48.501 -10.502 -71.501s-17.167 -43.333 -30.5 -61s-29.5 -31.834 -48.5 -42.501s-40.5 -16 -64.5 -16c-26 0 -48.667 4.83301 -68 14.5s-35.166 22.834 -47.499 39.501s-21.5 36.334 -27.5 59.001s-9 47 -9 73c0 22.667 3.66699 44.5 11 65.5
s17.833 39.5 31.5 55.5s29.834 28.833 48.501 38.5s39.667 14.5 63 14.5c24 0 45.333 -4.66699 64 -14s34.5 -21.833 47.5 -37.5s23 -33.667 30 -54s10.5 -41.5 10.5 -63.5z" />
    <glyph glyph-name="guilsinglleft" unicode="&#x2039;" horiz-adv-x="300" 
d="M245 79l-212 137v97l209 140l35 -77l-170 -103l172 -108z" />
    <glyph glyph-name="guilsinglright" unicode="&#x203a;" horiz-adv-x="300" 
d="M63 89l-35 77l170 103l-172 108l34 86l212 -137v-97z" />
    <glyph glyph-name="fraction" unicode="&#x2044;" horiz-adv-x="250" 
d="M-88 -97l-62 28l489 844l61 -28z" />
    <glyph glyph-name="fraction" unicode="&#x2215;" horiz-adv-x="250" 
d="M-88 -97l-62 28l489 844l61 -28z" />
    <glyph glyph-name="trademark" unicode="&#x2122;" horiz-adv-x="900" 
d="M293 624v44h-67v-292h42v-42h-159v43h43v291h-68v-44h-48v94h305v-94h-48zM787 674v-296h39v-44h-136v44h24v256l-76 -300h-69l-79 300v-256h34v-44h-127v44h41v296h-39v44h144l70 -280l72 280h142v-44h-40z" />
    <glyph glyph-name="partialdiff" unicode="&#x2202;" 
d="M342 214c0 42.667 -7.50098 77.335 -22.501 104.002s-39.167 40 -72.5 40c-14 0 -26.667 -4 -38 -12s-21.166 -18.833 -29.499 -32.5s-14.666 -29.834 -18.999 -48.501s-6.5 -38.334 -6.5 -59.001c0 -20 2 -39.167 6 -57.5s10 -34.5 18 -48.5s18.167 -25.167 30.5 -33.5
s26.5 -12.5 42.5 -12.5s29.833 4.5 41.5 13.5s21.167 21 28.5 36s12.666 32.167 15.999 51.5s5 39 5 59zM442.999 305.001c0 -50 -4.99902 -94.5029 -14.999 -133.503s-23.667 -71.667 -41 -98s-38 -46.5 -62 -60.5s-50.333 -21 -79 -21c-30.667 0 -57.667 5.33301 -81 16
s-43 25.5 -59 44.5s-28.167 41.167 -36.5 66.5s-12.5 53 -12.5 83c0 31.333 4.66699 60.333 14 87s22.5 49.834 39.5 69.501s37.333 35 61 46s49.834 16.5 78.501 16.5c18.667 0 36.334 -2.16699 53.001 -6.5s30 -10.5 40 -18.5c0 16.667 -1.5 33.5 -4.5 50.5
s-7 33.333 -12 49s-10.833 29.834 -17.5 42.501s-14 23 -22 31c-14.667 14.667 -30.334 25.334 -47.001 32.001s-32.667 10 -48 10c-4.66699 0 -8.16699 -0.166992 -10.5 -0.5s-4.83301 -0.833008 -7.5 -1.5v-89h-66v145c13.333 0.666992 25.166 1.66699 35.499 3
s22.166 2 35.499 2c38 0 71.667 -5 101 -15s55 -26 77 -48c15.333 -15.333 28.5 -31.833 39.5 -49.5s20 -38.167 27 -61.5s12 -50.5 15 -81.5s4.5 -67.5 4.5 -109.5z" />
    <glyph glyph-name="product" unicode="&#x220f;" horiz-adv-x="784" 
d="M460 -196v60h78v880h-288v-880h74v-60h-259v60h78v880h-78v60h654v-60h-74v-880h74v-60h-259z" />
    <glyph glyph-name="summation" unicode="&#x2211;" horiz-adv-x="580" 
d="M40 -196v58l295 442l-252 441v59h428v-162h-71v96h-234l238 -416l-303 -452h300v96h71v-162h-472z" />
    <glyph glyph-name="minus" unicode="&#x2212;" 
d="M60 255v72h380v-72h-380z" />
    <glyph glyph-name="radical" unicode="&#x221a;" horiz-adv-x="503" 
d="M512 746l-223 -747h-67l-155 487h-63v58h155l111 -385l184 645h112v-58h-54z" />
    <glyph glyph-name="infinity" unicode="&#x221e;" horiz-adv-x="725" 
d="M330 301c-14 20.667 -30.335 38.998 -49.002 54.998s-42.667 24 -72 24c-12 0 -23.5 -2.83301 -34.5 -8.5s-20.833 -13.667 -29.5 -24s-15.5 -22.666 -20.5 -36.999s-7.5 -30.166 -7.5 -47.499c0 -30 7.83301 -54.833 23.5 -74.5s37.834 -29.5 66.501 -29.5
c16.667 0 31.834 5 45.501 15s25.667 22.333 36 37s19 30.167 26 46.5s12.167 30.833 15.5 43.5zM608.998 275.998c0 29.333 -7.83105 54 -23.498 74s-37.834 30 -66.501 30c-16.667 0 -31.834 -5 -45.501 -15s-25.667 -22.333 -36 -37s-19 -30.167 -26 -46.5
s-12.167 -30.833 -15.5 -43.5c6.66699 -10.667 14 -20.667 22 -30s16.833 -17.666 26.5 -24.999s20.334 -13.166 32.001 -17.499s24.834 -6.5 39.501 -6.5c12 0 23.667 2.83301 35 8.5s21.166 13.667 29.499 24s15.166 22.666 20.499 36.999s8 30.166 8 47.499zM695 269.998
c0 -32.667 -4.83301 -61.166 -14.5 -85.499s-22.667 -44.666 -39 -60.999s-35 -28.666 -56 -36.999s-42.833 -12.5 -65.5 -12.5c-36 0 -66.333 7.5 -91 22.5s-47 36.5 -67 64.5c-18.667 -24.667 -40.667 -45.334 -66 -62.001s-56 -25 -92 -25
c-22 0 -43.5 3.83301 -64.5 11.5s-39.5 19.5 -55.5 35.5s-29 36.333 -39 61s-15 54 -15 88c0 28.667 5 55 15 79s23.167 44.833 39.5 62.5s34.833 31.5 55.5 41.5s42 15 64 15c36 0 67.333 -7.83301 94 -23.5s48 -36.834 64 -63.501c18.667 27.333 40.667 48.666 66 63.999
s56 23 92 23c22.667 0 44.667 -3.83301 66 -11.5s40 -19.667 56 -36s28.833 -37 38.5 -62s14.5 -54.5 14.5 -88.5z" />
    <glyph glyph-name="integral" unicode="&#x222b;" horiz-adv-x="383" 
d="M373 725c-5.33301 3.33301 -12.501 5.83203 -21.501 7.49902s-17.833 2.5 -26.5 2.5c-16.667 0 -29.167 -1.66699 -37.5 -5s-16.5 -9 -24.5 -17c-6 -6 -10.5 -15.167 -13.5 -27.5s-4.5 -24.833 -4.5 -37.5v-609c0 -29.333 -1.66699 -54.333 -5 -75
s-13.333 -39.667 -30 -57c-13.333 -13.333 -28.666 -23 -45.999 -29s-40.666 -9 -69.999 -9c-18 0 -34.167 1.33301 -48.5 4s-26.166 6.33398 -35.499 11.001v68c5.33301 -3.33301 12.5 -5.83301 21.5 -7.5s17.833 -2.5 26.5 -2.5c15.333 0 27.666 1.83301 36.999 5.5
s18 9.5 26 17.5c6.66699 6.66699 11.167 16.334 13.5 29.001s3.5 25.667 3.5 39v625c0 24 2 44.833 6 62.5s13.667 34.167 29 49.5c13.333 13.333 29 23 47 29s41 9 69 9c18 0 34.167 -1.33301 48.5 -4s26.166 -6.33398 35.499 -11.001v-68z" />
    <glyph glyph-name="approxequal" unicode="&#x2248;" 
d="M440 164c-12.667 -5.33301 -27.5039 -10 -44.5039 -14s-35.5 -6 -55.5 -6c-18 0 -34.333 2 -49 6s-28.667 8.5 -42 13.5s-26.833 9.66699 -40.5 14s-28.5 6.5 -44.5 6.5c-23.333 0 -42.666 -1.66699 -57.999 -5s-30.666 -8.33301 -45.999 -15v72
c15.333 5.33301 32 10 50 14s36.667 6 56 6s36.666 -2.16699 51.999 -6.5s29.833 -9 43.5 -14s26.834 -9.5 39.501 -13.5s26.334 -6 41.001 -6c18.667 0 36.334 1.83301 53.001 5.5s31.667 8.5 45 14.5v-72zM439.996 327c-12.667 -5.33301 -27.5039 -10 -44.5039 -14
s-35.5 -6 -55.5 -6c-18 0 -34.333 2 -49 6s-28.667 8.5 -42 13.5s-26.833 9.66699 -40.5 14s-28.5 6.5 -44.5 6.5c-23.333 0 -42.666 -1.66699 -57.999 -5s-30.666 -8.33301 -45.999 -15v72c15.333 5.33301 32 10 50 14s36.667 6 56 6s36.666 -2.16699 51.999 -6.5
s29.833 -9 43.5 -14s26.834 -9.5 39.501 -13.5s26.334 -6 41.001 -6c18.667 0 36.334 1.83301 53.001 5.5s31.667 8.5 45 14.5v-72z" />
    <glyph glyph-name="notequal" unicode="&#x2260;" 
d="M215 163l-79 -136l-51 30l62 106h-87v72h129l54 92h-183v72h225l93 161l50 -30l-76 -131h88v-72h-130l-53 -92h183v-72h-225z" />
    <glyph glyph-name="lessequal" unicode="&#x2264;" 
d="M60 91v72h380v-72h-380zM176 385l233 -126l-54 -55l-323 178l333 176l51 -51z" />
    <glyph glyph-name="greaterequal" unicode="&#x2265;" 
d="M60 91v72h380v-72h-380zM135 204l-51 51l240 123l-233 125l54 55l323 -178z" />
    <glyph glyph-name="lozenge" unicode="&#x25ca;" horiz-adv-x="535" 
d="M267 446l-142 -172l142 -172l142 172zM267 7l-227 268l227 268l228 -268z" />
    <glyph glyph-name=".null" horiz-adv-x="0" 
 />
    <glyph glyph-name="nonmarkingreturn" horiz-adv-x="190" 
 />
    <glyph glyph-name="apple" horiz-adv-x="871" 
d="M403 317c0 4.66699 1.16699 8.66699 3.5 12s5.83301 5 10.5 5c8 0 12 -5.66699 12 -17h-26zM443 310c0 21.333 -8.33105 32 -24.998 32c-10.667 0 -18.167 -3.5 -22.5 -10.5s-6.5 -15.167 -6.5 -24.5c0 -12 3.16699 -21 9.5 -27s14.166 -9 23.499 -9
c7.33301 0 13.666 1 18.999 3v9c-4 -2 -9 -3 -15 -3c-15.333 0 -23 10 -23 30h40zM497.002 331c0 7.33301 -4.66699 11 -14 11h-8h-23v-8h10v-55h-10v-7h33v7h-10v55h4c6 0 9 -3 9 -9v-3h9v9zM538.002 279h-10v63h-24v-8h11v-55h-11v-7h34v7zM299.002 298
c0 9.33301 -5.33203 17.3359 -15.999 24.0029l-9 5c-5.33301 3.33301 -9 6 -11 8s-3 5 -3 9c0 8.66699 5 13 15 13c2.66699 0 4.66699 -0.166992 6 -0.5s2.66602 -0.5 3.99902 -0.5v-12h9v19c-3.33301 1.33301 -9.33301 2 -18 2c-9.33301 0 -16.5 -2.33301 -21.5 -7
s-7.5 -10.334 -7.5 -17.001c0 -10 5.33301 -18.333 16 -25l6 -3c4 -2.66699 7.66699 -5.33398 11 -8.00098s5 -6.33398 5 -11.001c0 -9.33301 -6.33301 -14 -19 -14c-3.33301 0 -7 0.666992 -11 2v10h-9v-18c4.66699 -2 11.334 -3 20.001 -3
c9.33301 0 17.166 2.5 23.499 7.5s9.5 11.5 9.5 19.5zM380.003 279.003h-10v42c0 6 -1.66699 10.667 -5 14c-4.66699 4.66699 -13 7 -25 7h-8v26h-23v-7h10v-82h-10v-7h33v7h-10v55h2c8.66699 0 15 -2 19 -6c2.66699 -3.33301 4 -8 4 -14v-42h23v7zM586.003 367.003
c-2.66699 1.33301 -6.33301 2.00098 -11 2.00098c-5.33301 0 -10.333 -1.66699 -15 -5c-2.66699 -2.66699 -4 -8.33398 -4 -17.001v-5h-11v-8h11v-55h-11v-7h36v7h-12v55h16v8h-16v2v6.5c0 3 0.666992 5.16699 2 6.5s4.33301 2 9 2c3.33301 0 5.33301 -0.333008 6 -1v9z
M631.004 367.004c-4 1.33301 -7.66602 2 -10.999 2c-6.66699 0 -11.667 -1.66699 -15 -5s-5 -9 -5 -17v-5h-10v-8h10v-55h-10v-7h36v7h-12v55h16v8h-17v2c0 1.33301 0.166992 3.5 0.5 6.5s1.16602 5.16699 2.49902 6.5s4.33301 2 9 2c3.33301 0 5.33301 -0.333008 6 -1v9z
M530.005 360.004c0 6.66699 -3 10 -9 10c-6.66699 0 -10 -3.33301 -10 -10c0 -6 3.33301 -9 10 -9c6 0 9 3 9 9zM871.005 85.0039c0 -13.333 -4.66699 -24.666 -14 -33.999s-20.666 -14 -33.999 -14s-24.833 4.66699 -34.5 14s-14.5 20.666 -14.5 33.999h-204l-110 -191
c7.33301 -4 13.166 -9.66699 17.499 -17s6.5 -15.666 6.5 -24.999c0 -13.333 -4.83301 -24.666 -14.5 -33.999s-21.167 -14 -34.5 -14s-24.666 4.66699 -33.999 14s-14 20.666 -14 33.999c0 9.33301 2.16699 17.666 6.5 24.999s10.166 13 17.499 17l-110 191h-204
c0 -13.333 -4.83301 -24.666 -14.5 -33.999s-21.167 -14 -34.5 -14s-24.666 4.66699 -33.999 14s-14 20.666 -14 33.999s4.66699 24.833 14 34.5s20.666 14.5 33.999 14.5c7.33301 0 15.666 -2.33301 24.999 -7l102 177l-102 177c-9.33301 -4.66699 -17.666 -7 -24.999 -7
c-13.333 0 -24.666 4.83301 -33.999 14.5s-14 21.167 -14 34.5s4.66699 24.666 14 33.999s20.666 14 33.999 14s24.833 -4.66699 34.5 -14s14.5 -20.666 14.5 -33.999h204l110 191c-7.33301 4 -13.166 9.66699 -17.499 17s-6.5 15.666 -6.5 24.999
c0 13.333 4.66699 24.666 14 33.999s20.666 14 33.999 14s24.833 -4.66699 34.5 -14s14.5 -20.666 14.5 -33.999c0 -9.33301 -2.16699 -17.666 -6.5 -24.999s-10.166 -13 -17.499 -17l110 -191h204c0 13.333 4.83301 24.666 14.5 33.999s21.167 14 34.5 14
s24.666 -4.66699 33.999 -14s14 -20.666 14 -33.999s-4.66699 -24.833 -14 -34.5s-20.666 -14.5 -33.999 -14.5c-7.33301 0 -15.666 2.33301 -24.999 7l-102 -177l102 -177c9.33301 4.66699 17.666 7 24.999 7c13.333 0 24.666 -4.83301 33.999 -14.5s14 -21.167 14 -34.5z
" />
    </font>
</defs>
</svg>
